SpartanTT-ExtraBold.ufo
<glyph name="exclam" format="2">
  <advance width="790"/>
  <unicode hex="0021"/>
  <outline>
    <component base="period" xOffset="-21"/>
    <contour>
      <point x="523" y="539" type="line"/>
      <point x="572" y="1720" type="line"/>
      <point x="217" y="1720" type="line"/>
      <point x="266" y="539" type="line"/>
    </contour>
  </outline>
</glyph>
<glyph name="numbersign" format="2">
  <advance width="1600"/>
  <unicode hex="0023"/>
  <outline>
    <contour>
      <point x="528" y="0" type="line"/>
      <point x="579" y="437" type="line"/>
      <point x="922" y="437" type="line"/>
      <point x="871" y="0" type="line"/>
      <point x="1112" y="0" type="line"/>
      <point x="1164" y="437" type="line"/>
      <point x="1462" y="437" type="line"/>
      <point x="1462" y="680" type="line"/>
      <point x="1194" y="680" type="line"/>
      <point x="1230" y="970" type="line"/>
      <point x="1462" y="970" type="line"/>
      <point x="1462" y="1213" type="line"/>
      <point x="1258" y="1213" type="line"/>
      <point x="1312" y="1649" type="line"/>
      <point x="1069" y="1649" type="line"/>
      <point x="1016" y="1213" type="line"/>
      <point x="674" y="1213" type="line"/>
      <point x="728" y="1649" type="line"/>
      <point x="485" y="1649" type="line"/>
      <point x="432" y="1213" type="line"/>
      <point x="138" y="1213" type="line"/>
      <point x="138" y="970" type="line"/>
      <point x="403" y="970" type="line"/>
      <point x="367" y="680" type="line"/>
      <point x="138" y="680" type="line"/>
      <point x="138" y="437" type="line"/>
      <point x="338" y="437" type="line"/>
      <point x="287" y="0" type="line"/>
    </contour>
    <contour>
      <point x="646" y="970" type="line"/>
      <point x="988" y="970" type="line"/>
      <point x="952" y="680" type="line"/>
      <point x="610" y="680" type="line"/>
    </contour>
  </outline>
</glyph>
<glyph name="dollar" format="2">
  <advance width="1423"/>
  <unicode hex="0024"/>
  <outline>
    <component base="S" xOffset="37"/>
    <contour>
      <point x="635" y="1926" type="line"/>
      <point x="635" y="1666" type="line"/>
      <point x="851" y="1666" type="line"/>
      <point x="851" y="1926" type="line"/>
    </contour>
    <contour>
      <point x="635" y="-13" type="line"/>
      <point x="635" y="-276" type="line"/>
      <point x="851" y="-276" type="line"/>
      <point x="851" y="-13" type="line"/>
    </contour>
  </outline>
</glyph>
<glyph name="percent" format="2">
  <advance width="2006"/>
  <unicode hex="0025"/>
  <outline>
    <contour>
      <point x="513" y="892" type="curve" smooth="yes"/>
      <point x="766" y="892"/>
      <point x="959" y="1054"/>
      <point x="959" y="1286" type="curve" smooth="yes"/>
      <point x="959" y="1518"/>
      <point x="766" y="1680"/>
      <point x="513" y="1680" type="curve" smooth="yes"/>
      <point x="260" y="1680"/>
      <point x="67" y="1518"/>
      <point x="67" y="1286" type="curve" smooth="yes"/>
      <point x="67" y="1054"/>
      <point x="260" y="892"/>
    </contour>
    <contour>
      <point x="513" y="1104" type="curve" smooth="yes"/>
      <point x="412" y="1104"/>
      <point x="328" y="1179"/>
      <point x="328" y="1286" type="curve" smooth="yes"/>
      <point x="328" y="1393"/>
      <point x="412" y="1468"/>
      <point x="513" y="1468" type="curve" smooth="yes"/>
      <point x="614" y="1468"/>
      <point x="698" y="1393"/>
      <point x="698" y="1286" type="curve" smooth="yes"/>
      <point x="698" y="1179"/>
      <point x="614" y="1104"/>
    </contour>
    <contour>
      <point x="1492" y="-32" type="curve" smooth="yes"/>
      <point x="1744" y="-32"/>
      <point x="1937" y="130"/>
      <point x="1937" y="362" type="curve" smooth="yes"/>
      <point x="1937" y="594"/>
      <point x="1744" y="756"/>
      <point x="1492" y="756" type="curve" smooth="yes"/>
      <point x="1239" y="756"/>
      <point x="1046" y="594"/>
      <point x="1046" y="362" type="curve" smooth="yes"/>
      <point x="1046" y="130"/>
      <point x="1239" y="-32"/>
    </contour>
    <contour>
      <point x="1492" y="180" type="curve" smooth="yes"/>
      <point x="1391" y="180"/>
      <point x="1307" y="255"/>
      <point x="1307" y="362" type="curve" smooth="yes"/>
      <point x="1307" y="469"/>
      <point x="1391" y="544"/>
      <point x="1492" y="544" type="curve" smooth="yes"/>
      <point x="1592" y="544"/>
      <point x="1676" y="469"/>
      <point x="1676" y="362" type="curve" smooth="yes"/>
      <point x="1676" y="255"/>
      <point x="1592" y="180"/>
    </contour>
    <contour>
      <point x="644" y="0" type="line"/>
      <point x="1604" y="1650" type="line"/>
      <point x="1366" y="1650" type="line"/>
      <point x="406" y="0" type="line"/>
    </contour>
  </outline>
</glyph>
<glyph name="ampersand" format="2">
  <advance width="1843"/>
  <unicode hex="0026"/>
  <outline>
    <contour>
      <point x="635" y="-32" type="curve" smooth="yes"/>
      <point x="847" y="-32"/>
      <point x="1031" y="43"/>
      <point x="1185" y="169" type="curve"/>
      <point x="1348" y="0" type="line" name=".hr01"/>
      <point x="1823" y="0" type="line"/>
      <point x="1467" y="371" type="line"/>
      <point x="1529" y="423"/>
      <point x="1619" y="511"/>
      <point x="1701" y="599" type="curve"/>
      <point x="1470" y="824" type="line"/>
      <point x="1411" y="762"/>
      <point x="1305" y="662"/>
      <point x="1232" y="611" type="curve"/>
      <point x="1007" y="844" type="line"/>
      <point x="1218" y="957"/>
      <point x="1333" y="1099"/>
      <point x="1333" y="1263" type="curve" smooth="yes"/>
      <point x="1333" y="1456"/>
      <point x="1173" y="1682"/>
      <point x="827" y="1682" type="curve" smooth="yes"/>
      <point x="545" y="1682"/>
      <point x="317" y="1532"/>
      <point x="317" y="1258" type="curve" smooth="yes"/>
      <point x="317" y="1140"/>
      <point x="361" y="1039"/>
      <point x="482" y="884" type="curve"/>
      <point x="211" y="774"/>
      <point x="80" y="626" name=".hr02"/>
      <point x="80" y="418" type="curve" smooth="yes"/>
      <point x="80" y="150"/>
      <point x="299" y="-32"/>
    </contour>
    <contour>
      <point x="688" y="326" type="curve" smooth="yes"/>
      <point x="583" y="326"/>
      <point x="506" y="380"/>
      <point x="506" y="477" type="curve" smooth="yes"/>
      <point x="506" y="566"/>
      <point x="574" y="650"/>
      <point x="674" y="683" type="curve"/>
      <point x="938" y="424" type="line"/>
      <point x="862" y="362"/>
      <point x="773" y="326"/>
    </contour>
    <contour>
      <point x="819" y="1048" type="curve"/>
      <point x="740" y="1126"/>
      <point x="700" y="1196"/>
      <point x="700" y="1269" type="curve" smooth="yes"/>
      <point x="700" y="1356" name=".hr03"/>
      <point x="758" y="1417"/>
      <point x="846" y="1417" type="curve" smooth="yes"/>
      <point x="937" y="1417"/>
      <point x="1003" y="1352"/>
      <point x="1003" y="1266" type="curve" smooth="yes"/>
      <point x="1003" y="1183"/>
      <point x="942" y="1120"/>
    </contour>
  </outline>
</glyph>
<glyph name="quotesingle" format="2">
  <advance width="682"/>
  <unicode hex="0027"/>
  <outline>
    <contour>
      <point x="447" y="990" type="line"/>
      <point x="511" y="1720" type="line"/>
      <point x="172" y="1720" type="line"/>
      <point x="236" y="990" type="line"/>
    </contour>
  </outline>
</glyph>
<glyph name="parenleft" format="2">
  <advance width="732"/>
  <unicode hex="0028"/>
  <outline>
    <contour>
      <point x="666" y="-402" type="line"/>
      <point x="561" y="-237"/>
      <point x="424" y="129"/>
      <point x="424" y="615" type="curve" smooth="yes"/>
      <point x="424" y="1103"/>
      <point x="562" y="1469"/>
      <point x="666" y="1632" type="curve"/>
      <point x="450" y="1750" type="line"/>
      <point x="298" y="1550"/>
      <point x="99" y="1132"/>
      <point x="99" y="614" type="curve" smooth="yes"/>
      <point x="99" y="99"/>
      <point x="297" y="-319"/>
      <point x="450" y="-520" type="curve"/>
    </contour>
  </outline>
</glyph>
<glyph name="asterisk" format="2">
  <advance width="1015"/>
  <unicode hex="002A"/>
  <outline>
    <contour>
      <point x="505" y="1209" type="line"/>
      <point x="646" y="1026" type="line"/>
      <point x="779" y="1117" type="line"/>
      <point x="647" y="1315" type="line"/>
      <point x="874" y="1396" type="line"/>
      <point x="822" y="1557" type="line"/>
      <point x="594" y="1486" type="line"/>
      <point x="594" y="1720" type="line"/>
      <point x="417" y="1720" type="line"/>
      <point x="417" y="1486" type="line"/>
      <point x="189" y="1557" type="line"/>
      <point x="137" y="1396" type="line"/>
      <point x="364" y="1315" type="line"/>
      <point x="232" y="1117" type="line"/>
      <point x="365" y="1026" type="line"/>
    </contour>
  </outline>
</glyph>
<glyph name="plus" format="2">
  <advance width="1313"/>
  <unicode hex="002B"/>
  <outline>
    <contour>
      <point x="811" y="316" type="line"/>
      <point x="811" y="676" type="line"/>
      <point x="1171" y="676" type="line"/>
      <point x="1171" y="984" type="line"/>
      <point x="811" y="984" type="line"/>
      <point x="811" y="1344" type="line"/>
      <point x="503" y="1344" type="line"/>
      <point x="503" y="984" type="line"/>
      <point x="143" y="984" type="line"/>
      <point x="143" y="676" type="line"/>
      <point x="503" y="676" type="line"/>
      <point x="503" y="316" type="line"/>
    </contour>
  </outline>
</glyph>
<glyph name="comma" format="2">
  <advance width="765"/>
  <unicode hex="002C"/>
  <outline>
    <contour>
      <point x="285" y="-376" type="line"/>
      <point x="498" y="-201"/>
      <point x="624" y="5"/>
      <point x="624" y="178" type="curve" smooth="yes"/>
      <point x="624" y="329"/>
      <point x="527" y="427"/>
      <point x="395" y="427" type="curve" smooth="yes"/>
      <point x="263" y="427"/>
      <point x="163" y="329"/>
      <point x="163" y="200" type="curve" smooth="yes"/>
      <point x="163" y="96"/>
      <point x="227" y="16"/>
      <point x="334" y="-12" type="curve"/>
      <point x="318" y="-101"/>
      <point x="241" y="-243"/>
      <point x="184" y="-293" type="curve"/>
    </contour>
  </outline>
</glyph>
<glyph name="hyphen" format="2">
  <advance width="984"/>
  <unicode hex="002D"/>
  <outline>
    <contour>
      <point x="814" y="426" type="line"/>
      <point x="814" y="732" type="line"/>
      <point x="170" y="732" type="line"/>
      <point x="170" y="426" type="line"/>
    </contour>
  </outline>
</glyph>
<glyph name="period" format="2">
  <advance width="750"/>
  <unicode hex="002E"/>
  <outline>
    <contour>
      <point x="375" y="-32" type="curve" smooth="yes"/>
      <point x="503" y="-32"/>
      <point x="605" y="70"/>
      <point x="605" y="198" type="curve" smooth="yes"/>
      <point x="605" y="326"/>
      <point x="503" y="428"/>
      <point x="375" y="428" type="curve" smooth="yes"/>
      <point x="247" y="428"/>
      <point x="145" y="326"/>
      <point x="145" y="198" type="curve" smooth="yes"/>
      <point x="145" y="70"/>
      <point x="247" y="-32"/>
    </contour>
  </outline>
</glyph>
<glyph name="slash" format="2">
  <advance width="1006"/>
  <unicode hex="002F"/>
  <outline>
    <contour>
      <point x="244" y="-240" type="line"/>
      <point x="1068" y="1720" type="line"/>
      <point x="763" y="1720" type="line"/>
      <point x="-61" y="-240" type="line"/>
    </contour>
  </outline>
</glyph>
<glyph name="zero" format="2">
  <advance width="1500"/>
  <unicode hex="0030"/>
  <outline>
    <contour>
      <point x="750" y="-32" type="curve" smooth="yes"/>
      <point x="1155" y="-32"/>
      <point x="1430" y="316"/>
      <point x="1430" y="824" type="curve" smooth="yes"/>
      <point x="1430" y="1332"/>
      <point x="1155" y="1680"/>
      <point x="750" y="1680" type="curve" smooth="yes"/>
      <point x="345" y="1680"/>
      <point x="70" y="1332"/>
      <point x="70" y="824" type="curve" smooth="yes"/>
      <point x="70" y="316"/>
      <point x="345" y="-32"/>
    </contour>
    <contour>
      <point x="750" y="299" type="curve" smooth="yes"/>
      <point x="574" y="299"/>
      <point x="467" y="495"/>
      <point x="467" y="824" type="curve" smooth="yes"/>
      <point x="467" y="1153"/>
      <point x="574" y="1349"/>
      <point x="750" y="1349" type="curve" smooth="yes"/>
      <point x="927" y="1349"/>
      <point x="1033" y="1153"/>
      <point x="1033" y="824" type="curve" smooth="yes"/>
      <point x="1033" y="495"/>
      <point x="927" y="299"/>
    </contour>
  </outline>
</glyph>
<glyph name="two" format="2">
  <advance width="1500"/>
  <unicode hex="0032"/>
  <outline>
    <contour>
      <point x="1359" y="0" type="line"/>
      <point x="1359" y="332" type="line"/>
      <point x="748" y="332" type="line"/>
      <point x="1156" y="619"/>
      <point x="1329" y="858"/>
      <point x="1329" y="1124" type="curve" smooth="yes"/>
      <point x="1329" y="1446"/>
      <point x="1074" y="1682"/>
      <point x="713" y="1682" type="curve" smooth="yes"/>
      <point x="415" y="1682"/>
      <point x="204" y="1512"/>
      <point x="107" y="1209" type="curve"/>
      <point x="414" y="1081" type="line"/>
      <point x="459" y="1251"/>
      <point x="563" y="1348"/>
      <point x="690" y="1348" type="curve" smooth="yes"/>
      <point x="824" y="1348"/>
      <point x="924" y="1240"/>
      <point x="924" y="1112" type="curve" smooth="yes"/>
      <point x="924" y="918"/>
      <point x="685" y="661"/>
      <point x="72" y="195" type="curve"/>
      <point x="72" y="0" type="line"/>
    </contour>
  </outline>
</glyph>
<glyph name="three" format="2">
  <advance width="1500"/>
  <unicode hex="0033"/>
  <outline>
    <contour>
      <point x="712" y="-32" type="curve" smooth="yes"/>
      <point x="1069" y="-32"/>
      <point x="1323" y="197"/>
      <point x="1323" y="509" type="curve" smooth="yes"/>
      <point x="1323" y="676"/>
      <point x="1248" y="804"/>
      <point x="1114" y="887" type="curve"/>
      <point x="1208" y="963"/>
      <point x="1259" y="1069"/>
      <point x="1259" y="1198" type="curve" smooth="yes"/>
      <point x="1259" y="1476"/>
      <point x="1031" y="1680"/>
      <point x="717" y="1680" type="curve" smooth="yes"/>
      <point x="459" y="1680"/>
      <point x="265" y="1541"/>
      <point x="198" y="1307" type="curve"/>
      <point x="469" y="1180" type="line"/>
      <point x="494" y="1297"/>
      <point x="593" y="1377"/>
      <point x="710" y="1377" type="curve" smooth="yes"/>
      <point x="828" y="1377"/>
      <point x="918" y="1295"/>
      <point x="918" y="1191" type="curve" smooth="yes"/>
      <point x="918" y="1084"/>
      <point x="827" y="986"/>
      <point x="719" y="986" type="curve" smooth="yes"/>
      <point x="637" y="986" type="line"/>
      <point x="637" y="739" type="line"/>
      <point x="658" y="748"/>
      <point x="685" y="752"/>
      <point x="713" y="752" type="curve" smooth="yes"/>
      <point x="843" y="752"/>
      <point x="948" y="649"/>
      <point x="948" y="509" type="curve" smooth="yes"/>
      <point x="948" y="377"/>
      <point x="856" y="292"/>
      <point x="713" y="292" type="curve" smooth="yes"/>
      <point x="575" y="292"/>
      <point x="481" y="370"/>
      <point x="453" y="487" type="curve"/>
      <point x="132" y="385" type="line"/>
      <point x="189" y="129"/>
      <point x="416" y="-32"/>
    </contour>
  </outline>
</glyph>
<glyph name="four" format="2">
  <advance width="1500"/>
  <unicode hex="0034"/>
  <outline>
    <contour>
      <point x="1200" y="0" type="line"/>
      <point x="1200" y="298" type="line"/>
      <point x="1392" y="298" type="line"/>
      <point x="1392" y="628" type="line"/>
      <point x="1200" y="628" type="line"/>
      <point x="1200" y="1650" type="line"/>
      <point x="827" y="1650" type="line"/>
      <point x="26" y="409" type="line"/>
      <point x="26" y="298" type="line"/>
      <point x="847" y="298" type="line"/>
      <point x="847" y="0" type="line"/>
    </contour>
    <contour>
      <point x="847" y="1147" type="line"/>
      <point x="847" y="628" type="line"/>
      <point x="540" y="628" type="line"/>
    </contour>
  </outline>
</glyph>
<glyph name="five" format="2">
  <advance width="1500"/>
  <unicode hex="0035"/>
  <outline>
    <contour>
      <point x="376" y="1650" type="line"/>
      <point x="234" y="745" type="line"/>
      <point x="320" y="789"/>
      <point x="421" y="814"/>
      <point x="530" y="814" type="curve" smooth="yes"/>
      <point x="789" y="814"/>
      <point x="947" y="706"/>
      <point x="947" y="524" type="curve" smooth="yes"/>
      <point x="947" y="385"/>
      <point x="855" y="283"/>
      <point x="697" y="283" type="curve" smooth="yes"/>
      <point x="561" y="283"/>
      <point x="452" y="359"/>
      <point x="421" y="472" type="curve"/>
      <point x="123" y="328" type="line"/>
      <point x="209" y="94"/>
      <point x="445" y="-32"/>
      <point x="707" y="-32" type="curve" smooth="yes"/>
      <point x="1058" y="-32"/>
      <point x="1324" y="193"/>
      <point x="1324" y="549" type="curve" smooth="yes"/>
      <point x="1324" y="873"/>
      <point x="1102" y="1085"/>
      <point x="784" y="1085" type="curve" smooth="yes"/>
      <point x="716" y="1085"/>
      <point x="653" y="1072"/>
      <point x="593" y="1044" type="curve"/>
      <point x="653" y="1026" type="line"/>
      <point x="698" y="1320" type="line"/>
      <point x="1218" y="1320" type="line"/>
      <point x="1218" y="1650" type="line"/>
    </contour>
  </outline>
</glyph>
<glyph name="six" format="2">
  <advance width="1500"/>
  <unicode hex="0036"/>
  <outline>
    <contour>
      <point x="775" y="-32" type="curve" smooth="yes"/>
      <point x="1142" y="-32"/>
      <point x="1388" y="198"/>
      <point x="1388" y="542" type="curve" smooth="yes"/>
      <point x="1388" y="873"/>
      <point x="1169" y="1108"/>
      <point x="870" y="1108" type="curve" smooth="yes"/>
      <point x="819" y="1108"/>
      <point x="775" y="1099"/>
      <point x="744" y="1084" type="curve"/>
      <point x="1220" y="1650" type="line"/>
      <point x="766" y="1650" type="line"/>
      <point x="386" y="1189" type="line" smooth="yes"/>
      <point x="209" y="974"/>
      <point x="117" y="759"/>
      <point x="117" y="561" type="curve" smooth="yes"/>
      <point x="117" y="223"/>
      <point x="387" y="-32"/>
    </contour>
    <contour>
      <point x="756" y="280" type="curve" smooth="yes"/>
      <point x="609" y="280"/>
      <point x="507" y="388"/>
      <point x="507" y="529" type="curve" smooth="yes"/>
      <point x="507" y="675"/>
      <point x="617" y="786"/>
      <point x="759" y="786" type="curve" smooth="yes"/>
      <point x="901" y="786"/>
      <point x="1011" y="677"/>
      <point x="1011" y="531" type="curve" smooth="yes"/>
      <point x="1011" y="385"/>
      <point x="903" y="280"/>
    </contour>
  </outline>
</glyph>
<glyph name="seven" format="2">
  <advance width="1500"/>
  <unicode hex="0037"/>
  <outline>
    <contour>
      <point x="558" y="0" type="line"/>
      <point x="1430" y="1540" type="line"/>
      <point x="1430" y="1650" type="line"/>
      <point x="164" y="1650" type="line"/>
      <point x="164" y="1320" type="line"/>
      <point x="873" y="1320" type="line"/>
      <point x="113" y="0" type="line"/>
    </contour>
  </outline>
</glyph>
<glyph name="eight" format="2">
  <advance width="1500"/>
  <unicode hex="0038"/>
  <outline>
    <contour>
      <point x="749" y="-32" type="curve" smooth="yes"/>
      <point x="1092" y="-32"/>
      <point x="1367" y="173"/>
      <point x="1367" y="460" type="curve" smooth="yes"/>
      <point x="1367" y="648"/>
      <point x="1252" y="814"/>
      <point x="1078" y="890" type="curve"/>
      <point x="1211" y="963"/>
      <point x="1296" y="1100" name=".hr01"/>
      <point x="1296" y="1250" type="curve" smooth="yes"/>
      <point x="1296" y="1530"/>
      <point x="1004" y="1680"/>
      <point x="749" y="1680" type="curve" smooth="yes"/>
      <point x="450" y="1680"/>
      <point x="202" y="1499"/>
      <point x="202" y="1249" type="curve" smooth="yes"/>
      <point x="202" y="1105"/>
      <point x="283" y="966"/>
      <point x="420" y="890" type="curve"/>
      <point x="250" y="816"/>
      <point x="132" y="651" name=".hr02"/>
      <point x="132" y="461" type="curve" smooth="yes"/>
      <point x="132" y="172"/>
      <point x="406" y="-32"/>
    </contour>
    <contour>
      <point x="749" y="293" type="curve" smooth="yes"/>
      <point x="625" y="293"/>
      <point x="543" y="382"/>
      <point x="543" y="502" type="curve" smooth="yes"/>
      <point x="543" y="627"/>
      <point x="631" y="714"/>
      <point x="749" y="714" type="curve" smooth="yes"/>
      <point x="869" y="714"/>
      <point x="955" y="625"/>
      <point x="955" y="502" type="curve" smooth="yes"/>
      <point x="955" y="383"/>
      <point x="874" y="293"/>
    </contour>
    <contour>
      <point x="749" y="1026" type="curve" smooth="yes"/>
      <point x="643" y="1026"/>
      <point x="564" y="1105"/>
      <point x="564" y="1211" type="curve" smooth="yes"/>
      <point x="564" y="1316" name=".hr03"/>
      <point x="644" y="1395"/>
      <point x="749" y="1395" type="curve" smooth="yes"/>
      <point x="855" y="1395"/>
      <point x="934" y="1316"/>
      <point x="934" y="1211" type="curve" smooth="yes"/>
      <point x="934" y="1105"/>
      <point x="856" y="1026"/>
    </contour>
  </outline>
</glyph>
<glyph name="nine" format="2">
  <advance width="1500"/>
  <unicode hex="0039"/>
  <outline>
    <contour>
      <point x="730" y="0" type="line"/>
      <point x="1109" y="461" type="line" smooth="yes"/>
      <point x="1287" y="677"/>
      <point x="1378" y="888"/>
      <point x="1378" y="1085" type="curve" smooth="yes"/>
      <point x="1378" y="1414"/>
      <point x="1119" y="1680"/>
      <point x="721" y="1680" type="curve" smooth="yes"/>
      <point x="331" y="1680"/>
      <point x="108" y="1426"/>
      <point x="108" y="1111" type="curve" smooth="yes"/>
      <point x="108" y="772"/>
      <point x="368" y="541"/>
      <point x="632" y="541" type="curve" smooth="yes"/>
      <point x="679" y="541"/>
      <point x="724" y="550"/>
      <point x="755" y="567" type="curve"/>
      <point x="274" y="0" type="line"/>
    </contour>
    <contour>
      <point x="739" y="864" type="curve" smooth="yes"/>
      <point x="595" y="864"/>
      <point x="486" y="973"/>
      <point x="486" y="1118" type="curve" smooth="yes"/>
      <point x="486" y="1262"/>
      <point x="594" y="1367"/>
      <point x="739" y="1367" type="curve" smooth="yes"/>
      <point x="883" y="1367"/>
      <point x="987" y="1263"/>
      <point x="987" y="1118" type="curve" smooth="yes"/>
      <point x="987" y="974"/>
      <point x="879" y="864"/>
    </contour>
  </outline>
</glyph>
<glyph name="equal" format="2">
  <advance width="1536"/>
  <unicode hex="003D"/>
  <outline>
    <contour>
      <point x="1282" y="918" type="line"/>
      <point x="1282" y="1226" type="line"/>
      <point x="254" y="1226" type="line"/>
      <point x="254" y="918" type="line"/>
    </contour>
    <contour>
      <point x="1282" y="435" type="line"/>
      <point x="1282" y="743" type="line"/>
      <point x="254" y="743" type="line"/>
      <point x="254" y="435" type="line"/>
    </contour>
  </outline>
</glyph>
<glyph name="greater" format="2">
  <advance width="1398"/>
  <unicode hex="003E"/>
  <outline>
    <contour>
      <point x="1287" y="714" type="line"/>
      <point x="1287" y="950" type="line"/>
      <point x="195" y="1394" type="line"/>
      <point x="195" y="1110" type="line"/>
      <point x="909" y="832" type="line"/>
      <point x="195" y="554" type="line"/>
      <point x="195" y="270" type="line"/>
    </contour>
  </outline>
</glyph>
<glyph name="question" format="2">
  <advance width="1182"/>
  <unicode hex="003F"/>
  <outline>
    <component base="period" xOffset="144"/>
    <contour>
      <point x="724" y="541" type="line"/>
      <point x="724" y="701" type="line"/>
      <point x="937" y="746"/>
      <point x="1118" y="945"/>
      <point x="1118" y="1187" type="curve" smooth="yes"/>
      <point x="1118" y="1450"/>
      <point x="901" y="1680"/>
      <point x="576" y="1680" type="curve" smooth="yes"/>
      <point x="339" y="1680"/>
      <point x="133" y="1555"/>
      <point x="52" y="1350" type="curve"/>
      <point x="283" y="1180" type="line"/>
      <point x="334" y="1297"/>
      <point x="432" y="1366"/>
      <point x="560" y="1366" type="curve" smooth="yes"/>
      <point x="693" y="1366"/>
      <point x="784" y="1295"/>
      <point x="784" y="1182" type="curve" smooth="yes"/>
      <point x="784" y="1067"/>
      <point x="690" y="997"/>
      <point x="526" y="997" type="curve" smooth="yes"/>
      <point x="475" y="997"/>
      <point x="424" y="1004"/>
      <point x="394" y="1013" type="curve"/>
      <point x="394" y="541" type="line"/>
    </contour>
  </outline>
</glyph>
<glyph name="at" format="2">
  <advance width="1971"/>
  <unicode hex="0040"/>
  <outline>
    <contour>
      <point x="1021" y="-514" type="curve" smooth="yes"/>
      <point x="1328" y="-514"/>
      <point x="1529" y="-377"/>
      <point x="1619" y="-253" type="curve"/>
      <point x="1388" y="-99" type="line"/>
      <point x="1326" y="-161"/>
      <point x="1199" y="-230"/>
      <point x="1023" y="-230" type="curve" smooth="yes"/>
      <point x="681" y="-230"/>
      <point x="411" y="21"/>
      <point x="411" y="346" type="curve" smooth="yes"/>
      <point x="411" y="646"/>
      <point x="637" y="944"/>
      <point x="1022" y="944" type="curve" smooth="yes"/>
      <point x="1309" y="944"/>
      <point x="1643" y="778"/>
      <point x="1643" y="397" type="curve" smooth="yes"/>
      <point x="1643" y="244"/>
      <point x="1588" y="201"/>
      <point x="1523" y="201" type="curve" smooth="yes"/>
      <point x="1424" y="201"/>
      <point x="1413" y="271"/>
      <point x="1413" y="316" type="curve" smooth="yes"/>
      <point x="1413" y="692" type="line"/>
      <point x="1193" y="692" type="line"/>
      <point x="1193" y="621" type="line"/>
      <point x="1138" y="678"/>
      <point x="1052" y="714"/>
      <point x="958" y="714" type="curve" smooth="yes"/>
      <point x="744" y="714"/>
      <point x="596" y="545"/>
      <point x="596" y="333" type="curve" smooth="yes"/>
      <point x="596" y="116"/>
      <point x="749" y="-48"/>
      <point x="952" y="-48" type="curve" smooth="yes"/>
      <point x="1070" y="-48"/>
      <point x="1154" y="8"/>
      <point x="1208" y="79" type="curve"/>
      <point x="1277" y="22"/>
      <point x="1367" y="-8"/>
      <point x="1478" y="-8" type="curve" smooth="yes"/>
      <point x="1668" y="-8"/>
      <point x="1872" y="89"/>
      <point x="1872" y="413" type="curve" smooth="yes"/>
      <point x="1872" y="873"/>
      <point x="1494" y="1198"/>
      <point x="1018" y="1198" type="curve" smooth="yes"/>
      <point x="525" y="1198"/>
      <point x="119" y="849"/>
      <point x="119" y="344" type="curve" smooth="yes"/>
      <point x="119" y="-160"/>
      <point x="528" y="-514"/>
    </contour>
    <contour>
      <point x="1019" y="166" type="curve" smooth="yes"/>
      <point x="921" y="166"/>
      <point x="852" y="233"/>
      <point x="852" y="333" type="curve" smooth="yes"/>
      <point x="852" y="437"/>
      <point x="928" y="507"/>
      <point x="1021" y="507" type="curve" smooth="yes"/>
      <point x="1115" y="507"/>
      <point x="1192" y="437"/>
      <point x="1192" y="334" type="curve" smooth="yes"/>
      <point x="1192" y="236"/>
      <point x="1120" y="166"/>
    </contour>
  </outline>
</glyph>
<glyph name="A" format="2">
  <advance width="1667"/>
  <unicode hex="0041"/>
  <anchor x="833" y="0" name="bottom"/>
  <anchor x="1675" y="0" name="ogonek"/>
  <anchor x="833" y="1650" name="top"/>
  <outline>
    <contour>
      <point x="397" y="0" type="line"/>
      <point x="519" y="330" type="line"/>
      <point x="1147" y="330" type="line"/>
      <point x="1269" y="0" type="line"/>
      <point x="1675" y="0" type="line"/>
      <point x="1007" y="1650" type="line"/>
      <point x="658" y="1650" type="line"/>
      <point x="-9" y="0" type="line"/>
    </contour>
    <contour>
      <point x="833" y="1140" type="line"/>
      <point x="1019" y="660" type="line"/>
      <point x="647" y="660" type="line"/>
    </contour>
  </outline>
</glyph>
<glyph name="B" format="2">
  <advance width="1332"/>
  <unicode hex="0042"/>
  <anchor x="665" y="0" name="bottom"/>
  <anchor x="665" y="1650" name="top"/>
  <outline>
    <contour>
      <point x="746" y="0" type="line" smooth="yes"/>
      <point x="1077" y="0"/>
      <point x="1286" y="176"/>
      <point x="1286" y="470" type="curve" smooth="yes"/>
      <point x="1286" y="696"/>
      <point x="1163" y="838"/>
      <point x="934" y="876" type="curve"/>
      <point x="1070" y="947"/>
      <point x="1140" y="1069"/>
      <point x="1140" y="1236" type="curve" smooth="yes"/>
      <point x="1140" y="1513"/>
      <point x="948" y="1650"/>
      <point x="632" y="1650" type="curve" smooth="yes"/>
      <point x="120" y="1650" type="line"/>
      <point x="120" y="0" type="line"/>
    </contour>
    <contour>
      <point x="496" y="1360" type="line"/>
      <point x="542" y="1360" type="line" smooth="yes"/>
      <point x="700" y="1360"/>
      <point x="776" y="1302"/>
      <point x="776" y="1185" type="curve" smooth="yes"/>
      <point x="776" y="1069"/>
      <point x="694" y="1005"/>
      <point x="542" y="1005" type="curve" smooth="yes"/>
      <point x="496" y="1005" type="line"/>
    </contour>
    <contour>
      <point x="496" y="681" type="line"/>
      <point x="614" y="681" type="line" smooth="yes"/>
      <point x="794" y="681"/>
      <point x="890" y="610"/>
      <point x="890" y="481" type="curve" smooth="yes"/>
      <point x="890" y="353"/>
      <point x="800" y="290"/>
      <point x="614" y="290" type="curve" smooth="yes"/>
      <point x="496" y="290" type="line"/>
    </contour>
  </outline>
</glyph>
<glyph name="C" format="2">
  <advance width="1505"/>
  <unicode hex="0043"/>
  <anchor x="850" y="0" name="bottom"/>
  <anchor x="850" y="1650" name="top"/>
  <outline>
    <contour>
      <point x="72" y="824" type="curve" smooth="yes"/>
      <point x="72" y="349"/>
      <point x="447" y="-32"/>
      <point x="960" y="-32" type="curve" smooth="yes"/>
      <point x="1161" y="-32"/>
      <point x="1355" y="30"/>
      <point x="1483" y="119" type="curve"/>
      <point x="1302" y="427" type="line"/>
      <point x="1221" y="370"/>
      <point x="1103" y="337"/>
      <point x="984" y="337" type="curve" smooth="yes"/>
      <point x="668" y="337"/>
      <point x="479" y="547"/>
      <point x="479" y="825" type="curve" smooth="yes"/>
      <point x="479" y="1101"/>
      <point x="668" y="1311"/>
      <point x="984" y="1311" type="curve" smooth="yes"/>
      <point x="1103" y="1311"/>
      <point x="1221" y="1278"/>
      <point x="1302" y="1221" type="curve"/>
      <point x="1483" y="1529" type="line"/>
      <point x="1355" y="1618"/>
      <point x="1161" y="1680"/>
      <point x="960" y="1680" type="curve" smooth="yes"/>
      <point x="447" y="1680"/>
      <point x="72" y="1299"/>
    </contour>
  </outline>
</glyph>
<glyph name="D" format="2">
  <advance width="1604"/>
  <unicode hex="0044"/>
  <anchor x="801" y="0" name="bottom"/>
  <anchor x="801" y="825" name="center"/>
  <anchor x="801" y="1650" name="top"/>
  <outline>
    <contour>
      <point x="690" y="0" type="line" smooth="yes"/>
      <point x="1160" y="0"/>
      <point x="1522" y="360"/>
      <point x="1522" y="825" type="curve" smooth="yes"/>
      <point x="1522" y="1290"/>
      <point x="1158" y="1650"/>
      <point x="690" y="1650" type="curve" smooth="yes"/>
      <point x="212" y="1650" type="line"/>
      <point x="212" y="0" type="line"/>
    </contour>
    <contour>
      <point x="588" y="1313" type="line"/>
      <point x="647" y="1313" type="line" smooth="yes"/>
      <point x="918" y="1313"/>
      <point x="1116" y="1108"/>
      <point x="1116" y="825" type="curve" smooth="yes"/>
      <point x="1116" y="542"/>
      <point x="918" y="337"/>
      <point x="647" y="337" type="curve" smooth="yes"/>
      <point x="588" y="337" type="line"/>
    </contour>
  </outline>
</glyph>
<glyph name="E" format="2">
  <advance width="1325"/>
  <unicode hex="0045"/>
  <anchor x="675" y="0" name="bottom"/>
  <anchor x="1156" y="0" name="ogonek"/>
  <anchor x="675" y="1650" name="top"/>
  <outline>
    <contour>
      <point x="1156" y="0" type="line"/>
      <point x="1156" y="330" type="line"/>
      <point x="588" y="330" type="line"/>
      <point x="588" y="662" type="line"/>
      <point x="1132" y="662" type="line"/>
      <point x="1132" y="992" type="line"/>
      <point x="588" y="992" type="line"/>
      <point x="588" y="1320" type="line"/>
      <point x="1156" y="1320" type="line"/>
      <point x="1156" y="1650" type="line"/>
      <point x="212" y="1650" type="line"/>
      <point x="212" y="0" type="line"/>
    </contour>
  </outline>
</glyph>
<glyph name="F" format="2">
  <advance width="1257"/>
  <unicode hex="0046"/>
  <anchor x="628" y="0" name="bottom"/>
  <anchor x="628" y="1650" name="top"/>
  <outline>
    <contour>
      <point x="212" y="1650" type="line"/>
      <point x="212" y="0" type="line"/>
      <point x="588" y="0" type="line"/>
      <point x="588" y="662" type="line"/>
      <point x="1122" y="662" type="line"/>
      <point x="1122" y="992" type="line"/>
      <point x="588" y="992" type="line"/>
      <point x="588" y="1320" type="line"/>
      <point x="1166" y="1320" type="line"/>
      <point x="1166" y="1650" type="line"/>
    </contour>
  </outline>
</glyph>
<glyph name="G" format="2">
  <advance width="1741"/>
  <unicode hex="0047"/>
  <anchor x="871" y="0" name="bottom"/>
  <anchor x="871" y="1650" name="top"/>
  <outline>
    <contour>
      <point x="910" y="-32" type="curve" smooth="yes"/>
      <point x="1293" y="-32"/>
      <point x="1655" y="218"/>
      <point x="1655" y="697" type="curve" smooth="yes"/>
      <point x="1655" y="922" type="line"/>
      <point x="892" y="922" type="line"/>
      <point x="892" y="632" type="line"/>
      <point x="1272" y="632" type="line"/>
      <point x="1272" y="618" type="line" smooth="yes"/>
      <point x="1272" y="444"/>
      <point x="1108" y="315"/>
      <point x="921" y="315" type="curve" smooth="yes"/>
      <point x="668" y="315"/>
      <point x="494" y="547"/>
      <point x="494" y="825" type="curve" smooth="yes"/>
      <point x="494" y="1095"/>
      <point x="651" y="1340"/>
      <point x="947" y="1340" type="curve" smooth="yes"/>
      <point x="1090" y="1340"/>
      <point x="1223" y="1283"/>
      <point x="1299" y="1193" type="curve"/>
      <point x="1524" y="1417" type="line"/>
      <point x="1358" y="1579"/>
      <point x="1170" y="1680"/>
      <point x="920" y="1680" type="curve" smooth="yes"/>
      <point x="427" y="1680"/>
      <point x="88" y="1290"/>
      <point x="88" y="824" type="curve" smooth="yes"/>
      <point x="88" y="351"/>
      <point x="434" y="-32"/>
    </contour>
  </outline>
</glyph>
<glyph name="I" format="2">
  <advance width="800"/>
  <unicode hex="0049"/>
  <anchor x="400" y="0" name="bottom"/>
  <anchor x="588" y="0" name="ogonek"/>
  <anchor x="400" y="1650" name="top"/>
  <outline>
    <contour>
      <point x="588" y="0" type="line"/>
      <point x="588" y="1650" type="line"/>
      <point x="212" y="1650" type="line"/>
      <point x="212" y="0" type="line"/>
    </contour>
  </outline>
</glyph>
<glyph name="J" format="2">
  <advance width="1127"/>
  <unicode hex="004A"/>
  <anchor x="447" y="-26" name="bottom"/>
  <anchor x="690" y="1650" name="top"/>
  <outline>
    <contour>
      <point x="440" y="-32" type="curve" smooth="yes"/>
      <point x="747" y="-32"/>
      <point x="933" y="148"/>
      <point x="933" y="464" type="curve" smooth="yes"/>
      <point x="933" y="1650" type="line"/>
      <point x="557" y="1650" type="line"/>
      <point x="557" y="559" type="line" smooth="yes"/>
      <point x="557" y="416"/>
      <point x="489" y="328"/>
      <point x="377" y="328" type="curve" smooth="yes"/>
      <point x="317" y="328"/>
      <point x="246" y="355"/>
      <point x="180" y="421" type="curve"/>
      <point x="-26" y="193" type="line"/>
      <point x="110" y="37"/>
      <point x="251" y="-32"/>
    </contour>
  </outline>
</glyph>
<glyph name="K" format="2">
  <advance width="1688"/>
  <unicode hex="004B"/>
  <anchor x="842" y="0" name="bottom"/>
  <anchor x="842" y="1650" name="top"/>
  <outline>
    <contour>
      <point x="588" y="0" type="line"/>
      <point x="588" y="681" type="line"/>
      <point x="1196" y="0" type="line"/>
      <point x="1714" y="0" type="line"/>
      <point x="934" y="863" type="line"/>
      <point x="1610" y="1650" type="line"/>
      <point x="1152" y="1650" type="line"/>
      <point x="588" y="983" type="line"/>
      <point x="588" y="1650" type="line"/>
      <point x="212" y="1650" type="line"/>
      <point x="212" y="0" type="line"/>
    </contour>
  </outline>
</glyph>
<glyph name="L" format="2">
  <advance width="1172"/>
  <unicode hex="004C"/>
  <anchor x="705" y="0" name="bottom"/>
  <anchor x="586" y="825" name="center"/>
  <anchor x="593" y="1650" name="top"/>
  <anchor x="1151" y="1650" name="topright"/>
  <outline>
    <contour>
      <point x="1155" y="0" type="line"/>
      <point x="1155" y="330" type="line"/>
      <point x="588" y="330" type="line"/>
      <point x="588" y="1650" type="line"/>
      <point x="212" y="1650" type="line"/>
      <point x="212" y="0" type="line"/>
    </contour>
  </outline>
</glyph>
<glyph name="M" format="2">
  <advance width="2096"/>
  <unicode hex="004D"/>
  <anchor x="1048" y="22" name="bottom"/>
  <anchor x="1048" y="1650" name="top"/>
  <outline>
    <contour>
      <point x="588" y="0" type="line"/>
      <point x="588" y="858" type="line"/>
      <point x="936" y="22" type="line"/>
      <point x="1160" y="22" type="line"/>
      <point x="1508" y="858" type="line"/>
      <point x="1508" y="0" type="line"/>
      <point x="1884" y="0" type="line"/>
      <point x="1884" y="1650" type="line"/>
      <point x="1454" y="1650" type="line"/>
      <point x="1048" y="698" type="line"/>
      <point x="642" y="1650" type="line"/>
      <point x="212" y="1650" type="line"/>
      <point x="212" y="0" type="line"/>
    </contour>
  </outline>
</glyph>
<glyph name="N" format="2">
  <advance width="1833"/>
  <unicode hex="004E"/>
  <anchor x="917" y="0" name="bottom"/>
  <anchor x="917" y="1650" name="top"/>
  <outline>
    <contour>
      <point x="588" y="0" type="line"/>
      <point x="588" y="1024" type="line"/>
      <point x="1246" y="0" type="line"/>
      <point x="1622" y="0" type="line"/>
      <point x="1622" y="1650" type="line"/>
      <point x="1246" y="1650" type="line"/>
      <point x="1246" y="625" type="line"/>
      <point x="588" y="1650" type="line"/>
      <point x="212" y="1650" type="line"/>
      <point x="212" y="0" type="line"/>
    </contour>
  </outline>
</glyph>
<glyph name="O" format="2">
  <advance width="1835"/>
  <unicode hex="004F"/>
  <anchor x="918" y="0" name="bottom"/>
  <anchor x="918" y="824" name="center"/>
  <anchor x="1005" y="0" name="ogonek"/>
  <anchor x="918" y="1650" name="top"/>
  <anchor x="20" y="1650" name="topleft"/>
  <anchor x="1814" y="1650" name="topright"/>
  <outline>
    <contour>
      <point x="918" y="-32" type="curve" smooth="yes"/>
      <point x="1380" y="-32"/>
      <point x="1750" y="349"/>
      <point x="1750" y="824" type="curve" smooth="yes"/>
      <point x="1750" y="1299"/>
      <point x="1380" y="1680"/>
      <point x="918" y="1680" type="curve" smooth="yes"/>
      <point x="456" y="1680"/>
      <point x="86" y="1299"/>
      <point x="86" y="824" type="curve" smooth="yes"/>
      <point x="86" y="349"/>
      <point x="456" y="-32"/>
    </contour>
    <contour>
      <point x="918" y="330" type="curve" smooth="yes"/>
      <point x="665" y="330"/>
      <point x="491" y="532"/>
      <point x="491" y="824" type="curve" smooth="yes"/>
      <point x="491" y="1116"/>
      <point x="665" y="1318"/>
      <point x="918" y="1318" type="curve" smooth="yes"/>
      <point x="1171" y="1318"/>
      <point x="1345" y="1116"/>
      <point x="1345" y="824" type="curve" smooth="yes"/>
      <point x="1345" y="532"/>
      <point x="1171" y="330"/>
    </contour>
  </outline>
</glyph>
<glyph name="P" format="2">
  <advance width="1431"/>
  <unicode hex="0050"/>
  <outline>
    <contour>
      <point x="588" y="0" type="line"/>
      <point x="588" y="612" type="line"/>
      <point x="814" y="612" type="line" smooth="yes"/>
      <point x="1135" y="612"/>
      <point x="1377" y="790"/>
      <point x="1377" y="1131" type="curve" smooth="yes"/>
      <point x="1377" y="1472"/>
      <point x="1135" y="1650"/>
      <point x="814" y="1650" type="curve" smooth="yes"/>
      <point x="212" y="1650" type="line"/>
      <point x="212" y="0" type="line"/>
    </contour>
    <contour>
      <point x="588" y="1350" type="line"/>
      <point x="694" y="1350" type="line" smooth="yes"/>
      <point x="841" y="1350"/>
      <point x="982" y="1300"/>
      <point x="982" y="1131" type="curve" smooth="yes"/>
      <point x="982" y="963"/>
      <point x="841" y="912"/>
      <point x="694" y="912" type="curve" smooth="yes"/>
      <point x="588" y="912" type="line"/>
    </contour>
  </outline>
</glyph>
<glyph name="Q" format="2">
  <advance width="1895"/>
  <unicode hex="0051"/>
  <outline>
    <component base="O" xOffset="-7"/>
    <contour>
      <point x="824" y="587" type="line"/>
      <point x="1016" y="323"/>
      <point x="1350" y="69"/>
      <point x="1668" y="-54" type="curve"/>
      <point x="1834" y="281" type="line"/>
      <point x="1486" y="377"/>
      <point x="1218" y="532"/>
      <point x="1018" y="751" type="curve"/>
    </contour>
  </outline>
</glyph>
<glyph name="R" format="2">
  <advance width="1543"/>
  <unicode hex="0052"/>
  <anchor x="771" y="0" name="bottom"/>
  <anchor x="771" y="1650" name="top"/>
  <outline>
    <contour>
      <point x="588" y="1350" type="line"/>
      <point x="695" y="1350" type="line" smooth="yes"/>
      <point x="845" y="1350"/>
      <point x="982" y="1305"/>
      <point x="982" y="1139" type="curve" smooth="yes"/>
      <point x="982" y="975"/>
      <point x="845" y="927"/>
      <point x="695" y="927" type="curve" smooth="yes"/>
      <point x="588" y="927" type="line"/>
    </contour>
    <contour>
      <point x="588" y="0" type="line"/>
      <point x="588" y="599" type="line"/>
      <point x="631" y="599" type="line"/>
      <point x="1092" y="0" type="line"/>
      <point x="1569" y="0" type="line"/>
      <point x="1021" y="658" type="line"/>
      <point x="1236" y="718"/>
      <point x="1378" y="882"/>
      <point x="1378" y="1139" type="curve" smooth="yes"/>
      <point x="1378" y="1474"/>
      <point x="1136" y="1650"/>
      <point x="815" y="1650" type="curve" smooth="yes"/>
      <point x="212" y="1650" type="line"/>
      <point x="212" y="0" type="line"/>
    </contour>
  </outline>
</glyph>
<glyph name="S" format="2">
  <advance width="1362"/>
  <unicode hex="0053"/>
  <anchor x="664" y="0" name="bottom"/>
  <anchor x="725" y="1676" name="top"/>
  <anchor x="696" y="0" name="cedilla"/>
  <outline>
    <contour>
      <point x="659" y="-32" type="curve" smooth="yes"/>
      <point x="1024" y="-32"/>
      <point x="1271" y="158"/>
      <point x="1271" y="483" type="curve" smooth="yes"/>
      <point x="1271" y="753"/>
      <point x="1067" y="877"/>
      <point x="763" y="996" type="curve" smooth="yes"/>
      <point x="558" y="1076"/>
      <point x="499" y="1125"/>
      <point x="499" y="1195" type="curve" smooth="yes"/>
      <point x="499" y="1274"/>
      <point x="570" y="1338"/>
      <point x="695" y="1338" type="curve" smooth="yes"/>
      <point x="801" y="1338"/>
      <point x="924" y="1295"/>
      <point x="1020" y="1233" type="curve"/>
      <point x="1181" y="1522" type="line"/>
      <point x="1075" y="1612"/>
      <point x="882" y="1680"/>
      <point x="699" y="1680" type="curve" smooth="yes"/>
      <point x="350" y="1680"/>
      <point x="131" y="1441"/>
      <point x="131" y="1186" type="curve" smooth="yes"/>
      <point x="131" y="978"/>
      <point x="257" y="840"/>
      <point x="567" y="712" type="curve" smooth="yes"/>
      <point x="793" y="619"/>
      <point x="859" y="566"/>
      <point x="859" y="475" type="curve" smooth="yes"/>
      <point x="859" y="381"/>
      <point x="778" y="316"/>
      <point x="645" y="316" type="curve" smooth="yes"/>
      <point x="514" y="316"/>
      <point x="365" y="378"/>
      <point x="226" y="488" type="curve"/>
      <point x="38" y="202" type="line"/>
      <point x="165" y="64"/>
      <point x="406" y="-32"/>
    </contour>
  </outline>
</glyph>
<glyph name="T" format="2">
  <advance width="1192"/>
  <unicode hex="0054"/>
  <anchor x="596" y="0" name="bottom"/>
  <anchor x="596" y="1650" name="top"/>
  <outline>
    <contour>
      <point x="784" y="0" type="line"/>
      <point x="784" y="1319" type="line"/>
      <point x="1176" y="1319" type="line"/>
      <point x="1176" y="1650" type="line"/>
      <point x="16" y="1650" type="line"/>
      <point x="16" y="1319" type="line"/>
      <point x="408" y="1319" type="line"/>
      <point x="408" y="0" type="line"/>
    </contour>
  </outline>
</glyph>
<glyph name="U" format="2">
  <advance width="1656"/>
  <unicode hex="0055"/>
  <anchor x="828" y="0" name="bottom"/>
  <anchor x="936" y="0" name="ogonek"/>
  <anchor x="828" y="1650" name="top"/>
  <outline>
    <contour>
      <point x="828" y="-32" type="curve" smooth="yes"/>
      <point x="1253" y="-32"/>
      <point x="1473" y="177"/>
      <point x="1473" y="583" type="curve" smooth="yes"/>
      <point x="1473" y="1650" type="line"/>
      <point x="1097" y="1650" type="line"/>
      <point x="1097" y="694" type="line" smooth="yes"/>
      <point x="1097" y="433"/>
      <point x="1023" y="337"/>
      <point x="828" y="337" type="curve" smooth="yes"/>
      <point x="633" y="337"/>
      <point x="559" y="433"/>
      <point x="559" y="694" type="curve" smooth="yes"/>
      <point x="559" y="1650" type="line"/>
      <point x="183" y="1650" type="line"/>
      <point x="183" y="583" type="line" smooth="yes"/>
      <point x="183" y="177"/>
      <point x="403" y="-32"/>
    </contour>
  </outline>
</glyph>
<glyph name="V" format="2">
  <advance width="1658"/>
  <unicode hex="0056"/>
  <anchor x="829" y="0" name="bottom"/>
  <anchor x="829" y="1650" name="top"/>
  <outline>
    <contour>
      <point x="977" y="0" type="line"/>
      <point x="1669" y="1650" type="line"/>
      <point x="1244" y="1650" type="line"/>
      <point x="829" y="566" type="line"/>
      <point x="414" y="1650" type="line"/>
      <point x="-11" y="1650" type="line"/>
      <point x="681" y="0" type="line"/>
    </contour>
  </outline>
</glyph>
<glyph name="W" format="2">
  <advance width="2342"/>
  <unicode hex="0057"/>
  <anchor x="1171" y="0" name="bottom"/>
  <anchor x="1171" y="1650" name="top"/>
  <outline>
    <contour>
      <point x="908" y="0" type="line"/>
      <point x="1171" y="926" type="line"/>
      <point x="1434" y="0" type="line"/>
      <point x="1852" y="0" type="line"/>
      <point x="2323" y="1650" type="line"/>
      <point x="1905" y="1650" type="line"/>
      <point x="1623" y="518" type="line"/>
      <point x="1312" y="1650" type="line"/>
      <point x="1030" y="1650" type="line"/>
      <point x="719" y="518" type="line"/>
      <point x="437" y="1650" type="line"/>
      <point x="19" y="1650" type="line"/>
      <point x="490" y="0" type="line"/>
    </contour>
  </outline>
</glyph>
<glyph name="X" format="2">
  <advance width="1674"/>
  <unicode hex="0058"/>
  <outline>
    <contour>
      <point x="448" y="0" type="line"/>
      <point x="837" y="562" type="line"/>
      <point x="1226" y="0" type="line"/>
      <point x="1692" y="0" type="line"/>
      <point x="1068" y="888" type="line"/>
      <point x="1589" y="1650" type="line"/>
      <point x="1141" y="1650" type="line"/>
      <point x="837" y="1200" type="line"/>
      <point x="533" y="1650" type="line"/>
      <point x="85" y="1650" type="line"/>
      <point x="606" y="888" type="line"/>
      <point x="-18" y="0" type="line"/>
    </contour>
  </outline>
</glyph>
<glyph name="Y" format="2">
  <advance width="1526"/>
  <unicode hex="0059"/>
  <anchor x="763" y="0" name="bottom"/>
  <anchor x="763" y="1650" name="top"/>
  <outline>
    <contour>
      <point x="951" y="0" type="line"/>
      <point x="951" y="741" type="line"/>
      <point x="1559" y="1650" type="line"/>
      <point x="1106" y="1650" type="line"/>
      <point x="763" y="1122" type="line"/>
      <point x="420" y="1650" type="line"/>
      <point x="-33" y="1650" type="line"/>
      <point x="575" y="741" type="line"/>
      <point x="575" y="0" type="line"/>
    </contour>
  </outline>
</glyph>
<glyph name="Z" format="2">
  <advance width="1532"/>
  <unicode hex="005A"/>
  <anchor x="765" y="0" name="bottom"/>
  <anchor x="765" y="825" name="center"/>
  <anchor x="765" y="1650" name="top"/>
  <outline>
    <contour>
      <point x="1440" y="0" type="line"/>
      <point x="1440" y="329" type="line"/>
      <point x="676" y="329" type="line"/>
      <point x="1492" y="1650" type="line"/>
      <point x="136" y="1650" type="line"/>
      <point x="136" y="1321" type="line"/>
      <point x="835" y="1321" type="line"/>
      <point x="19" y="0" type="line"/>
    </contour>
  </outline>
</glyph>
<glyph name="bracketleft" format="2">
  <advance width="869"/>
  <unicode hex="005B"/>
  <outline>
    <contour>
      <point x="848" y="-520" type="line"/>
      <point x="848" y="-286" type="line"/>
      <point x="510" y="-286" type="line"/>
      <point x="510" y="1486" type="line"/>
      <point x="848" y="1486" type="line"/>
      <point x="848" y="1720" type="line"/>
      <point x="204" y="1720" type="line"/>
      <point x="204" y="-520" type="line"/>
    </contour>
  </outline>
</glyph>
<glyph name="asciicircum" format="2">
  <advance width="1159"/>
  <unicode hex="005E"/>
  <outline>
    <contour>
      <point x="394" y="1210" type="line"/>
      <point x="579" y="1428" type="line"/>
      <point x="764" y="1210" type="line"/>
      <point x="1086" y="1210" type="line"/>
      <point x="672" y="1682" type="line"/>
      <point x="487" y="1682" type="line"/>
      <point x="73" y="1210" type="line"/>
    </contour>
  </outline>
</glyph>
<glyph name="underscore" format="2">
  <advance width="1366"/>
  <unicode hex="005F"/>
  <outline>
    <contour>
      <point x="1196" y="-202" type="line"/>
      <point x="1196" y="-32" type="line"/>
      <point x="170" y="-32" type="line"/>
      <point x="170" y="-202" type="line"/>
    </contour>
  </outline>
</glyph>
<glyph name="a" format="2">
  <advance width="1252"/>
  <unicode hex="0061"/>
  <anchor x="611" y="0" name="bottom"/>
  <anchor x="1111" y="10" name="ogonek"/>
  <anchor x="611" y="1024" name="top"/>
  <outline>
    <contour>
      <point x="463" y="-32" type="curve" smooth="yes"/>
      <point x="565" y="-32"/>
      <point x="665" y="-7"/>
      <point x="757" y="42" type="curve"/>
      <point x="757" y="0" type="line" name=".hr01"/>
      <point x="1117" y="0" type="line"/>
      <point x="1117" y="588" type="line" smooth="yes"/>
      <point x="1117" y="867"/>
      <point x="883" y="1056"/>
      <point x="541" y="1056" type="curve" smooth="yes"/>
      <point x="389" y="1056"/>
      <point x="241" y="1018"/>
      <point x="146" y="956" type="curve"/>
      <point x="263" y="719" type="line"/>
      <point x="327" y="751"/>
      <point x="443" y="775"/>
      <point x="520" y="775" type="curve" smooth="yes"/>
      <point x="658" y="775"/>
      <point x="757" y="698"/>
      <point x="757" y="599" type="curve" smooth="yes"/>
      <point x="757" y="524" type="line"/>
      <point x="676" y="572"/>
      <point x="560" y="602"/>
      <point x="454" y="602" type="curve" smooth="yes"/>
      <point x="225" y="602"/>
      <point x="78" y="467"/>
      <point x="78" y="280" type="curve" smooth="yes"/>
      <point x="78" y="92"/>
      <point x="230" y="-32" name=".hr02"/>
    </contour>
    <contour>
      <point x="599" y="182" type="curve" smooth="yes"/>
      <point x="503" y="182"/>
      <point x="430" y="233"/>
      <point x="430" y="302" type="curve" smooth="yes"/>
      <point x="430" y="367"/>
      <point x="498" y="413"/>
      <point x="595" y="413" type="curve" smooth="yes"/>
      <point x="694" y="413"/>
      <point x="770" y="363"/>
      <point x="770" y="297" type="curve" smooth="yes"/>
      <point x="770" y="232"/>
      <point x="694" y="182"/>
    </contour>
  </outline>
</glyph>
<glyph name="b" format="2">
  <advance width="1459"/>
  <unicode hex="0062"/>
  <anchor x="730" y="0" name="bottom"/>
  <anchor x="730" y="1720" name="top"/>
  <outline>
    <contour>
      <point x="518" y="512" type="curve" smooth="yes"/>
      <point x="518" y="653"/>
      <point x="618" y="754"/>
      <point x="755" y="754" type="curve" smooth="yes"/>
      <point x="893" y="754"/>
      <point x="994" y="653"/>
      <point x="994" y="512" type="curve" smooth="yes"/>
      <point x="994" y="371"/>
      <point x="893" y="270"/>
      <point x="755" y="270" type="curve" smooth="yes"/>
      <point x="618" y="270"/>
      <point x="518" y="371"/>
    </contour>
    <contour>
      <point x="170" y="1720" type="line"/>
      <point x="170" y="0" type="line"/>
      <point x="526" y="0" type="line" name=".hr01"/>
      <point x="526" y="110" type="line"/>
      <point x="616" y="17"/>
      <point x="731" y="-32"/>
      <point x="863" y="-32" type="curve" smooth="yes" name=".hr02"/>
      <point x="1160" y="-32"/>
      <point x="1370" y="207"/>
      <point x="1370" y="514" type="curve" smooth="yes"/>
      <point x="1370" y="820"/>
      <point x="1160" y="1056"/>
      <point x="863" y="1056" type="curve" smooth="yes"/>
      <point x="731" y="1056"/>
      <point x="616" y="1007"/>
      <point x="526" y="914" type="curve"/>
      <point x="526" y="1720" type="line"/>
    </contour>
  </outline>
</glyph>
<glyph name="c" format="2">
  <advance width="1040"/>
  <unicode hex="0063"/>
  <anchor x="550" y="0" name="bottom"/>
  <anchor x="550" y="1024" name="top"/>
  <anchor x="582" y="0" name="cedilla"/>
  <outline>
    <contour>
      <point x="651" y="-32" type="curve" smooth="yes"/>
      <point x="789" y="-32"/>
      <point x="914" y="10"/>
      <point x="986" y="65" type="curve"/>
      <point x="863" y="302" type="line"/>
      <point x="823" y="274"/>
      <point x="766" y="258"/>
      <point x="706" y="258" type="curve" smooth="yes"/>
      <point x="554" y="258"/>
      <point x="449" y="368"/>
      <point x="449" y="512" type="curve" smooth="yes"/>
      <point x="449" y="656"/>
      <point x="554" y="766"/>
      <point x="706" y="766" type="curve" smooth="yes"/>
      <point x="766" y="766"/>
      <point x="823" y="750"/>
      <point x="863" y="722" type="curve"/>
      <point x="986" y="959" type="line"/>
      <point x="914" y="1014"/>
      <point x="789" y="1056"/>
      <point x="651" y="1056" type="curve" smooth="yes"/>
      <point x="323" y="1056"/>
      <point x="73" y="819"/>
      <point x="73" y="512" type="curve" smooth="yes"/>
      <point x="73" y="205"/>
      <point x="323" y="-32"/>
    </contour>
  </outline>
</glyph>
<glyph name="d" format="2">
  <advance width="1458"/>
  <unicode hex="0064"/>
  <anchor x="604" y="0" name="bottom"/>
  <anchor x="636" y="1499" name="top"/>
  <outline>
    <contour>
      <point x="465" y="512" type="curve" smooth="yes"/>
      <point x="465" y="653"/>
      <point x="566" y="754"/>
      <point x="703" y="754" type="curve" smooth="yes"/>
      <point x="840" y="754"/>
      <point x="940" y="653"/>
      <point x="940" y="512" type="curve" smooth="yes"/>
      <point x="940" y="371"/>
      <point x="840" y="270"/>
      <point x="703" y="270" type="curve" smooth="yes"/>
      <point x="566" y="270"/>
      <point x="465" y="371"/>
    </contour>
    <contour>
      <point x="89" y="514" type="curve" smooth="yes"/>
      <point x="89" y="207"/>
      <point x="299" y="-32"/>
      <point x="596" y="-32" type="curve" smooth="yes"/>
      <point x="728" y="-32"/>
      <point x="842" y="17"/>
      <point x="932" y="110" type="curve"/>
      <point x="932" y="0" type="line"/>
      <point x="1288" y="0" type="line" name=".hr01"/>
      <point x="1288" y="1720" type="line"/>
      <point x="932" y="1720" type="line"/>
      <point x="932" y="914" type="line"/>
      <point x="842" y="1007"/>
      <point x="728" y="1056"/>
      <point x="596" y="1056" type="curve" smooth="yes"/>
      <point x="299" y="1056"/>
      <point x="89" y="820"/>
    </contour>
  </outline>
</glyph>
<glyph name="e" format="2">
  <advance width="1280"/>
  <unicode hex="0065"/>
  <anchor x="686" y="0" name="bottom"/>
  <anchor x="714" y="0" name="ogonek"/>
  <anchor x="647" y="1047" name="top"/>
  <outline>
    <contour>
      <point x="666" y="-32" type="curve" smooth="yes"/>
      <point x="886" y="-32"/>
      <point x="1075" y="69"/>
      <point x="1172" y="235" type="curve"/>
      <point x="916" y="363" type="line"/>
      <point x="841" y="282"/>
      <point x="778" y="250"/>
      <point x="686" y="250" type="curve" smooth="yes"/>
      <point x="538" y="250"/>
      <point x="443" y="334"/>
      <point x="443" y="464" type="curve"/>
      <point x="1188" y="464" type="line"/>
      <point x="1191" y="493"/>
      <point x="1192" y="511"/>
      <point x="1192" y="531" type="curve" smooth="yes"/>
      <point x="1192" y="836"/>
      <point x="969" y="1056"/>
      <point x="656" y="1056" type="curve" smooth="yes"/>
      <point x="329" y="1056"/>
      <point x="76" y="821"/>
      <point x="76" y="512" type="curve" smooth="yes"/>
      <point x="76" y="204"/>
      <point x="329" y="-32"/>
    </contour>
    <contour>
      <point x="454" y="636" type="line"/>
      <point x="458" y="742"/>
      <point x="533" y="809"/>
      <point x="647" y="809" type="curve" smooth="yes"/>
      <point x="757" y="809"/>
      <point x="829" y="746"/>
      <point x="844" y="636" type="curve"/>
    </contour>
  </outline>
</glyph>
<glyph name="f" format="2">
  <advance width="851"/>
  <unicode hex="0066"/>
  <anchor x="399" y="0" name="bottom"/>
  <anchor x="630" y="1720" name="top"/>
  <outline>
    <contour>
      <point x="578" y="0" type="line"/>
      <point x="578" y="754" type="line"/>
      <point x="814" y="754" type="line"/>
      <point x="814" y="1024" type="line"/>
      <point x="578" y="1024" type="line"/>
      <point x="578" y="1251" type="line" smooth="yes"/>
      <point x="578" y="1369"/>
      <point x="610" y="1430"/>
      <point x="684" y="1430" type="curve" smooth="yes"/>
      <point x="710" y="1430"/>
      <point x="739" y="1422"/>
      <point x="766" y="1396" type="curve"/>
      <point x="935" y="1628" type="line"/>
      <point x="864" y="1702"/>
      <point x="742" y="1750"/>
      <point x="619" y="1750" type="curve" smooth="yes"/>
      <point x="385" y="1750"/>
      <point x="222" y="1578"/>
      <point x="222" y="1244" type="curve" smooth="yes"/>
      <point x="222" y="1024" type="line"/>
      <point x="75" y="1024" type="line"/>
      <point x="75" y="754" type="line"/>
      <point x="222" y="754" type="line"/>
      <point x="222" y="0" type="line"/>
    </contour>
  </outline>
</glyph>
<glyph name="g" format="2">
  <advance width="1458"/>
  <unicode hex="0067"/>
  <anchor x="702" y="-520" name="bottom"/>
  <anchor x="702" y="1024" name="top"/>
  <outline>
    <contour>
      <point x="89" y="514" type="curve" smooth="yes"/>
      <point x="89" y="207"/>
      <point x="298" y="-32"/>
      <point x="595" y="-32" type="curve" smooth="yes"/>
      <point x="728" y="-32"/>
      <point x="842" y="17"/>
      <point x="932" y="111" type="curve"/>
      <point x="932" y="-1" type="line" smooth="yes"/>
      <point x="932" y="-141"/>
      <point x="829" y="-242"/>
      <point x="675" y="-242" type="curve" smooth="yes"/>
      <point x="564" y="-242"/>
      <point x="458" y="-191"/>
      <point x="405" y="-110" type="curve"/>
      <point x="116" y="-252" type="line"/>
      <point x="201" y="-448"/>
      <point x="395" y="-550"/>
      <point x="676" y="-550" type="curve" smooth="yes"/>
      <point x="1099" y="-550"/>
      <point x="1288" y="-319"/>
      <point x="1288" y="-28" type="curve" smooth="yes"/>
      <point x="1288" y="1024" type="line"/>
      <point x="932" y="1024" type="line"/>
      <point x="932" y="913" type="line"/>
      <point x="842" y="1007"/>
      <point x="728" y="1056" name=".hr01"/>
      <point x="595" y="1056" type="curve" smooth="yes"/>
      <point x="298" y="1056"/>
      <point x="89" y="820"/>
    </contour>
    <contour>
      <point x="464" y="512" type="curve" smooth="yes"/>
      <point x="464" y="652"/>
      <point x="565" y="754"/>
      <point x="703" y="754" type="curve" smooth="yes"/>
      <point x="841" y="754"/>
      <point x="940" y="653"/>
      <point x="940" y="512" type="curve" smooth="yes"/>
      <point x="940" y="372"/>
      <point x="841" y="270"/>
      <point x="703" y="270" type="curve" smooth="yes"/>
      <point x="565" y="270"/>
      <point x="464" y="372"/>
    </contour>
  </outline>
</glyph>
<glyph name="h" format="2">
  <advance width="1422"/>
  <unicode hex="0068"/>
  <anchor x="711" y="0" name="bottom"/>
  <anchor x="711" y="860" name="center"/>
  <anchor x="711" y="1720" name="top"/>
  <outline>
    <contour>
      <point x="526" y="0" type="line"/>
      <point x="526" y="587" type="line" smooth="yes"/>
      <point x="526" y="698"/>
      <point x="602" y="779"/>
      <point x="723" y="779" type="curve" smooth="yes"/>
      <point x="842" y="779"/>
      <point x="917" y="701"/>
      <point x="917" y="574" type="curve" smooth="yes"/>
      <point x="917" y="0" type="line"/>
      <point x="1273" y="0" type="line"/>
      <point x="1273" y="651" type="line" smooth="yes"/>
      <point x="1273" y="887"/>
      <point x="1103" y="1056"/>
      <point x="869" y="1056" type="curve" smooth="yes"/>
      <point x="735" y="1056"/>
      <point x="611" y="1003"/>
      <point x="526" y="918" type="curve"/>
      <point x="526" y="1720" type="line"/>
      <point x="170" y="1720" type="line"/>
      <point x="170" y="0" type="line"/>
    </contour>
  </outline>
</glyph>
<glyph name="i" format="2">
  <advance width="695"/>
  <unicode hex="0069"/>
  <anchor x="348" y="0" name="bottom"/>
  <anchor x="525" y="0" name="ogonek"/>
  <outline>
    <component base="idotless"/>
    <contour>
      <point x="348" y="1241" type="curve" smooth="yes"/>
      <point x="463" y="1241"/>
      <point x="556" y="1334"/>
      <point x="556" y="1449" type="curve" smooth="yes"/>
      <point x="556" y="1564"/>
      <point x="463" y="1657"/>
      <point x="348" y="1657" type="curve" smooth="yes"/>
      <point x="232" y="1657"/>
      <point x="139" y="1564"/>
      <point x="139" y="1449" type="curve" smooth="yes"/>
      <point x="139" y="1334"/>
      <point x="232" y="1241"/>
    </contour>
  </outline>
</glyph>
<glyph name="j" format="2">
  <advance width="696"/>
  <unicode hex="006A"/>
  <outline>
    <contour>
      <point x="141" y="-550" type="curve" smooth="yes"/>
      <point x="382" y="-550"/>
      <point x="526" y="-397"/>
      <point x="526" y="-157" type="curve" smooth="yes"/>
      <point x="526" y="1024" type="line"/>
      <point x="170" y="1024" type="line"/>
      <point x="170" y="-91" type="line" smooth="yes"/>
      <point x="170" y="-169"/>
      <point x="139" y="-230"/>
      <point x="65" y="-230" type="curve" smooth="yes"/>
      <point x="39" y="-230"/>
      <point x="9" y="-222"/>
      <point x="-17" y="-195" type="curve"/>
      <point x="-186" y="-428" type="line"/>
      <point x="-115" y="-502"/>
      <point x="7" y="-550"/>
    </contour>
    <contour>
      <point x="348" y="1240" type="curve" smooth="yes"/>
      <point x="463" y="1240"/>
      <point x="557" y="1334"/>
      <point x="557" y="1449" type="curve" smooth="yes" name=".hr01"/>
      <point x="557" y="1563"/>
      <point x="463" y="1657"/>
      <point x="348" y="1657" type="curve" smooth="yes"/>
      <point x="233" y="1657"/>
      <point x="140" y="1563"/>
      <point x="140" y="1449" type="curve" smooth="yes"/>
      <point x="140" y="1334"/>
      <point x="233" y="1240"/>
    </contour>
  </outline>
</glyph>
<glyph name="k" format="2">
  <advance width="1354"/>
  <unicode hex="006B"/>
  <anchor x="676" y="0" name="bottom"/>
  <anchor x="676" y="1720" name="top"/>
  <outline>
    <contour>
      <point x="526" y="0" type="line"/>
      <point x="526" y="380" type="line"/>
      <point x="922" y="0" type="line"/>
      <point x="1379" y="0" type="line"/>
      <point x="845" y="516" type="line"/>
      <point x="1356" y="1024" type="line"/>
      <point x="896" y="1024" type="line"/>
      <point x="526" y="664" type="line"/>
      <point x="526" y="1720" type="line"/>
      <point x="170" y="1720" type="line"/>
      <point x="170" y="0" type="line"/>
    </contour>
  </outline>
</glyph>
<glyph name="m" format="2">
  <advance width="2069"/>
  <unicode hex="006D"/>
  <anchor x="1223" y="0" name="bottom"/>
  <anchor x="1116" y="1024" name="top"/>
  <outline>
    <contour>
      <point x="170" y="1024" type="line"/>
      <point x="170" y="0" type="line"/>
      <point x="526" y="0" type="line"/>
      <point x="526" y="581" type="line" smooth="yes"/>
      <point x="526" y="702"/>
      <point x="596" y="773" name=".hr01"/>
      <point x="701" y="773" type="curve" smooth="yes"/>
      <point x="806" y="773"/>
      <point x="867" y="700"/>
      <point x="867" y="589" type="curve" smooth="yes"/>
      <point x="867" y="0" type="line"/>
      <point x="1223" y="0" type="line"/>
      <point x="1223" y="591" type="line" smooth="yes"/>
      <point x="1223" y="705"/>
      <point x="1291" y="773"/>
      <point x="1397" y="773" type="curve" smooth="yes"/>
      <point x="1499" y="773"/>
      <point x="1564" y="702"/>
      <point x="1564" y="586" type="curve" smooth="yes"/>
      <point x="1564" y="0" type="line"/>
      <point x="1920" y="0" type="line"/>
      <point x="1920" y="682" type="line" smooth="yes"/>
      <point x="1920" y="907"/>
      <point x="1759" y="1056"/>
      <point x="1536" y="1056" type="curve" smooth="yes"/>
      <point x="1395" y="1056"/>
      <point x="1288" y="995"/>
      <point x="1182" y="868" type="curve"/>
      <point x="1125" y="982"/>
      <point x="987" y="1056"/>
      <point x="833" y="1056" type="curve" smooth="yes"/>
      <point x="711" y="1056"/>
      <point x="615" y="1008"/>
      <point x="526" y="895" type="curve"/>
      <point x="526" y="1024" type="line" name=".hr02"/>
    </contour>
  </outline>
</glyph>
<glyph name="n" format="2">
  <advance width="1422"/>
  <unicode hex="006E"/>
  <anchor x="723" y="0" name="bottom"/>
  <anchor x="723" y="1024" name="top"/>
  <outline>
    <contour>
      <point x="526" y="0" type="line"/>
      <point x="526" y="568" type="line" smooth="yes"/>
      <point x="526" y="699"/>
      <point x="602" y="779"/>
      <point x="723" y="779" type="curve" smooth="yes"/>
      <point x="842" y="779"/>
      <point x="917" y="701"/>
      <point x="917" y="575" type="curve" smooth="yes"/>
      <point x="917" y="0" type="line"/>
      <point x="1273" y="0" type="line"/>
      <point x="1273" y="651" type="line" smooth="yes"/>
      <point x="1273" y="888"/>
      <point x="1103" y="1056"/>
      <point x="869" y="1056" type="curve" smooth="yes"/>
      <point x="735" y="1056"/>
      <point x="611" y="1003"/>
      <point x="526" y="886" type="curve"/>
      <point x="526" y="1024" type="line" name=".hr01"/>
      <point x="170" y="1024" type="line"/>
      <point x="170" y="0" type="line"/>
    </contour>
  </outline>
</glyph>
<glyph name="o" format="2">
  <advance width="1375"/>
  <unicode hex="006F"/>
  <anchor x="687" y="0" name="bottom"/>
  <anchor x="687" y="512" name="center"/>
  <anchor x="722" y="0" name="ogonek"/>
  <anchor x="687" y="1024" name="top"/>
  <outline>
    <contour>
      <point x="687" y="-32" type="curve" smooth="yes"/>
      <point x="1032" y="-32"/>
      <point x="1298" y="192"/>
      <point x="1298" y="512" type="curve" smooth="yes"/>
      <point x="1298" y="832"/>
      <point x="1032" y="1056"/>
      <point x="687" y="1056" type="curve" smooth="yes"/>
      <point x="342" y="1056"/>
      <point x="76" y="832"/>
      <point x="76" y="512" type="curve" smooth="yes"/>
      <point x="76" y="192"/>
      <point x="342" y="-32"/>
    </contour>
    <contour>
      <point x="687" y="271" type="curve" smooth="yes"/>
      <point x="554" y="271"/>
      <point x="448" y="370"/>
      <point x="448" y="512" type="curve" smooth="yes"/>
      <point x="448" y="654"/>
      <point x="554" y="753"/>
      <point x="687" y="753" type="curve" smooth="yes"/>
      <point x="820" y="753"/>
      <point x="926" y="654"/>
      <point x="926" y="512" type="curve" smooth="yes"/>
      <point x="926" y="370"/>
      <point x="820" y="271"/>
    </contour>
  </outline>
</glyph>
<glyph name="q" format="2">
  <advance width="1412"/>
  <unicode hex="0071"/>
  <anchor x="718" y="0" name="bottom"/>
  <anchor x="712" y="1024" name="top"/>
  <outline>
    <contour>
      <point x="454" y="512" type="curve" smooth="yes"/>
      <point x="454" y="653"/>
      <point x="555" y="754"/>
      <point x="692" y="754" type="curve" smooth="yes"/>
      <point x="829" y="754"/>
      <point x="929" y="653"/>
      <point x="929" y="512" type="curve" smooth="yes"/>
      <point x="929" y="371"/>
      <point x="829" y="270"/>
      <point x="692" y="270" type="curve" smooth="yes"/>
      <point x="555" y="270"/>
      <point x="454" y="371"/>
    </contour>
    <contour>
      <point x="78" y="514" type="curve" smooth="yes"/>
      <point x="78" y="207"/>
      <point x="288" y="-32"/>
      <point x="585" y="-32" type="curve" smooth="yes"/>
      <point x="717" y="-32"/>
      <point x="831" y="17"/>
      <point x="921" y="110" type="curve"/>
      <point x="921" y="-520" type="line"/>
      <point x="1277" y="-520" type="line"/>
      <point x="1277" y="1024" type="line"/>
      <point x="921" y="1024" type="line" name=".hr01"/>
      <point x="921" y="914" type="line"/>
      <point x="831" y="1007"/>
      <point x="717" y="1056"/>
      <point x="585" y="1056" type="curve" smooth="yes" name=".hr02"/>
      <point x="288" y="1056"/>
      <point x="78" y="820"/>
    </contour>
  </outline>
</glyph>
<glyph name="r" format="2">
  <advance width="1059"/>
  <unicode hex="0072"/>
  <anchor x="547" y="0" name="bottom"/>
  <anchor x="600" y="1024" name="top"/>
  <outline>
    <contour>
      <point x="526" y="0" type="line"/>
      <point x="526" y="499" type="line" smooth="yes"/>
      <point x="526" y="657"/>
      <point x="624" y="748"/>
      <point x="747" y="748" type="curve" smooth="yes"/>
      <point x="809" y="748"/>
      <point x="871" y="726"/>
      <point x="919" y="692" type="curve"/>
      <point x="1068" y="992" type="line"/>
      <point x="1012" y="1029"/>
      <point x="931" y="1056"/>
      <point x="850" y="1056" type="curve" smooth="yes"/>
      <point x="723" y="1056"/>
      <point x="603" y="991"/>
      <point x="526" y="864" type="curve"/>
      <point x="526" y="1024" type="line" name=".hr01"/>
      <point x="170" y="1024" type="line"/>
      <point x="170" y="0" type="line"/>
    </contour>
  </outline>
</glyph>
<glyph name="s" format="2">
  <advance width="1034"/>
  <unicode hex="0073"/>
  <anchor x="530" y="0" name="bottom"/>
  <anchor x="513" y="1024" name="top"/>
  <outline>
    <contour>
      <point x="492" y="-32" type="curve" smooth="yes"/>
      <point x="770" y="-32"/>
      <point x="940" y="87"/>
      <point x="940" y="294" type="curve" smooth="yes"/>
      <point x="940" y="456"/>
      <point x="831" y="553"/>
      <point x="630" y="625" type="curve" smooth="yes"/>
      <point x="500" y="671"/>
      <point x="442" y="702"/>
      <point x="442" y="749" type="curve" smooth="yes"/>
      <point x="442" y="787"/>
      <point x="480" y="816"/>
      <point x="557" y="816" type="curve" smooth="yes"/>
      <point x="631" y="816"/>
      <point x="714" y="793"/>
      <point x="778" y="751" type="curve"/>
      <point x="889" y="954" type="line"/>
      <point x="784" y="1019"/>
      <point x="658" y="1054"/>
      <point x="531" y="1054" type="curve" smooth="yes"/>
      <point x="273" y="1054"/>
      <point x="104" y="912"/>
      <point x="104" y="728" type="curve" smooth="yes"/>
      <point x="104" y="534"/>
      <point x="292" y="459"/>
      <point x="422" y="411" type="curve" smooth="yes"/>
      <point x="521" y="375"/>
      <point x="566" y="348"/>
      <point x="566" y="302" type="curve" smooth="yes"/>
      <point x="566" y="254"/>
      <point x="520" y="229"/>
      <point x="457" y="229" type="curve" smooth="yes"/>
      <point x="378" y="229"/>
      <point x="285" y="264"/>
      <point x="207" y="331" type="curve"/>
      <point x="68" y="117" type="line"/>
      <point x="188" y="14"/>
      <point x="321" y="-32"/>
    </contour>
  </outline>
</glyph>
<glyph name="t" format="2">
  <advance width="897"/>
  <unicode hex="0074"/>
  <anchor x="568" y="0" name="bottom"/>
  <anchor x="448" y="512" name="center"/>
  <anchor x="477" y="1408" name="top"/>
  <anchor x="793" y="1024" name="topright"/>
  <outline>
    <contour>
      <point x="553" y="-32" type="curve" smooth="yes"/>
      <point x="648" y="-32"/>
      <point x="756" y="-4"/>
      <point x="833" y="42" type="curve"/>
      <point x="708" y="305" type="line"/>
      <point x="687" y="292"/>
      <point x="664" y="286"/>
      <point x="641" y="286" type="curve" smooth="yes"/>
      <point x="589" y="286"/>
      <point x="562" y="321"/>
      <point x="562" y="387" type="curve" smooth="yes"/>
      <point x="562" y="754" type="line"/>
      <point x="778" y="754" type="line"/>
      <point x="778" y="1024" type="line"/>
      <point x="562" y="1024" type="line"/>
      <point x="562" y="1408" type="line"/>
      <point x="206" y="1408" type="line"/>
      <point x="206" y="1024" type="line"/>
      <point x="59" y="1024" type="line"/>
      <point x="59" y="754" type="line"/>
      <point x="206" y="754" type="line"/>
      <point x="206" y="360" type="line" smooth="yes"/>
      <point x="206" y="114"/>
      <point x="334" y="-32"/>
    </contour>
  </outline>
</glyph>
<glyph name="u" format="2">
  <advance width="1400"/>
  <unicode hex="0075"/>
  <anchor x="700" y="0" name="bottom"/>
  <anchor x="734" y="0" name="ogonek"/>
  <anchor x="700" y="1024" name="top"/>
  <outline>
    <contour>
      <point x="701" y="-32" type="curve" smooth="yes"/>
      <point x="1087" y="-32"/>
      <point x="1257" y="134"/>
      <point x="1257" y="475" type="curve" smooth="yes"/>
      <point x="1257" y="1024" type="line"/>
      <point x="901" y="1024" type="line"/>
      <point x="901" y="562" type="line" smooth="yes"/>
      <point x="901" y="350"/>
      <point x="846" y="256"/>
      <point x="701" y="256" type="curve" smooth="yes"/>
      <point x="555" y="256"/>
      <point x="500" y="350"/>
      <point x="500" y="562" type="curve" smooth="yes"/>
      <point x="500" y="1024" type="line"/>
      <point x="144" y="1024" type="line"/>
      <point x="144" y="475" type="line" smooth="yes"/>
      <point x="144" y="134"/>
      <point x="314" y="-32"/>
    </contour>
  </outline>
</glyph>
<glyph name="v" format="2">
  <advance width="1266"/>
  <unicode hex="0076"/>
  <anchor x="633" y="0" name="bottom"/>
  <anchor x="633" y="1024" name="top"/>
  <outline>
    <contour>
      <point x="753" y="0" type="line"/>
      <point x="1303" y="1024" type="line"/>
      <point x="883" y="1024" type="line"/>
      <point x="633" y="466" type="line"/>
      <point x="383" y="1024" type="line"/>
      <point x="-37" y="1024" type="line"/>
      <point x="514" y="0" type="line"/>
    </contour>
  </outline>
</glyph>
<glyph name="w" format="2">
  <advance width="1978"/>
  <unicode hex="0077"/>
  <anchor x="989" y="0" name="bottom"/>
  <anchor x="989" y="1024" name="top"/>
  <outline>
    <contour>
      <point x="753" y="0" type="line"/>
      <point x="989" y="529" type="line"/>
      <point x="1224" y="0" type="line"/>
      <point x="1464" y="0" type="line"/>
      <point x="2015" y="1024" type="line"/>
      <point x="1607" y="1024" type="line"/>
      <point x="1356" y="469" type="line"/>
      <point x="1110" y="1024" type="line"/>
      <point x="867" y="1024" type="line"/>
      <point x="622" y="469" type="line"/>
      <point x="370" y="1024" type="line"/>
      <point x="-37" y="1024" type="line"/>
      <point x="514" y="0" type="line"/>
    </contour>
  </outline>
</glyph>
<glyph name="x" format="2">
  <advance width="1246"/>
  <unicode hex="0078"/>
  <anchor x="623" y="0" name="bottom"/>
  <anchor x="623" y="1024" name="top"/>
  <outline>
    <contour>
      <point x="397" y="0" type="line"/>
      <point x="623" y="290" type="line"/>
      <point x="850" y="0" type="line"/>
      <point x="1277" y="0" type="line"/>
      <point x="838" y="538" type="line"/>
      <point x="1214" y="1024" type="line"/>
      <point x="801" y="1024" type="line"/>
      <point x="623" y="785" type="line"/>
      <point x="446" y="1024" type="line"/>
      <point x="33" y="1024" type="line"/>
      <point x="408" y="538" type="line"/>
      <point x="-30" y="0" type="line"/>
    </contour>
  </outline>
</glyph>
<glyph name="y" format="2">
  <advance width="1270"/>
  <unicode hex="0079"/>
  <anchor x="635" y="0" name="bottom"/>
  <anchor x="635" y="1024" name="top"/>
  <outline>
    <contour>
      <point x="498" y="-520" type="line"/>
      <point x="1305" y="1024" type="line"/>
      <point x="896" y="1024" type="line"/>
      <point x="653" y="499" type="line"/>
      <point x="368" y="1024" type="line"/>
      <point x="-41" y="1024" type="line"/>
      <point x="445" y="160" type="line"/>
      <point x="90" y="-520" type="line"/>
    </contour>
  </outline>
</glyph>
<glyph name="z" format="2">
  <advance width="1184"/>
  <unicode hex="007A"/>
  <anchor x="591" y="0" name="bottom"/>
  <anchor x="591" y="1024" name="top"/>
  <outline>
    <contour>
      <point x="1093" y="0" type="line"/>
      <point x="1093" y="269" type="line"/>
      <point x="624" y="269" type="line"/>
      <point x="1132" y="1024" type="line"/>
      <point x="114" y="1024" type="line"/>
      <point x="114" y="755" type="line"/>
      <point x="537" y="755" type="line"/>
      <point x="31" y="0" type="line"/>
    </contour>
  </outline>
</glyph>
<glyph name="braceleft" format="2">
  <advance width="793"/>
  <unicode hex="007B"/>
  <outline>
    <contour>
      <point x="721" y="-520" type="line"/>
      <point x="721" y="-264" type="line"/>
      <point x="641" y="-264" type="line" smooth="yes"/>
      <point x="571" y="-264"/>
      <point x="516" y="-207"/>
      <point x="516" y="-128" type="curve" smooth="yes"/>
      <point x="516" y="386" type="line" smooth="yes"/>
      <point x="516" y="498"/>
      <point x="461" y="565"/>
      <point x="393" y="600" type="curve"/>
      <point x="461" y="635"/>
      <point x="516" y="699"/>
      <point x="516" y="814" type="curve" smooth="yes"/>
      <point x="516" y="1328" type="line" smooth="yes"/>
      <point x="516" y="1407"/>
      <point x="571" y="1464"/>
      <point x="641" y="1464" type="curve" smooth="yes"/>
      <point x="721" y="1464" type="line"/>
      <point x="721" y="1720" type="line"/>
      <point x="528" y="1720" type="line" smooth="yes"/>
      <point x="272" y="1720"/>
      <point x="210" y="1524"/>
      <point x="210" y="1358" type="curve" smooth="yes"/>
      <point x="210" y="823" type="line" smooth="yes"/>
      <point x="210" y="732"/>
      <point x="155" y="694"/>
      <point x="69" y="694" type="curve"/>
      <point x="69" y="506" type="line"/>
      <point x="155" y="506"/>
      <point x="210" y="468"/>
      <point x="210" y="377" type="curve" smooth="yes"/>
      <point x="210" y="-158" type="line" smooth="yes"/>
      <point x="210" y="-324"/>
      <point x="272" y="-520"/>
      <point x="528" y="-520" type="curve" smooth="yes"/>
    </contour>
  </outline>
</glyph>
<glyph name="bar" format="2">
  <advance width="815"/>
  <unicode hex="007C"/>
  <outline>
    <contour>
      <point x="560" y="0" type="line"/>
      <point x="560" y="1720" type="line"/>
      <point x="254" y="1720" type="line"/>
      <point x="254" y="0" type="line"/>
    </contour>
  </outline>
</glyph>
<glyph name="asciitilde" format="2">
  <advance width="1464"/>
  <unicode hex="007E"/>
  <outline>
    <contour>
      <point x="185" y="781" type="curve"/>
      <point x="369" y="661" type="line"/>
      <point x="408" y="735"/>
      <point x="460" y="775"/>
      <point x="533" y="775" type="curve" smooth="yes"/>
      <point x="678" y="775"/>
      <point x="761" y="612" name=".hr01"/>
      <point x="945" y="612" type="curve" smooth="yes"/>
      <point x="1078" y="612"/>
      <point x="1194" y="696"/>
      <point x="1280" y="872" type="curve"/>
      <point x="1097" y="992" type="line"/>
      <point x="1056" y="916"/>
      <point x="1002" y="878"/>
      <point x="932" y="878" type="curve" smooth="yes"/>
      <point x="787" y="878"/>
      <point x="704" y="1041" name=".hr02"/>
      <point x="520" y="1041" type="curve" smooth="yes"/>
      <point x="384" y="1041"/>
      <point x="269" y="954"/>
    </contour>
  </outline>
</glyph>
<glyph name="cent" format="2">
  <advance width="1163"/>
  <unicode hex="00A2"/>
  <outline>
    <component base="c" xOffset="40"/>
    <contour>
      <point x="502" y="1272" type="line"/>
      <point x="502" y="1003" type="line"/>
      <point x="718" y="1003" type="line"/>
      <point x="718" y="1272" type="line"/>
    </contour>
    <contour>
      <point x="563" y="0" type="line" name=".hr01"/>
      <point x="563" y="-258" type="line"/>
      <point x="779" y="-258" type="line"/>
      <point x="779" y="0" type="line"/>
    </contour>
  </outline>
</glyph>
<glyph name="sterling" format="2">
  <advance width="1559"/>
  <unicode hex="00A3"/>
  <outline>
    <contour>
      <point x="1108" y="-30" type="curve" smooth="yes"/>
      <point x="1308" y="-30"/>
      <point x="1447" y="85"/>
      <point x="1482" y="266" type="curve"/>
      <point x="1207" y="402" type="line"/>
      <point x="1192" y="305"/>
      <point x="1150" y="258"/>
      <point x="1056" y="258" type="curve" smooth="yes"/>
      <point x="971" y="258"/>
      <point x="847" y="305"/>
      <point x="759" y="324" type="curve"/>
      <point x="784" y="373"/>
      <point x="796" y="420"/>
      <point x="796" y="468" type="curve" smooth="yes"/>
      <point x="796" y="507"/>
      <point x="788" y="544"/>
      <point x="775" y="577" type="curve"/>
      <point x="1083" y="577" type="line"/>
      <point x="1083" y="773" type="line"/>
      <point x="726" y="773" type="line"/>
      <point x="660" y="925"/>
      <point x="622" y="1059" name=".hr01"/>
      <point x="622" y="1159" type="curve" smooth="yes"/>
      <point x="622" y="1298"/>
      <point x="694" y="1369"/>
      <point x="822" y="1369" type="curve" smooth="yes"/>
      <point x="965" y="1369"/>
      <point x="1036" y="1284"/>
      <point x="1074" y="1149" type="curve"/>
      <point x="1379" y="1302" type="line"/>
      <point x="1321" y="1519"/>
      <point x="1127" y="1682"/>
      <point x="829" y="1682" type="curve" smooth="yes"/>
      <point x="493" y="1682"/>
      <point x="269" y="1475"/>
      <point x="269" y="1144" type="curve" smooth="yes"/>
      <point x="269" y="1004"/>
      <point x="311" y="879"/>
      <point x="373" y="773" type="curve"/>
      <point x="169" y="773" type="line"/>
      <point x="169" y="577" type="line"/>
      <point x="460" y="577" type="line"/>
      <point x="477" y="548"/>
      <point x="489" y="511" name=".hr02"/>
      <point x="489" y="470" type="curve" smooth="yes"/>
      <point x="489" y="426"/>
      <point x="478" y="381"/>
      <point x="462" y="355" type="curve"/>
      <point x="289" y="353"/>
      <point x="164" y="199"/>
      <point x="168" y="0" type="curve"/>
      <point x="476" y="0" type="line"/>
      <point x="478" y="59"/>
      <point x="516" y="86"/>
      <point x="582" y="86" type="curve" smooth="yes"/>
      <point x="721" y="86"/>
      <point x="910" y="-30"/>
    </contour>
  </outline>
</glyph>
<glyph name="currency" format="2">
  <advance width="1237"/>
  <unicode hex="00A4"/>
  <outline>
    <contour>
      <point x="347" y="219" type="line"/>
      <point x="423" y="166"/>
      <point x="516" y="136"/>
      <point x="619" y="136" type="curve" smooth="yes"/>
      <point x="721" y="136"/>
      <point x="815" y="166"/>
      <point x="891" y="218" type="curve"/>
      <point x="1030" y="78" type="line"/>
      <point x="1151" y="200" type="line"/>
      <point x="1011" y="340" type="line"/>
      <point x="1061" y="416"/>
      <point x="1091" y="508"/>
      <point x="1091" y="611" type="curve" smooth="yes"/>
      <point x="1091" y="714"/>
      <point x="1061" y="806"/>
      <point x="1011" y="882" type="curve"/>
      <point x="1151" y="1022" type="line"/>
      <point x="1030" y="1144" type="line"/>
      <point x="891" y="1004" type="line"/>
      <point x="815" y="1056"/>
      <point x="721" y="1086"/>
      <point x="619" y="1086" type="curve" smooth="yes"/>
      <point x="516" y="1086"/>
      <point x="423" y="1056"/>
      <point x="347" y="1003" type="curve"/>
      <point x="208" y="1144" type="line"/>
      <point x="86" y="1022" type="line"/>
      <point x="227" y="881" type="line"/>
      <point x="177" y="806"/>
      <point x="147" y="714"/>
      <point x="147" y="611" type="curve" smooth="yes"/>
      <point x="147" y="508"/>
      <point x="177" y="416"/>
      <point x="227" y="341" type="curve"/>
      <point x="86" y="200" type="line"/>
      <point x="208" y="78" type="line"/>
    </contour>
    <contour>
      <point x="619" y="435" type="curve" smooth="yes"/>
      <point x="515" y="435"/>
      <point x="439" y="505"/>
      <point x="439" y="611" type="curve" smooth="yes"/>
      <point x="439" y="717"/>
      <point x="515" y="787"/>
      <point x="619" y="787" type="curve" smooth="yes"/>
      <point x="723" y="787"/>
      <point x="799" y="717"/>
      <point x="799" y="611" type="curve" smooth="yes"/>
      <point x="799" y="505"/>
      <point x="723" y="435"/>
    </contour>
  </outline>
</glyph>
<glyph name="yen" format="2">
  <advance width="1743"/>
  <unicode hex="00A5"/>
  <outline>
    <component base="Y" xOffset="108"/>
    <contour>
      <point x="258" y="872" type="line"/>
      <point x="258" y="606" type="line"/>
      <point x="1484" y="606" type="line"/>
      <point x="1484" y="872" type="line"/>
    </contour>
    <contour>
      <point x="258" y="486" type="line"/>
      <point x="258" y="220" type="line"/>
      <point x="1484" y="220" type="line"/>
      <point x="1484" y="486" type="line"/>
    </contour>
  </outline>
</glyph>
<glyph name="brokenbar" format="2">
  <advance width="815"/>
  <unicode hex="00A6"/>
  <outline>
    <contour>
      <point x="560" y="1056" type="line"/>
      <point x="560" y="1720" type="line"/>
      <point x="254" y="1720" type="line"/>
      <point x="254" y="1056" type="line"/>
    </contour>
    <contour>
      <point x="560" y="0" type="line"/>
      <point x="560" y="664" type="line"/>
      <point x="254" y="664" type="line"/>
      <point x="254" y="0" type="line"/>
    </contour>
  </outline>
</glyph>
<glyph name="section" format="2">
  <advance width="1438"/>
  <unicode hex="00A7"/>
  <outline>
    <contour>
      <point x="689" y="-550" type="curve" smooth="yes"/>
      <point x="988" y="-550"/>
      <point x="1231" y="-406"/>
      <point x="1231" y="-122" type="curve" smooth="yes"/>
      <point x="1231" y="32"/>
      <point x="1159" y="143"/>
      <point x="1037" y="227" type="curve"/>
      <point x="1215" y="302"/>
      <point x="1313" y="426"/>
      <point x="1320" y="580" type="curve" smooth="yes"/>
      <point x="1331" y="811"/>
      <point x="1128" y="957"/>
      <point x="927" y="1053" type="curve"/>
      <point x="809" y="1108"/>
      <point x="623" y="1181"/>
      <point x="623" y="1282" type="curve" smooth="yes"/>
      <point x="623" y="1338"/>
      <point x="671" y="1384"/>
      <point x="751" y="1384" type="curve" smooth="yes"/>
      <point x="852" y="1384"/>
      <point x="902" y="1318"/>
      <point x="910" y="1254" type="curve"/>
      <point x="1232" y="1321" type="line"/>
      <point x="1195" y="1489"/>
      <point x="1071" y="1680"/>
      <point x="736" y="1680" type="curve" smooth="yes"/>
      <point x="399" y="1680"/>
      <point x="232" y="1486"/>
      <point x="232" y="1252" type="curve" smooth="yes"/>
      <point x="232" y="1101"/>
      <point x="302" y="987"/>
      <point x="435" y="904" type="curve"/>
      <point x="251" y="828"/>
      <point x="153" y="704"/>
      <point x="144" y="551" type="curve" smooth="yes"/>
      <point x="130" y="311"/>
      <point x="342" y="169"/>
      <point x="534" y="73" type="curve"/>
      <point x="699" y="-6"/>
      <point x="837" y="-56"/>
      <point x="837" y="-142" type="curve" smooth="yes"/>
      <point x="837" y="-199"/>
      <point x="792" y="-254"/>
      <point x="685" y="-254" type="curve" smooth="yes"/>
      <point x="560" y="-254"/>
      <point x="492" y="-182"/>
      <point x="464" y="-100" type="curve"/>
      <point x="142" y="-169" type="line"/>
      <point x="182" y="-344"/>
      <point x="329" y="-550"/>
    </contour>
    <contour>
      <point x="806" y="362" type="curve"/>
      <point x="769" y="377"/>
      <point x="708" y="402"/>
      <point x="634" y="446" type="curve"/>
      <point x="536" y="500"/>
      <point x="491" y="550"/>
      <point x="491" y="611" type="curve" smooth="yes"/>
      <point x="491" y="696"/>
      <point x="583" y="740"/>
      <point x="665" y="760" type="curve"/>
      <point x="701" y="744"/>
      <point x="725" y="732"/>
      <point x="745" y="723" type="curve"/>
      <point x="912" y="642"/>
      <point x="972" y="585"/>
      <point x="972" y="518" type="curve" smooth="yes"/>
      <point x="972" y="436"/>
      <point x="877" y="384"/>
    </contour>
  </outline>
</glyph>
<glyph name="copyright" format="2">
  <advance width="1948"/>
  <unicode hex="00A9"/>
  <outline>
    <component base="c" xScale="0.7642" yScale="0.7642" xOffset="521" yOffset="439"/>
    <contour>
      <point x="975" y="-30" type="curve" smooth="yes"/>
      <point x="1445" y="-30"/>
      <point x="1829" y="353"/>
      <point x="1829" y="824" type="curve" smooth="yes"/>
      <point x="1829" y="1296"/>
      <point x="1445" y="1680"/>
      <point x="973" y="1680" type="curve" smooth="yes"/>
      <point x="501" y="1680"/>
      <point x="119" y="1294"/>
      <point x="119" y="826" type="curve" smooth="yes"/>
      <point x="119" y="353"/>
      <point x="506" y="-30"/>
    </contour>
    <contour>
      <point x="975" y="199" type="curve" smooth="yes"/>
      <point x="630" y="199"/>
      <point x="348" y="480"/>
      <point x="348" y="825" type="curve" smooth="yes"/>
      <point x="348" y="1170"/>
      <point x="630" y="1453"/>
      <point x="973" y="1453" type="curve" smooth="yes"/>
      <point x="1318" y="1453"/>
      <point x="1602" y="1170"/>
      <point x="1602" y="824" type="curve" smooth="yes"/>
      <point x="1602" y="480"/>
      <point x="1319" y="199"/>
    </contour>
  </outline>
</glyph>
<glyph name="ordfeminine" format="2">
  <advance width="1086"/>
  <unicode hex="00AA"/>
  <outline>
    <contour>
      <point x="453" y="1008" type="curve" smooth="yes"/>
      <point x="542" y="1008"/>
      <point x="616" y="1046"/>
      <point x="664" y="1097" type="curve"/>
      <point x="664" y="1028" type="line"/>
      <point x="884" y="1028" type="line"/>
      <point x="884" y="1660" type="line"/>
      <point x="664" y="1660" type="line"/>
      <point x="664" y="1600" type="line"/>
      <point x="612" y="1652"/>
      <point x="540" y="1680"/>
      <point x="461" y="1680" type="curve" smooth="yes"/>
      <point x="270" y="1680"/>
      <point x="144" y="1530"/>
      <point x="144" y="1345" type="curve" smooth="yes"/>
      <point x="144" y="1153"/>
      <point x="279" y="1008"/>
    </contour>
    <contour>
      <point x="521" y="1194" type="curve" smooth="yes"/>
      <point x="434" y="1194"/>
      <point x="375" y="1258"/>
      <point x="375" y="1343" type="curve" smooth="yes"/>
      <point x="375" y="1432"/>
      <point x="440" y="1494"/>
      <point x="522" y="1494" type="curve" smooth="yes"/>
      <point x="604" y="1494"/>
      <point x="669" y="1432"/>
      <point x="669" y="1344" type="curve" smooth="yes"/>
      <point x="669" y="1258"/>
      <point x="608" y="1194"/>
    </contour>
  </outline>
</glyph>
<glyph name="guillemetleft" format="2">
  <advance width="1259"/>
  <unicode hex="00AB"/>
  <outline>
    <contour>
      <point x="640" y="204" type="line"/>
      <point x="363" y="558" type="line"/>
      <point x="640" y="912" type="line"/>
      <point x="454" y="1058" type="line"/>
      <point x="64" y="558" type="line"/>
      <point x="454" y="58" type="line"/>
    </contour>
    <contour>
      <point x="1169" y="204" type="line"/>
      <point x="892" y="558" type="line"/>
      <point x="1169" y="912" type="line"/>
      <point x="983" y="1058" type="line"/>
      <point x="593" y="558" type="line"/>
      <point x="983" y="58" type="line"/>
    </contour>
  </outline>
</glyph>
<glyph name="logicalnot" format="2">
  <advance width="1313"/>
  <unicode hex="00AC"/>
  <outline>
    <contour>
      <point x="1170" y="316" type="line"/>
      <point x="1170" y="984" type="line"/>
      <point x="143" y="984" type="line"/>
      <point x="143" y="676" type="line"/>
      <point x="863" y="676" type="line"/>
      <point x="863" y="316" type="line"/>
    </contour>
  </outline>
</glyph>
<glyph name="registered" format="2">
  <advance width="1235"/>
  <unicode hex="00AE"/>
  <outline>
    <component base="R" xScale="0.2541" yScale="0.2541" xOffset="418" yOffset="1022"/>
    <contour>
      <point x="617" y="778" type="curve" smooth="yes"/>
      <point x="867" y="778"/>
      <point x="1066" y="984"/>
      <point x="1066" y="1230" type="curve" smooth="yes"/>
      <point x="1066" y="1476"/>
      <point x="867" y="1682"/>
      <point x="617" y="1682" type="curve" smooth="yes"/>
      <point x="366" y="1682"/>
      <point x="167" y="1476"/>
      <point x="167" y="1230" type="curve" smooth="yes"/>
      <point x="167" y="984"/>
      <point x="366" y="778"/>
    </contour>
    <contour>
      <point x="617" y="888" type="curve" smooth="yes"/>
      <point x="426" y="888"/>
      <point x="278" y="1046"/>
      <point x="278" y="1230" type="curve" smooth="yes"/>
      <point x="278" y="1414"/>
      <point x="426" y="1572"/>
      <point x="617" y="1572" type="curve" smooth="yes"/>
      <point x="807" y="1572"/>
      <point x="955" y="1414"/>
      <point x="955" y="1230" type="curve" smooth="yes"/>
      <point x="955" y="1046"/>
      <point x="807" y="888"/>
    </contour>
  </outline>
</glyph>
<glyph name="degree" format="2">
  <advance width="891"/>
  <unicode hex="00B0"/>
  <outline>
    <contour>
      <point x="445" y="1338" type="curve" smooth="yes"/>
      <point x="577" y="1338"/>
      <point x="678" y="1422"/>
      <point x="678" y="1544" type="curve" smooth="yes"/>
      <point x="678" y="1666"/>
      <point x="576" y="1750"/>
      <point x="445" y="1750" type="curve" smooth="yes"/>
      <point x="314" y="1750"/>
      <point x="213" y="1666"/>
      <point x="213" y="1544" type="curve" smooth="yes"/>
      <point x="213" y="1423"/>
      <point x="313" y="1338"/>
    </contour>
    <contour>
      <point x="445" y="1454" type="curve" smooth="yes"/>
      <point x="396" y="1454"/>
      <point x="359" y="1492"/>
      <point x="359" y="1544" type="curve" smooth="yes"/>
      <point x="359" y="1596"/>
      <point x="397" y="1634"/>
      <point x="445" y="1634" type="curve" smooth="yes"/>
      <point x="493" y="1634"/>
      <point x="531" y="1597"/>
      <point x="531" y="1544" type="curve" smooth="yes"/>
      <point x="531" y="1492"/>
      <point x="494" y="1454"/>
    </contour>
  </outline>
</glyph>
<glyph name="plusminus" format="2">
  <advance width="1415"/>
  <unicode hex="00B1"/>
  <outline>
    <contour>
      <point x="861" y="416" type="line"/>
      <point x="861" y="726" type="line"/>
      <point x="1221" y="726" type="line"/>
      <point x="1221" y="1032" type="line"/>
      <point x="861" y="1032" type="line"/>
      <point x="861" y="1342" type="line"/>
      <point x="553" y="1342" type="line"/>
      <point x="553" y="1032" type="line"/>
      <point x="193" y="1032" type="line"/>
      <point x="193" y="726" type="line"/>
      <point x="553" y="726" type="line"/>
      <point x="553" y="416" type="line"/>
    </contour>
    <contour>
      <point x="1221" y="0" type="line"/>
      <point x="1221" y="308" type="line"/>
      <point x="193" y="308" type="line"/>
      <point x="193" y="0" type="line"/>
    </contour>
  </outline>
</glyph>
<glyph name="twosuperior" format="2">
  <advance width="789"/>
  <unicode hex="00B2"/>
  <outline>
    <contour>
      <point x="648" y="1026" type="line"/>
      <point x="648" y="1171" type="line"/>
      <point x="430" y="1171" type="line"/>
      <point x="573" y="1268"/>
      <point x="636" y="1360"/>
      <point x="636" y="1460" type="curve" smooth="yes"/>
      <point x="636" y="1588"/>
      <point x="536" y="1682"/>
      <point x="389" y="1682" type="curve" smooth="yes"/>
      <point x="270" y="1682"/>
      <point x="186" y="1618"/>
      <point x="138" y="1497" type="curve"/>
      <point x="275" y="1428" type="line"/>
      <point x="309" y="1509"/>
      <point x="343" y="1543"/>
      <point x="388" y="1543" type="curve" smooth="yes"/>
      <point x="430" y="1543"/>
      <point x="459" y="1514"/>
      <point x="459" y="1469" type="curve" smooth="yes"/>
      <point x="459" y="1387"/>
      <point x="356" y="1273"/>
      <point x="137" y="1113" type="curve"/>
      <point x="137" y="1026" type="line"/>
    </contour>
  </outline>
</glyph>
<glyph name="threesuperior" format="2">
  <advance width="781"/>
  <unicode hex="00B3"/>
  <outline>
    <contour>
      <point x="393" y="1026" type="curve" smooth="yes"/>
      <point x="530" y="1026"/>
      <point x="640" y="1089"/>
      <point x="640" y="1220" type="curve" smooth="yes"/>
      <point x="640" y="1290"/>
      <point x="608" y="1347"/>
      <point x="549" y="1381" type="curve"/>
      <point x="591" y="1423"/>
      <point x="613" y="1474"/>
      <point x="613" y="1524" type="curve" smooth="yes"/>
      <point x="613" y="1628"/>
      <point x="524" y="1680"/>
      <point x="395" y="1680" type="curve" smooth="yes"/>
      <point x="270" y="1680"/>
      <point x="202" y="1630"/>
      <point x="167" y="1544" type="curve"/>
      <point x="294" y="1481" type="line"/>
      <point x="303" y="1522"/>
      <point x="339" y="1551"/>
      <point x="381" y="1551" type="curve" smooth="yes"/>
      <point x="420" y="1551"/>
      <point x="450" y="1526"/>
      <point x="450" y="1493" type="curve" smooth="yes"/>
      <point x="450" y="1455"/>
      <point x="409" y="1422"/>
      <point x="369" y="1422" type="curve" smooth="yes"/>
      <point x="336" y="1422" type="line"/>
      <point x="336" y="1317" type="line"/>
      <point x="346" y="1321"/>
      <point x="354" y="1322"/>
      <point x="364" y="1322" type="curve" smooth="yes"/>
      <point x="421" y="1322"/>
      <point x="464" y="1287"/>
      <point x="464" y="1234" type="curve" smooth="yes"/>
      <point x="464" y="1191"/>
      <point x="433" y="1165"/>
      <point x="385" y="1165" type="curve" smooth="yes"/>
      <point x="329" y="1165"/>
      <point x="292" y="1200"/>
      <point x="287" y="1253" type="curve"/>
      <point x="137" y="1178" type="line"/>
      <point x="178" y="1081"/>
      <point x="265" y="1026"/>
    </contour>
  </outline>
</glyph>
<glyph name="micro" format="2">
  <advance width="1590"/>
  <unicode hex="00B5"/>
  <outline>
    <contour>
      <point x="623" y="-320" type="line"/>
      <point x="623" y="-3" type="line"/>
      <point x="647" y="-22"/>
      <point x="681" y="-32"/>
      <point x="718" y="-32" type="curve" smooth="yes"/>
      <point x="826" y="-32"/>
      <point x="943" y="22"/>
      <point x="1016" y="106" type="curve"/>
      <point x="1016" y="0" type="line" name=".hr01"/>
      <point x="1372" y="0" type="line"/>
      <point x="1372" y="1024" type="line"/>
      <point x="1016" y="1024" type="line"/>
      <point x="1016" y="444" type="line" smooth="yes"/>
      <point x="1016" y="337"/>
      <point x="921" y="245" name=".hr02"/>
      <point x="808" y="245" type="curve" smooth="yes"/>
      <point x="696" y="245"/>
      <point x="625" y="323"/>
      <point x="625" y="444" type="curve" smooth="yes"/>
      <point x="625" y="1024" type="line"/>
      <point x="269" y="1024" type="line"/>
      <point x="269" y="418" type="line" smooth="yes"/>
      <point x="269" y="83"/>
      <point x="209" y="-94"/>
      <point x="209" y="-320" type="curve"/>
    </contour>
  </outline>
</glyph>
<glyph name="paragraph" format="2">
  <advance width="1596"/>
  <unicode hex="00B6"/>
  <outline>
    <contour>
      <point x="1014" y="0" type="line"/>
      <point x="1014" y="1442" type="line"/>
      <point x="1136" y="1442" type="line"/>
      <point x="1136" y="0" type="line"/>
      <point x="1341" y="0" type="line"/>
      <point x="1341" y="1650" type="line"/>
      <point x="615" y="1650" type="line" smooth="yes"/>
      <point x="293" y="1650"/>
      <point x="93" y="1424"/>
      <point x="93" y="1142" type="curve" smooth="yes"/>
      <point x="93" y="863"/>
      <point x="293" y="613"/>
      <point x="615" y="613" type="curve" smooth="yes"/>
      <point x="808" y="613" type="line"/>
      <point x="808" y="0" type="line"/>
    </contour>
  </outline>
</glyph>
<glyph name="ordmasculine" format="2">
  <advance width="950"/>
  <unicode hex="00BA"/>
  <outline>
    <contour>
      <point x="474" y="1004" type="curve" smooth="yes"/>
      <point x="684" y="1004"/>
      <point x="845" y="1144"/>
      <point x="845" y="1342" type="curve" smooth="yes"/>
      <point x="845" y="1540"/>
      <point x="684" y="1680"/>
      <point x="474" y="1680" type="curve" smooth="yes"/>
      <point x="264" y="1680"/>
      <point x="103" y="1540"/>
      <point x="103" y="1342" type="curve" smooth="yes"/>
      <point x="103" y="1144"/>
      <point x="264" y="1004"/>
    </contour>
    <contour>
      <point x="474" y="1190" type="curve" smooth="yes"/>
      <point x="394" y="1190"/>
      <point x="335" y="1253"/>
      <point x="335" y="1342" type="curve" smooth="yes"/>
      <point x="335" y="1431"/>
      <point x="394" y="1495"/>
      <point x="474" y="1495" type="curve" smooth="yes"/>
      <point x="553" y="1495"/>
      <point x="613" y="1431"/>
      <point x="613" y="1342" type="curve" smooth="yes"/>
      <point x="613" y="1253"/>
      <point x="553" y="1190"/>
    </contour>
  </outline>
</glyph>
<glyph name="AE" format="2">
  <advance width="1946"/>
  <unicode hex="00C6"/>
  <outline>
    <contour>
      <point x="833" y="1140" type="line"/>
      <point x="833" y="660" type="line"/>
      <point x="646" y="660" type="line"/>
    </contour>
    <contour>
      <point x="658" y="1650" type="line"/>
      <point x="-9" y="0" type="line"/>
      <point x="396" y="0" type="line"/>
      <point x="518" y="330" type="line"/>
      <point x="833" y="330" type="line"/>
      <point x="833" y="0" type="line"/>
      <point x="1777" y="0" type="line"/>
      <point x="1777" y="330" type="line"/>
      <point x="1209" y="330" type="line"/>
      <point x="1209" y="662" type="line"/>
      <point x="1753" y="662" type="line"/>
      <point x="1753" y="992" type="line"/>
      <point x="1209" y="992" type="line"/>
      <point x="1209" y="1320" type="line"/>
      <point x="1777" y="1320" type="line"/>
      <point x="1777" y="1650" type="line"/>
    </contour>
  </outline>
</glyph>
<glyph name="Eth" format="2">
  <advance width="1651"/>
  <unicode hex="00D0"/>
  <outline>
    <component base="D" xOffset="47"/>
    <contour>
      <point x="96" y="978" type="line"/>
      <point x="96" y="672" type="line"/>
      <point x="854" y="672" type="line"/>
      <point x="854" y="978" type="line"/>
    </contour>
  </outline>
</glyph>
<glyph name="multiply" format="2">
  <advance width="1286"/>
  <unicode hex="00D7"/>
  <outline>
    <contour>
      <point x="643" y="613" type="line"/>
      <point x="947" y="309" type="line"/>
      <point x="1163" y="524" type="line"/>
      <point x="858" y="830" type="line"/>
      <point x="1163" y="1136" type="line"/>
      <point x="948" y="1350" type="line"/>
      <point x="643" y="1047" type="line"/>
      <point x="338" y="1350" type="line"/>
      <point x="123" y="1136" type="line"/>
      <point x="427" y="830" type="line"/>
      <point x="123" y="524" type="line"/>
      <point x="338" y="309" type="line"/>
    </contour>
  </outline>
</glyph>
<glyph name="Oslash" format="2">
  <advance width="1835"/>
  <unicode hex="00D8"/>
  <outline>
    <component base="O"/>
    <contour>
      <point x="1663" y="1534" type="line"/>
      <point x="1438" y="1706" type="line"/>
      <point x="186" y="136" type="line"/>
      <point x="410" y="-28" type="line"/>
    </contour>
  </outline>
</glyph>
<glyph name="Thorn" format="2">
  <advance width="1431"/>
  <unicode hex="00DE"/>
  <anchor x="715" y="0" name="bottom"/>
  <anchor x="715" y="1650" name="top"/>
  <outline>
    <contour>
      <point x="588" y="0" type="line"/>
      <point x="588" y="306" type="line"/>
      <point x="814" y="306" type="line" smooth="yes"/>
      <point x="1135" y="306"/>
      <point x="1377" y="484"/>
      <point x="1377" y="825" type="curve" smooth="yes"/>
      <point x="1377" y="1166"/>
      <point x="1135" y="1344"/>
      <point x="814" y="1344" type="curve" smooth="yes"/>
      <point x="588" y="1344" type="line"/>
      <point x="588" y="1651" type="line"/>
      <point x="212" y="1651" type="line"/>
      <point x="212" y="0" type="line"/>
    </contour>
    <contour>
      <point x="588" y="1044" type="line"/>
      <point x="694" y="1044" type="line" smooth="yes"/>
      <point x="841" y="1044"/>
      <point x="982" y="995"/>
      <point x="982" y="825" type="curve" smooth="yes"/>
      <point x="982" y="657"/>
      <point x="841" y="606"/>
      <point x="694" y="606" type="curve" smooth="yes"/>
      <point x="588" y="606" type="line"/>
    </contour>
  </outline>
</glyph>
<glyph name="germandbls" format="2">
  <advance width="1388"/>
  <unicode hex="00DF"/>
  <anchor x="696" y="0" name="bottom"/>
  <anchor x="696" y="1024" name="top"/>
  <outline>
    <contour>
      <point x="729" y="-32" type="line"/>
      <point x="1068" y="-25"/>
      <point x="1307" y="199"/>
      <point x="1307" y="509" type="curve" smooth="yes"/>
      <point x="1307" y="697"/>
      <point x="1215" y="839"/>
      <point x="1042" y="919" type="curve"/>
      <point x="1174" y="995"/>
      <point x="1242" y="1111"/>
      <point x="1242" y="1264" type="curve" smooth="yes"/>
      <point x="1242" y="1540"/>
      <point x="1024" y="1750"/>
      <point x="734" y="1750" type="curve" smooth="yes"/>
      <point x="441" y="1750"/>
      <point x="221" y="1532"/>
      <point x="221" y="1243" type="curve" smooth="yes"/>
      <point x="221" y="920" type="line"/>
      <point x="89" y="920" type="line"/>
      <point x="89" y="649" type="line"/>
      <point x="221" y="649" type="line"/>
      <point x="221" y="0" type="line" name=".hr01"/>
      <point x="575" y="0" type="line"/>
      <point x="575" y="1256" type="line" smooth="yes"/>
      <point x="575" y="1377"/>
      <point x="635" y="1452"/>
      <point x="730" y="1452" type="curve" smooth="yes"/>
      <point x="833" y="1452"/>
      <point x="908" y="1369"/>
      <point x="908" y="1255" type="curve" smooth="yes"/>
      <point x="908" y="1135"/>
      <point x="833" y="1047"/>
      <point x="729" y="1047" type="curve" smooth="yes"/>
      <point x="692" y="1047" type="line"/>
      <point x="692" y="778" type="line"/>
      <point x="729" y="778" type="line" smooth="yes"/>
      <point x="848" y="778"/>
      <point x="931" y="678"/>
      <point x="931" y="535" type="curve" smooth="yes"/>
      <point x="931" y="394"/>
      <point x="846" y="293" name=".hr02"/>
      <point x="729" y="293" type="curve" smooth="yes"/>
      <point x="692" y="293" type="line"/>
      <point x="692" y="-32" type="line"/>
    </contour>
  </outline>
</glyph>
<glyph name="ae" format="2">
  <advance width="1963"/>
  <unicode hex="00E6"/>
  <outline>
    <contour>
      <point x="468" y="-32" type="curve" smooth="yes"/>
      <point x="598" y="-32"/>
      <point x="722" y="13"/>
      <point x="932" y="121" type="curve"/>
      <point x="1047" y="19"/>
      <point x="1181" y="-32"/>
      <point x="1341" y="-32" type="curve" smooth="yes"/>
      <point x="1570" y="-32"/>
      <point x="1754" y="64"/>
      <point x="1855" y="235" type="curve"/>
      <point x="1600" y="363" type="line"/>
      <point x="1524" y="281"/>
      <point x="1462" y="250" name=".hr01"/>
      <point x="1370" y="250" type="curve" smooth="yes"/>
      <point x="1220" y="250"/>
      <point x="1127" y="332"/>
      <point x="1127" y="464" type="curve"/>
      <point x="1872" y="464" type="line"/>
      <point x="1875" y="500"/>
      <point x="1875" y="509"/>
      <point x="1875" y="527" type="curve" smooth="yes"/>
      <point x="1875" y="841"/>
      <point x="1653" y="1056"/>
      <point x="1330" y="1056" type="curve" smooth="yes"/>
      <point x="1192" y="1056"/>
      <point x="1066" y="1010"/>
      <point x="963" y="930" type="curve"/>
      <point x="873" y="1011"/>
      <point x="724" y="1056"/>
      <point x="555" y="1056" type="curve" smooth="yes"/>
      <point x="399" y="1056"/>
      <point x="259" y="1020"/>
      <point x="157" y="955" type="curve"/>
      <point x="274" y="718" type="line"/>
      <point x="338" y="751"/>
      <point x="453" y="775"/>
      <point x="532" y="775" type="curve" smooth="yes"/>
      <point x="668" y="775"/>
      <point x="769" y="702"/>
      <point x="769" y="599" type="curve" smooth="yes"/>
      <point x="769" y="525" type="line"/>
      <point x="689" y="572"/>
      <point x="576" y="602" name=".hr02"/>
      <point x="472" y="602" type="curve" smooth="yes"/>
      <point x="247" y="602"/>
      <point x="89" y="471"/>
      <point x="89" y="281" type="curve" smooth="yes"/>
      <point x="89" y="85"/>
      <point x="234" y="-32"/>
    </contour>
    <contour>
      <point x="611" y="182" type="curve" smooth="yes"/>
      <point x="516" y="182"/>
      <point x="441" y="233"/>
      <point x="441" y="302" type="curve" smooth="yes"/>
      <point x="441" y="368"/>
      <point x="512" y="413"/>
      <point x="607" y="413" type="curve" smooth="yes"/>
      <point x="703" y="413"/>
      <point x="782" y="364"/>
      <point x="782" y="297" type="curve" smooth="yes"/>
      <point x="782" y="230"/>
      <point x="706" y="182"/>
    </contour>
    <contour>
      <point x="1137" y="652" type="line"/>
      <point x="1143" y="751"/>
      <point x="1220" y="817" name=".hr03"/>
      <point x="1334" y="817" type="curve" smooth="yes"/>
      <point x="1444" y="817"/>
      <point x="1513" y="756"/>
      <point x="1528" y="652" type="curve"/>
    </contour>
  </outline>
</glyph>
<glyph name="eth" format="2">
  <advance width="1416"/>
  <unicode hex="00F0"/>
  <outline>
    <contour>
      <point x="698" y="-32" type="curve" smooth="yes"/>
      <point x="1053" y="-32"/>
      <point x="1311" y="196"/>
      <point x="1311" y="512" type="curve" smooth="yes"/>
      <point x="1311" y="997"/>
      <point x="1047" y="1302"/>
      <point x="779" y="1491" type="curve"/>
      <point x="882" y="1594" type="line"/>
      <point x="731" y="1751" type="line"/>
      <point x="585" y="1606" type="line"/>
      <point x="457" y="1675"/>
      <point x="316" y="1723"/>
      <point x="208" y="1751" type="curve"/>
      <point x="124" y="1452" type="line"/>
      <point x="180" y="1438"/>
      <point x="264" y="1410"/>
      <point x="346" y="1368" type="curve"/>
      <point x="222" y="1245" type="line"/>
      <point x="377" y="1090" type="line"/>
      <point x="542" y="1254" type="line"/>
      <point x="631" y="1194"/>
      <point x="710" y="1119"/>
      <point x="777" y="1025" type="curve"/>
      <point x="755" y="1053"/>
      <point x="714" y="1070"/>
      <point x="671" y="1070" type="curve" smooth="yes"/>
      <point x="411" y="1070"/>
      <point x="79" y="888"/>
      <point x="79" y="512" type="curve" smooth="yes"/>
      <point x="79" y="196"/>
      <point x="328" y="-32"/>
    </contour>
    <contour>
      <point x="696" y="272" type="curve" smooth="yes"/>
      <point x="553" y="272"/>
      <point x="457" y="373"/>
      <point x="457" y="512" type="curve" smooth="yes"/>
      <point x="457" y="655"/>
      <point x="563" y="754"/>
      <point x="696" y="754" type="curve" smooth="yes"/>
      <point x="827" y="754"/>
      <point x="934" y="655"/>
      <point x="934" y="512" type="curve" smooth="yes"/>
      <point x="934" y="373"/>
      <point x="834" y="272"/>
    </contour>
  </outline>
</glyph>
<glyph name="divide" format="2">
  <advance width="1258"/>
  <unicode hex="00F7"/>
  <outline>
    <contour>
      <point x="111" y="676" type="line"/>
      <point x="1138" y="676" type="line"/>
      <point x="1138" y="984" type="line"/>
      <point x="111" y="984" type="line"/>
    </contour>
    <contour>
      <point x="625" y="218" type="curve" smooth="yes"/>
      <point x="712" y="218"/>
      <point x="784" y="290"/>
      <point x="784" y="383" type="curve" smooth="yes"/>
      <point x="784" y="475"/>
      <point x="712" y="547"/>
      <point x="625" y="547" type="curve" smooth="yes"/>
      <point x="537" y="547"/>
      <point x="465" y="475"/>
      <point x="465" y="383" type="curve" smooth="yes"/>
      <point x="465" y="290"/>
      <point x="537" y="218"/>
    </contour>
    <contour>
      <point x="625" y="1113" type="curve" smooth="yes"/>
      <point x="712" y="1113"/>
      <point x="784" y="1185"/>
      <point x="784" y="1278" type="curve" smooth="yes"/>
      <point x="784" y="1370"/>
      <point x="712" y="1442"/>
      <point x="625" y="1442" type="curve" smooth="yes"/>
      <point x="537" y="1442"/>
      <point x="465" y="1370"/>
      <point x="465" y="1278" type="curve" smooth="yes"/>
      <point x="465" y="1185"/>
      <point x="537" y="1113"/>
    </contour>
  </outline>
</glyph>
<glyph name="oslash" format="2">
  <advance width="1375"/>
  <unicode hex="00F8"/>
  <outline>
    <component base="o"/>
    <contour>
      <point x="319" y="-32" type="line"/>
      <point x="1211" y="1056" type="line"/>
      <point x="1056" y="1056" type="line"/>
      <point x="164" y="-32" type="line"/>
    </contour>
  </outline>
</glyph>
<glyph name="thorn" format="2">
  <advance width="1459"/>
  <unicode hex="00FE"/>
  <anchor x="738" y="0" name="bottom"/>
  <anchor x="738" y="1024" name="top"/>
  <outline>
    <contour>
      <point x="518" y="512" type="curve" smooth="yes"/>
      <point x="518" y="653"/>
      <point x="618" y="754"/>
      <point x="755" y="754" type="curve" smooth="yes"/>
      <point x="893" y="754"/>
      <point x="994" y="653"/>
      <point x="994" y="512" type="curve" smooth="yes"/>
      <point x="994" y="371"/>
      <point x="893" y="270"/>
      <point x="755" y="270" type="curve" smooth="yes"/>
      <point x="618" y="270"/>
      <point x="518" y="371"/>
    </contour>
    <contour>
      <point x="170" y="1720" type="line"/>
      <point x="170" y="-520" type="line"/>
      <point x="526" y="-520" type="line"/>
      <point x="526" y="110" type="line"/>
      <point x="616" y="17"/>
      <point x="731" y="-32"/>
      <point x="863" y="-32" type="curve" smooth="yes"/>
      <point x="1160" y="-32"/>
      <point x="1370" y="207"/>
      <point x="1370" y="514" type="curve" smooth="yes"/>
      <point x="1370" y="820"/>
      <point x="1160" y="1056"/>
      <point x="863" y="1056" type="curve" smooth="yes"/>
      <point x="731" y="1056"/>
      <point x="616" y="1007"/>
      <point x="526" y="914" type="curve"/>
      <point x="526" y="1720" type="line"/>
    </contour>
  </outline>
</glyph>
<glyph name="dcroat" format="2">
  <advance width="1557"/>
  <unicode hex="0111"/>
  <outline>
    <component base="d"/>
    <contour>
      <point x="683" y="1484" type="line"/>
      <point x="683" y="1256" type="line"/>
      <point x="1407" y="1256" type="line"/>
      <point x="1407" y="1484" type="line"/>
    </contour>
  </outline>
</glyph>
<glyph name="eogonek" format="2">
  <advance width="1280"/>
  <unicode hex="0119"/>
  <anchor x="686" y="0" name="bottom"/>
  <anchor x="714" y="0" name="ogonek"/>
  <anchor x="647" y="1047" name="top"/>
  <anchor x="714" y="0" name="_ogonek"/>
  <outline>
    <contour>
      <point x="666" y="-32" type="curve" smooth="yes"/>
      <point x="740" y="-32"/>
      <point x="809" y="-21"/>
      <point x="872" y="0" type="curve"/>
      <point x="788" y="0" type="line"/>
      <point x="678" y="-124"/>
      <point x="617" y="-241"/>
      <point x="617" y="-332" type="curve" smooth="yes"/>
      <point x="617" y="-456"/>
      <point x="725" y="-557"/>
      <point x="870" y="-557" type="curve" smooth="yes"/>
      <point x="977" y="-557"/>
      <point x="1083" y="-502"/>
      <point x="1144" y="-413" type="curve"/>
      <point x="1000" y="-306" type="line"/>
      <point x="974" y="-344"/>
      <point x="938" y="-366"/>
      <point x="899" y="-366" type="curve" smooth="yes"/>
      <point x="849" y="-366"/>
      <point x="823" y="-331"/>
      <point x="823" y="-279" type="curve" smooth="yes"/>
      <point x="823" y="-178"/>
      <point x="915" y="-9"/>
      <point x="1040" y="87" type="curve" smooth="yes"/>
      <point x="1094" y="128"/>
      <point x="1138" y="177"/>
      <point x="1172" y="235" type="curve"/>
      <point x="916" y="363" type="line"/>
      <point x="841" y="282"/>
      <point x="778" y="250"/>
      <point x="686" y="250" type="curve" smooth="yes"/>
      <point x="538" y="250"/>
      <point x="443" y="334"/>
      <point x="443" y="464" type="curve"/>
      <point x="1188" y="464" type="line"/>
      <point x="1191" y="493"/>
      <point x="1192" y="511"/>
      <point x="1192" y="531" type="curve" smooth="yes"/>
      <point x="1192" y="836"/>
      <point x="969" y="1056"/>
      <point x="656" y="1056" type="curve" smooth="yes"/>
      <point x="329" y="1056"/>
      <point x="76" y="821"/>
      <point x="76" y="512" type="curve" smooth="yes"/>
      <point x="76" y="204"/>
      <point x="329" y="-32"/>
    </contour>
    <contour>
      <point x="454" y="636" type="line"/>
      <point x="458" y="742"/>
      <point x="533" y="809"/>
      <point x="647" y="809" type="curve" smooth="yes"/>
      <point x="757" y="809"/>
      <point x="829" y="746"/>
      <point x="844" y="636" type="curve"/>
    </contour>
  </outline>
</glyph>
<glyph name="Hbar" format="2">
  <advance width="1706"/>
  <unicode hex="0126"/>
  <outline>
    <contour>
      <point x="588" y="0" type="line"/>
      <point x="588" y="612" type="line"/>
      <point x="1118" y="612" type="line"/>
      <point x="1118" y="0" type="line"/>
      <point x="1494" y="0" type="line"/>
      <point x="1494" y="1650" type="line"/>
      <point x="1118" y="1650" type="line"/>
      <point x="1118" y="865" type="line"/>
      <point x="588" y="865" type="line"/>
      <point x="588" y="1650" type="line"/>
      <point x="212" y="1650" type="line"/>
      <point x="212" y="0" type="line"/>
    </contour>
    <contour>
      <point x="1624" y="1065" type="line"/>
      <point x="1624" y="1318" type="line"/>
      <point x="82" y="1318" type="line"/>
      <point x="82" y="1065" type="line"/>
    </contour>
  </outline>
</glyph>
<glyph name="hbar" format="2">
  <advance width="1422"/>
  <unicode hex="0127"/>
  <outline>
    <component base="h"/>
    <contour>
      <point x="751" y="1238" type="line"/>
      <point x="751" y="1452" type="line"/>
      <point x="32" y="1452" type="line"/>
      <point x="32" y="1238" type="line"/>
    </contour>
  </outline>
</glyph>
<glyph name="idotless" format="2">
  <advance width="696"/>
  <unicode hex="0131"/>
  <anchor x="348" y="0" name="bottom"/>
  <anchor x="525" y="0" name="ogonek"/>
  <anchor x="348" y="1024" name="top"/>
  <outline>
    <contour>
      <point x="526" y="0" type="line"/>
      <point x="526" y="1024" type="line"/>
      <point x="170" y="1024" type="line"/>
      <point x="170" y="0" type="line"/>
    </contour>
  </outline>
</glyph>
<glyph name="Lslash" format="2">
  <advance width="1214"/>
  <unicode hex="0141"/>
  <outline>
    <component base="L" xOffset="43"/>
    <contour>
      <point x="841" y="1079" type="line"/>
      <point x="841" y="1385" type="line"/>
      <point x="104" y="806" type="line"/>
      <point x="104" y="500" type="line"/>
    </contour>
  </outline>
</glyph>
<glyph name="lslash" format="2">
  <advance width="1000"/>
  <unicode hex="0142"/>
  <outline>
    <component base="l" xOffset="152"/>
    <contour>
      <point x="830" y="1018" type="line"/>
      <point x="830" y="1326" type="line"/>
      <point x="170" y="808" type="line"/>
      <point x="170" y="501" type="line"/>
    </contour>
  </outline>
</glyph>
<glyph name="Eng" format="2">
  <advance width="1816"/>
  <unicode hex="014A"/>
  <outline>
    <contour>
      <point x="212" y="1650" type="line"/>
      <point x="212" y="0" type="line"/>
      <point x="588" y="0" type="line"/>
      <point x="588" y="1024" type="line"/>
      <point x="1246" y="0" type="line"/>
      <point x="1246" y="-6" type="line" smooth="yes"/>
      <point x="1246" y="-101"/>
      <point x="1179" y="-191"/>
      <point x="1066" y="-191" type="curve" smooth="yes"/>
      <point x="1007" y="-191"/>
      <point x="935" y="-165"/>
      <point x="869" y="-98" type="curve"/>
      <point x="663" y="-326" type="line"/>
      <point x="798" y="-483"/>
      <point x="939" y="-551"/>
      <point x="1129" y="-551" type="curve" smooth="yes"/>
      <point x="1436" y="-551"/>
      <point x="1622" y="-371"/>
      <point x="1622" y="-55" type="curve" smooth="yes"/>
      <point x="1622" y="1650" type="line"/>
      <point x="1246" y="1650" type="line"/>
      <point x="1246" y="625" type="line"/>
      <point x="588" y="1650" type="line"/>
    </contour>
  </outline>
</glyph>
<glyph name="eng" format="2">
  <advance width="1412"/>
  <unicode hex="014B"/>
  <outline>
    <contour>
      <point x="170" y="1024" type="line"/>
      <point x="170" y="0" type="line"/>
      <point x="526" y="0" type="line"/>
      <point x="526" y="568" type="line" smooth="yes"/>
      <point x="526" y="699"/>
      <point x="603" y="779" name=".hr01"/>
      <point x="723" y="779" type="curve" smooth="yes"/>
      <point x="842" y="779"/>
      <point x="917" y="701"/>
      <point x="917" y="575" type="curve" smooth="yes"/>
      <point x="917" y="-91" type="line" smooth="yes"/>
      <point x="917" y="-169"/>
      <point x="885" y="-230"/>
      <point x="811" y="-230" type="curve" smooth="yes"/>
      <point x="784" y="-230"/>
      <point x="755" y="-222"/>
      <point x="730" y="-196" type="curve"/>
      <point x="560" y="-428" type="line"/>
      <point x="631" y="-502"/>
      <point x="753" y="-550"/>
      <point x="888" y="-550" type="curve" smooth="yes"/>
      <point x="1129" y="-550"/>
      <point x="1273" y="-397"/>
      <point x="1273" y="-157" type="curve" smooth="yes"/>
      <point x="1273" y="651" type="line" smooth="yes"/>
      <point x="1273" y="888"/>
      <point x="1102" y="1056"/>
      <point x="868" y="1056" type="curve" smooth="yes"/>
      <point x="735" y="1056"/>
      <point x="611" y="1003"/>
      <point x="526" y="915" type="curve"/>
      <point x="526" y="1024" type="line" name=".hr02"/>
    </contour>
  </outline>
</glyph>
<glyph name="OE" format="2">
  <advance width="2133"/>
  <unicode hex="0152"/>
  <outline>
    <contour>
      <point x="1964" y="0" type="line"/>
      <point x="1964" y="330" type="line"/>
      <point x="1396" y="330" type="line"/>
      <point x="1396" y="662" type="line"/>
      <point x="1940" y="662" type="line"/>
      <point x="1940" y="992" type="line"/>
      <point x="1396" y="992" type="line"/>
      <point x="1396" y="1320" type="line"/>
      <point x="1964" y="1320" type="line"/>
      <point x="1964" y="1650" type="line"/>
      <point x="1092" y="1650" type="line" smooth="yes"/>
      <point x="429" y="1650"/>
      <point x="86" y="1308"/>
      <point x="86" y="825" type="curve" smooth="yes"/>
      <point x="86" y="341"/>
      <point x="429" y="0"/>
      <point x="1092" y="0" type="curve" smooth="yes"/>
    </contour>
    <contour>
      <point x="1020" y="336" type="line"/>
      <point x="694" y="336"/>
      <point x="491" y="523"/>
      <point x="491" y="825" type="curve" smooth="yes"/>
      <point x="491" y="1127"/>
      <point x="697" y="1314"/>
      <point x="1020" y="1314" type="curve"/>
    </contour>
  </outline>
</glyph>
<glyph name="oe" format="2">
  <advance width="2116"/>
  <unicode hex="0153"/>
  <anchor x="1056" y="0" name="bottom"/>
  <anchor x="1056" y="1024" name="top"/>
  <outline>
    <contour>
      <point x="671" y="-32" type="curve" smooth="yes"/>
      <point x="848" y="-32"/>
      <point x="990" y="31"/>
      <point x="1076" y="144" type="curve"/>
      <point x="1186" y="27"/>
      <point x="1320" y="-32"/>
      <point x="1492" y="-32" type="curve" smooth="yes"/>
      <point x="1722" y="-32"/>
      <point x="1906" y="64"/>
      <point x="2007" y="235" type="curve"/>
      <point x="1752" y="363" type="line"/>
      <point x="1676" y="281"/>
      <point x="1615" y="250" name=".hr01"/>
      <point x="1523" y="250" type="curve" smooth="yes"/>
      <point x="1372" y="250"/>
      <point x="1280" y="332"/>
      <point x="1280" y="464" type="curve"/>
      <point x="2025" y="464" type="line"/>
      <point x="2028" y="495"/>
      <point x="2028" y="512"/>
      <point x="2028" y="527" type="curve" smooth="yes"/>
      <point x="2028" y="839"/>
      <point x="1805" y="1056"/>
      <point x="1485" y="1056" type="curve" smooth="yes"/>
      <point x="1321" y="1056"/>
      <point x="1184" y="994"/>
      <point x="1077" y="880" type="curve"/>
      <point x="987" y="994"/>
      <point x="845" y="1056"/>
      <point x="670" y="1056" type="curve" smooth="yes"/>
      <point x="325" y="1056"/>
      <point x="76" y="830"/>
      <point x="76" y="512" type="curve" smooth="yes"/>
      <point x="76" y="193"/>
      <point x="325" y="-32"/>
    </contour>
    <contour>
      <point x="688" y="270" type="curve" smooth="yes"/>
      <point x="551" y="270"/>
      <point x="448" y="373"/>
      <point x="448" y="512" type="curve" smooth="yes"/>
      <point x="448" y="651"/>
      <point x="551" y="754"/>
      <point x="688" y="754" type="curve" smooth="yes"/>
      <point x="825" y="754"/>
      <point x="927" y="651"/>
      <point x="927" y="512" type="curve" smooth="yes"/>
      <point x="927" y="373"/>
      <point x="825" y="270"/>
    </contour>
    <contour>
      <point x="1290" y="652" type="line"/>
      <point x="1296" y="751"/>
      <point x="1372" y="817"/>
      <point x="1487" y="817" type="curve" smooth="yes"/>
      <point x="1596" y="817" name=".hr02"/>
      <point x="1665" y="756"/>
      <point x="1680" y="652" type="curve"/>
    </contour>
  </outline>
</glyph>
<glyph name="Tbar" format="2">
  <advance width="1192"/>
  <unicode hex="0166"/>
  <outline>
    <component base="T"/>
    <contour>
      <point x="982" y="804" type="line"/>
      <point x="982" y="1057" type="line"/>
      <point x="211" y="1057" type="line"/>
      <point x="211" y="804" type="line"/>
    </contour>
  </outline>
</glyph>
<glyph name="tbar" format="2">
  <advance width="897"/>
  <unicode hex="0167"/>
  <outline>
    <contour>
      <point x="553" y="-32" type="curve" smooth="yes"/>
      <point x="648" y="-32"/>
      <point x="756" y="-4"/>
      <point x="833" y="42" type="curve"/>
      <point x="708" y="305" type="line"/>
      <point x="687" y="292"/>
      <point x="664" y="286"/>
      <point x="641" y="286" type="curve" smooth="yes"/>
      <point x="589" y="286"/>
      <point x="562" y="321"/>
      <point x="562" y="387" type="curve" smooth="yes"/>
      <point x="562" y="637" type="line"/>
      <point x="778" y="637" type="line"/>
      <point x="778" y="824" type="line"/>
      <point x="562" y="824" type="line"/>
      <point x="562" y="921" type="line"/>
      <point x="778" y="921" type="line"/>
      <point x="778" y="1108" type="line"/>
      <point x="562" y="1108" type="line"/>
      <point x="562" y="1408" type="line"/>
      <point x="206" y="1408" type="line"/>
      <point x="206" y="1108" type="line"/>
      <point x="59" y="1108" type="line"/>
      <point x="59" y="921" type="line"/>
      <point x="206" y="921" type="line"/>
      <point x="206" y="824" type="line"/>
      <point x="59" y="824" type="line"/>
      <point x="59" y="637" type="line"/>
      <point x="206" y="637" type="line"/>
      <point x="206" y="360" type="line" smooth="yes"/>
      <point x="206" y="114"/>
      <point x="334" y="-32"/>
    </contour>
  </outline>
</glyph>
<glyph name="Uogonek" format="2">
  <advance width="1656"/>
  <unicode hex="0172"/>
  <outline>
    <contour>
      <point x="828" y="-32" type="curve" smooth="yes"/>
      <point x="923" y="-32"/>
      <point x="1009" y="-21"/>
      <point x="1085" y="0" type="curve"/>
      <point x="1014" y="0" type="line"/>
      <point x="904" y="-124"/>
      <point x="844" y="-241"/>
      <point x="844" y="-332" type="curve" smooth="yes"/>
      <point x="844" y="-456"/>
      <point x="951" y="-557"/>
      <point x="1096" y="-557" type="curve" smooth="yes"/>
      <point x="1203" y="-557"/>
      <point x="1309" y="-502"/>
      <point x="1370" y="-413" type="curve"/>
      <point x="1226" y="-305" type="line"/>
      <point x="1201" y="-343"/>
      <point x="1164" y="-365"/>
      <point x="1126" y="-365" type="curve" smooth="yes"/>
      <point x="1076" y="-365"/>
      <point x="1049" y="-331"/>
      <point x="1049" y="-278" type="curve" smooth="yes"/>
      <point x="1049" y="-177"/>
      <point x="1143" y="-8"/>
      <point x="1268" y="88" type="curve"/>
      <point x="1404" y="190"/>
      <point x="1473" y="355"/>
      <point x="1473" y="583" type="curve" smooth="yes"/>
      <point x="1473" y="1650" type="line"/>
      <point x="1097" y="1650" type="line"/>
      <point x="1097" y="694" type="line" smooth="yes"/>
      <point x="1097" y="433"/>
      <point x="1023" y="337"/>
      <point x="828" y="337" type="curve" smooth="yes"/>
      <point x="633" y="337"/>
      <point x="559" y="433"/>
      <point x="559" y="694" type="curve" smooth="yes"/>
      <point x="559" y="1650" type="line"/>
      <point x="183" y="1650" type="line"/>
      <point x="183" y="583" type="line" smooth="yes"/>
      <point x="183" y="177"/>
      <point x="403" y="-32"/>
    </contour>
  </outline>
</glyph>
<glyph name="uogonek" format="2">
  <advance width="1399"/>
  <unicode hex="0173"/>
  <outline>
    <contour>
      <point x="700" y="-32" type="curve" smooth="yes"/>
      <point x="798" y="-32"/>
      <point x="880" y="-21"/>
      <point x="952" y="0" type="curve"/>
      <point x="864" y="0" type="line"/>
      <point x="754" y="-124"/>
      <point x="694" y="-238"/>
      <point x="694" y="-331" type="curve" smooth="yes"/>
      <point x="694" y="-456"/>
      <point x="801" y="-557"/>
      <point x="946" y="-557" type="curve" smooth="yes"/>
      <point x="1054" y="-557"/>
      <point x="1160" y="-502"/>
      <point x="1221" y="-413" type="curve"/>
      <point x="1076" y="-305" type="line"/>
      <point x="1051" y="-343"/>
      <point x="1014" y="-365"/>
      <point x="976" y="-365" type="curve" smooth="yes"/>
      <point x="926" y="-365"/>
      <point x="899" y="-331"/>
      <point x="899" y="-277" type="curve" smooth="yes"/>
      <point x="899" y="-178"/>
      <point x="987" y="-19"/>
      <point x="1104" y="77" type="curve" smooth="yes"/>
      <point x="1207" y="161"/>
      <point x="1256" y="292"/>
      <point x="1256" y="475" type="curve" smooth="yes"/>
      <point x="1256" y="1024" type="line"/>
      <point x="900" y="1024" type="line"/>
      <point x="900" y="562" type="line" smooth="yes"/>
      <point x="900" y="350"/>
      <point x="845" y="256"/>
      <point x="700" y="256" type="curve" smooth="yes"/>
      <point x="555" y="256"/>
      <point x="500" y="350"/>
      <point x="500" y="562" type="curve" smooth="yes"/>
      <point x="500" y="1024" type="line"/>
      <point x="144" y="1024" type="line"/>
      <point x="144" y="475" type="line" smooth="yes"/>
      <point x="144" y="134"/>
      <point x="314" y="-32"/>
    </contour>
  </outline>
</glyph>
<glyph name="florin" format="2">
  <advance width="956"/>
  <unicode hex="0192"/>
  <outline>
    <contour>
      <point x="95" y="-551" type="curve" smooth="yes"/>
      <point x="344" y="-551"/>
      <point x="518" y="-355"/>
      <point x="546" y="-44" type="curve" smooth="yes"/>
      <point x="619" y="754" type="line"/>
      <point x="854" y="754" type="line"/>
      <point x="878" y="1024" type="line"/>
      <point x="643" y="1024" type="line"/>
      <point x="663" y="1234" type="line" smooth="yes"/>
      <point x="677" y="1385"/>
      <point x="710" y="1435"/>
      <point x="793" y="1435" type="curve" smooth="yes"/>
      <point x="828" y="1435"/>
      <point x="867" y="1426"/>
      <point x="893" y="1409" type="curve"/>
      <point x="1040" y="1657" type="line"/>
      <point x="972" y="1715"/>
      <point x="865" y="1750"/>
      <point x="758" y="1750" type="curve" smooth="yes"/>
      <point x="511" y="1750"/>
      <point x="338" y="1554"/>
      <point x="308" y="1244" type="curve" smooth="yes"/>
      <point x="287" y="1024" type="line"/>
      <point x="140" y="1024" type="line"/>
      <point x="115" y="754" type="line"/>
      <point x="263" y="754" type="line"/>
      <point x="191" y="-35" type="line" smooth="yes"/>
      <point x="177" y="-186"/>
      <point x="144" y="-236"/>
      <point x="61" y="-236" type="curve" smooth="yes"/>
      <point x="26" y="-236"/>
      <point x="-13" y="-227"/>
      <point x="-40" y="-210" type="curve"/>
      <point x="-186" y="-458" type="line"/>
      <point x="-118" y="-516"/>
      <point x="-11" y="-551"/>
    </contour>
  </outline>
</glyph>
<glyph name="gravecomb" format="2">
  <advance width="577"/>
  <unicode hex="0300"/>
  <anchor x="373" y="1024" name="_top"/>
  <anchor x="288" y="1675" name="top"/>
  <outline>
    <contour>
      <point x="579" y="1301" type="line"/>
      <point x="151" y="1647" type="line"/>
      <point x="-1" y="1398" type="line"/>
      <point x="471" y="1144" type="line"/>
    </contour>
  </outline>
</glyph>
<glyph name="acutecomb" format="2">
  <advance width="537"/>
  <unicode hex="0301"/>
  <anchor x="204" y="1024" name="_top"/>
  <anchor x="215" y="1695" name="top"/>
  <outline>
    <contour>
      <point x="-43" y="1301" type="line"/>
      <point x="65" y="1144" type="line"/>
      <point x="534" y="1396" type="line"/>
      <point x="385" y="1647" type="line"/>
    </contour>
  </outline>
</glyph>
<glyph name="circumflexcomb" format="2">
  <advance width="882"/>
  <unicode hex="0302"/>
  <anchor x="441" y="1024" name="_top"/>
  <anchor x="441" y="1680" name="top"/>
  <outline>
    <contour>
      <point x="441" y="1398" type="line"/>
      <point x="747" y="1174" type="line"/>
      <point x="882" y="1356" type="line"/>
      <point x="441" y="1680" type="line"/>
      <point x="0" y="1356" type="line"/>
      <point x="135" y="1174" type="line"/>
    </contour>
  </outline>
</glyph>
<glyph name="tildecomb" format="2">
  <advance width="1094"/>
  <unicode hex="0303"/>
  <anchor x="547" y="1024" name="_top"/>
  <anchor x="547" y="1573" name="top"/>
  <outline>
    <contour>
      <point x="0" y="1314" type="curve"/>
      <point x="184" y="1194" type="line"/>
      <point x="223" y="1267"/>
      <point x="276" y="1307"/>
      <point x="348" y="1307" type="curve" smooth="yes"/>
      <point x="493" y="1307"/>
      <point x="576" y="1144"/>
      <point x="760" y="1144" type="curve" smooth="yes"/>
      <point x="895" y="1144"/>
      <point x="1009" y="1230"/>
      <point x="1094" y="1403" type="curve"/>
      <point x="910" y="1523" type="line"/>
      <point x="871" y="1450"/>
      <point x="818" y="1410"/>
      <point x="746" y="1410" type="curve" smooth="yes"/>
      <point x="601" y="1410"/>
      <point x="518" y="1573"/>
      <point x="334" y="1573" type="curve" smooth="yes"/>
      <point x="199" y="1573"/>
      <point x="85" y="1487"/>
    </contour>
  </outline>
</glyph>
<glyph name="macroncomb" format="2">
  <advance width="816"/>
  <unicode hex="0304"/>
  <anchor x="408" y="1024" name="_top"/>
  <anchor x="408" y="1508" name="top"/>
  <outline>
    <contour>
      <point x="816" y="1268" type="line"/>
      <point x="816" y="1509" type="line"/>
      <point x="0" y="1509" type="line"/>
      <point x="0" y="1268" type="line"/>
    </contour>
  </outline>
</glyph>
<glyph name="brevecomb" format="2">
  <advance width="922"/>
  <unicode hex="0306"/>
  <anchor x="461" y="1024" name="_top"/>
  <anchor x="461" y="1680" name="top"/>
  <outline>
    <contour>
      <point x="461" y="1255" type="curve" smooth="yes"/>
      <point x="719" y="1255"/>
      <point x="897" y="1404"/>
      <point x="922" y="1618" type="curve"/>
      <point x="671" y="1680" type="line"/>
      <point x="661" y="1579"/>
      <point x="601" y="1474"/>
      <point x="461" y="1474" type="curve" smooth="yes"/>
      <point x="321" y="1474"/>
      <point x="261" y="1579"/>
      <point x="251" y="1680" type="curve"/>
      <point x="0" y="1618" type="line"/>
      <point x="25" y="1404"/>
      <point x="203" y="1255"/>
    </contour>
  </outline>
</glyph>
<glyph name="dotaccentcomb" format="2">
  <advance width="417"/>
  <unicode hex="0307"/>
  <anchor x="208" y="1024" name="_top"/>
  <anchor x="208" y="1691" name="top"/>
  <outline>
    <contour>
      <point x="208" y="1273" type="curve" smooth="yes"/>
      <point x="323" y="1273"/>
      <point x="417" y="1367"/>
      <point x="417" y="1482" type="curve" smooth="yes"/>
      <point x="417" y="1597"/>
      <point x="323" y="1691"/>
      <point x="208" y="1691" type="curve" smooth="yes"/>
      <point x="93" y="1691"/>
      <point x="-1" y="1597"/>
      <point x="-1" y="1482" type="curve" smooth="yes"/>
      <point x="-1" y="1367"/>
      <point x="93" y="1273"/>
    </contour>
  </outline>
</glyph>
<glyph name="dieresiscomb" format="2">
  <advance width="840"/>
  <unicode hex="0308"/>
  <anchor x="420" y="1024" name="_top"/>
  <anchor x="420" y="1582" name="top"/>
  <outline>
    <contour>
      <point x="655" y="1213" type="curve" smooth="yes"/>
      <point x="757" y="1213"/>
      <point x="840" y="1296"/>
      <point x="840" y="1398" type="curve" smooth="yes"/>
      <point x="840" y="1500"/>
      <point x="757" y="1583"/>
      <point x="655" y="1583" type="curve" smooth="yes"/>
      <point x="553" y="1583"/>
      <point x="470" y="1500"/>
      <point x="470" y="1398" type="curve" smooth="yes"/>
      <point x="470" y="1296"/>
      <point x="553" y="1213"/>
    </contour>
    <contour>
      <point x="185" y="1213" type="curve" smooth="yes"/>
      <point x="287" y="1213"/>
      <point x="370" y="1296"/>
      <point x="370" y="1398" type="curve" smooth="yes"/>
      <point x="370" y="1500"/>
      <point x="287" y="1583"/>
      <point x="185" y="1583" type="curve" smooth="yes"/>
      <point x="83" y="1583"/>
      <point x="0" y="1500"/>
      <point x="0" y="1398" type="curve" smooth="yes"/>
      <point x="0" y="1296"/>
      <point x="83" y="1213"/>
    </contour>
  </outline>
</glyph>
<glyph name="ringcomb" format="2">
  <advance width="644"/>
  <unicode hex="030A"/>
  <anchor x="322" y="1024" name="_top"/>
  <anchor x="322" y="1749" name="top"/>
  <outline>
    <contour>
      <point x="322" y="1183" type="curve" smooth="yes"/>
      <point x="502" y="1183"/>
      <point x="644" y="1299"/>
      <point x="644" y="1466" type="curve" smooth="yes"/>
      <point x="644" y="1633"/>
      <point x="502" y="1749"/>
      <point x="322" y="1749" type="curve" smooth="yes"/>
      <point x="142" y="1749"/>
      <point x="0" y="1633"/>
      <point x="0" y="1466" type="curve" smooth="yes"/>
      <point x="0" y="1299"/>
      <point x="142" y="1183"/>
    </contour>
    <contour>
      <point x="322" y="1343" type="curve" smooth="yes"/>
      <point x="256" y="1343"/>
      <point x="200" y="1398"/>
      <point x="200" y="1466" type="curve" smooth="yes"/>
      <point x="200" y="1534"/>
      <point x="256" y="1589"/>
      <point x="322" y="1589" type="curve" smooth="yes"/>
      <point x="388" y="1589"/>
      <point x="444" y="1534"/>
      <point x="444" y="1466" type="curve" smooth="yes"/>
      <point x="444" y="1398"/>
      <point x="388" y="1343"/>
    </contour>
  </outline>
</glyph>
<glyph name="hungarumlautcomb" format="2">
  <advance width="1120"/>
  <unicode hex="030B"/>
  <anchor x="468" y="1024" name="_top"/>
  <anchor x="468" y="1680" name="top"/>
  <outline>
    <contour>
      <point x="1120" y="1449" type="line"/>
      <point x="910" y="1680" type="line"/>
      <point x="549" y="1328" type="line"/>
      <point x="678" y="1175" type="line"/>
    </contour>
    <contour>
      <point x="571" y="1449" type="line"/>
      <point x="362" y="1680" type="line"/>
      <point x="0" y="1328" type="line"/>
      <point x="131" y="1175" type="line"/>
    </contour>
  </outline>
</glyph>
<glyph name="caroncomb" format="2">
  <advance width="882"/>
  <unicode hex="030C"/>
  <anchor x="441" y="1024" name="_top"/>
  <anchor x="441" y="1680" name="top"/>
  <outline>
    <contour>
      <point x="882" y="1475" type="line"/>
      <point x="747" y="1657" type="line"/>
      <point x="441" y="1433" type="line"/>
      <point x="135" y="1657" type="line"/>
      <point x="0" y="1475" type="line"/>
      <point x="441" y="1150" type="line"/>
    </contour>
  </outline>
</glyph>
<glyph name="commaaccentcomb" format="2">
  <advance width="765"/>
  <unicode hex="0326"/>
  <anchor x="392" y="0" name="_bottom"/>
  <anchor x="392" y="-745" name="bottom"/>
  <outline>
    <contour>
      <point x="335" y="-530" type="line"/>
      <point x="444" y="-441"/>
      <point x="509" y="-330"/>
      <point x="509" y="-234" type="curve" smooth="yes"/>
      <point x="509" y="-150"/>
      <point x="460" y="-106"/>
      <point x="392" y="-106" type="curve" smooth="yes"/>
      <point x="321" y="-106"/>
      <point x="273" y="-154"/>
      <point x="273" y="-221" type="curve" smooth="yes"/>
      <point x="273" y="-278"/>
      <point x="308" y="-319"/>
      <point x="363" y="-332" type="curve"/>
      <point x="355" y="-383"/>
      <point x="316" y="-458"/>
      <point x="284" y="-488" type="curve"/>
    </contour>
  </outline>
</glyph>
<glyph name="cedillacomb" format="2">
  <advance width="576"/>
  <unicode hex="0327"/>
  <anchor x="374" y="11" name="_cedilla"/>
  <anchor x="272" y="-581" name="bottom"/>
  <outline>
    <contour>
      <point x="228" y="11" type="line"/>
      <point x="152" y="-224" type="line"/>
      <point x="171" y="-240" type="line"/>
      <point x="186" y="-231"/>
      <point x="226" y="-224"/>
      <point x="262" y="-224" type="curve" smooth="yes"/>
      <point x="335" y="-224"/>
      <point x="385" y="-256"/>
      <point x="385" y="-304" type="curve" smooth="yes"/>
      <point x="385" y="-348"/>
      <point x="348" y="-378"/>
      <point x="293" y="-378" type="curve" smooth="yes"/>
      <point x="236" y="-378"/>
      <point x="180" y="-347"/>
      <point x="135" y="-290" type="curve"/>
      <point x="0" y="-391" type="line"/>
      <point x="87" y="-496"/>
      <point x="186" y="-548"/>
      <point x="301" y="-548" type="curve" smooth="yes"/>
      <point x="462" y="-548"/>
      <point x="576" y="-450"/>
      <point x="576" y="-312" type="curve" smooth="yes"/>
      <point x="576" y="-181"/>
      <point x="458" y="-115"/>
      <point x="341" y="-115" type="curve" smooth="yes"/>
      <point x="322" y="-115"/>
      <point x="305" y="-116"/>
      <point x="289" y="-121" type="curve"/>
      <point x="323" y="-142" type="line"/>
      <point x="374" y="11" type="line"/>
    </contour>
  </outline>
</glyph>
<glyph name="ogonekcomb" format="2">
  <advance width="526"/>
  <unicode hex="0328"/>
  <anchor x="333" y="11" name="_ogonek"/>
  <outline>
    <contour>
      <point x="252" y="-547" type="curve" smooth="yes"/>
      <point x="359" y="-547"/>
      <point x="465" y="-492"/>
      <point x="526" y="-403" type="curve"/>
      <point x="382" y="-295" type="line"/>
      <point x="356" y="-333"/>
      <point x="320" y="-355"/>
      <point x="282" y="-355" type="curve" smooth="yes"/>
      <point x="232" y="-355"/>
      <point x="205" y="-320"/>
      <point x="205" y="-268" type="curve" smooth="yes"/>
      <point x="205" y="-193"/>
      <point x="256" y="-82"/>
      <point x="333" y="11" type="curve"/>
      <point x="170" y="11" type="line"/>
      <point x="60" y="-114"/>
      <point x="0" y="-231"/>
      <point x="0" y="-322" type="curve" smooth="yes"/>
      <point x="0" y="-446"/>
      <point x="108" y="-547"/>
    </contour>
  </outline>
</glyph>
<glyph name="Delta" format="2">
  <advance width="1365"/>
  <unicode hex="0394"/>
  <outline>
    <contour>
      <point x="637" y="1650" type="line"/>
      <point x="-9" y="0" type="line"/>
      <point x="1373" y="0" type="line"/>
      <point x="727" y="1650" type="line"/>
    </contour>
    <contour>
      <point x="605" y="1415" type="line"/>
      <point x="1005" y="238" type="line"/>
      <point x="358" y="238" type="line"/>
      <point x="759" y="1415" type="line"/>
    </contour>
  </outline>
</glyph>
<glyph name="Omega" format="2">
  <advance width="1733"/>
  <unicode hex="03A9"/>
  <outline>
    <contour>
      <point x="867" y="1680" type="curve" smooth="yes"/>
      <point x="412" y="1680"/>
      <point x="86" y="1352"/>
      <point x="86" y="905" type="curve" smooth="yes"/>
      <point x="86" y="536"/>
      <point x="311" y="295"/>
      <point x="525" y="209" type="curve"/>
      <point x="145" y="248" type="line"/>
      <point x="145" y="0" type="line"/>
      <point x="822" y="0" type="line"/>
      <point x="822" y="144" type="line"/>
      <point x="804" y="160" type="line"/>
      <point x="615" y="311"/>
      <point x="428" y="586"/>
      <point x="428" y="864" type="curve" smooth="yes"/>
      <point x="428" y="1085"/>
      <point x="549" y="1375"/>
      <point x="867" y="1375" type="curve" smooth="yes"/>
      <point x="1186" y="1375"/>
      <point x="1306" y="1085"/>
      <point x="1306" y="864" type="curve" smooth="yes"/>
      <point x="1306" y="586"/>
      <point x="1119" y="311"/>
      <point x="931" y="160" type="curve" smooth="yes"/>
      <point x="912" y="144" type="line"/>
      <point x="912" y="0" type="line"/>
      <point x="1589" y="0" type="line"/>
      <point x="1589" y="248" type="line"/>
      <point x="1210" y="209" type="line"/>
      <point x="1424" y="295"/>
      <point x="1648" y="536"/>
      <point x="1648" y="905" type="curve" smooth="yes"/>
      <point x="1648" y="1352"/>
      <point x="1322" y="1680"/>
    </contour>
  </outline>
</glyph>
<glyph name="mu" format="2">
  <advance width="1590"/>
  <unicode hex="03BC"/>
  <outline>
    <contour>
      <point x="624" y="-320" type="line"/>
      <point x="624" y="-3" type="line"/>
      <point x="644" y="-21"/>
      <point x="676" y="-32"/>
      <point x="718" y="-32" type="curve" smooth="yes"/>
      <point x="830" y="-32"/>
      <point x="949" y="26"/>
      <point x="1016" y="106" type="curve"/>
      <point x="1016" y="0" type="line"/>
      <point x="1372" y="0" type="line"/>
      <point x="1372" y="1024" type="line"/>
      <point x="1016" y="1024" type="line"/>
      <point x="1016" y="444" type="line" smooth="yes"/>
      <point x="1016" y="343"/>
      <point x="928" y="245"/>
      <point x="808" y="245" type="curve" smooth="yes"/>
      <point x="691" y="245"/>
      <point x="625" y="328"/>
      <point x="625" y="444" type="curve" smooth="yes"/>
      <point x="625" y="1024" type="line"/>
      <point x="269" y="1024" type="line"/>
      <point x="269" y="418" type="line" smooth="yes"/>
      <point x="269" y="82"/>
      <point x="209" y="-94"/>
      <point x="209" y="-320" type="curve"/>
    </contour>
  </outline>
</glyph>
<glyph name="pi" format="2">
  <advance width="1373"/>
  <unicode hex="03C0"/>
  <outline>
    <contour>
      <point x="603" y="0" type="line"/>
      <point x="603" y="775" type="line"/>
      <point x="792" y="775" type="line"/>
      <point x="792" y="311" type="line" smooth="yes"/>
      <point x="792" y="84"/>
      <point x="897" y="0"/>
      <point x="1179" y="0" type="curve"/>
      <point x="1179" y="271" type="line"/>
      <point x="1089" y="271"/>
      <point x="1063" y="294"/>
      <point x="1063" y="372" type="curve" smooth="yes"/>
      <point x="1063" y="775" type="line"/>
      <point x="1224" y="775" type="line"/>
      <point x="1224" y="1024" type="line"/>
      <point x="170" y="1024" type="line"/>
      <point x="170" y="775" type="line"/>
      <point x="332" y="775" type="line"/>
      <point x="332" y="0" type="line"/>
    </contour>
  </outline>
</glyph>
<glyph name="Germandbls" format="2">
  <advance width="1715"/>
  <unicode hex="1E9E"/>
  <outline>
    <contour>
      <point x="1115" y="-24" type="curve" smooth="yes"/>
      <point x="1386" y="-24"/>
      <point x="1624" y="137"/>
      <point x="1624" y="425" type="curve" smooth="yes"/>
      <point x="1624" y="766"/>
      <point x="1287" y="762"/>
      <point x="1287" y="850" type="curve" smooth="yes"/>
      <point x="1287" y="910"/>
      <point x="1441" y="944" name=".hr01"/>
      <point x="1441" y="1196" type="curve" smooth="yes"/>
      <point x="1441" y="1511"/>
      <point x="1194" y="1681"/>
      <point x="871" y="1681" type="curve" smooth="yes"/>
      <point x="457" y="1681"/>
      <point x="212" y="1411"/>
      <point x="212" y="927" type="curve" smooth="yes"/>
      <point x="212" y="1" type="line"/>
      <point x="590" y="1" type="line"/>
      <point x="590" y="965" type="line" smooth="yes"/>
      <point x="590" y="1199"/>
      <point x="675" y="1318"/>
      <point x="843" y="1318" type="curve" smooth="yes"/>
      <point x="964" y="1318"/>
      <point x="1061" y="1257"/>
      <point x="1061" y="1122" type="curve" smooth="yes"/>
      <point x="1061" y="940"/>
      <point x="883" y="936"/>
      <point x="883" y="790" type="curve" smooth="yes"/>
      <point x="883" y="579"/>
      <point x="1257" y="635" name=".hr02"/>
      <point x="1257" y="459" type="curve" smooth="yes"/>
      <point x="1257" y="382"/>
      <point x="1194" y="338"/>
      <point x="1091" y="338" type="curve" smooth="yes"/>
      <point x="1011" y="338"/>
      <point x="931" y="361"/>
      <point x="823" y="410" type="curve"/>
      <point x="707" y="69" type="line"/>
      <point x="846" y="10"/>
      <point x="1000" y="-24"/>
    </contour>
  </outline>
</glyph>
<glyph name="endash" format="2">
  <advance width="1419"/>
  <unicode hex="2013"/>
  <outline>
    <contour>
      <point x="1249" y="426" type="line"/>
      <point x="1249" y="732" type="line"/>
      <point x="170" y="732" type="line"/>
      <point x="170" y="426" type="line"/>
    </contour>
  </outline>
</glyph>
<glyph name="quotesinglbase" format="2">
  <advance width="765"/>
  <unicode hex="201A"/>
  <outline>
    <contour>
      <point x="242" y="-318" type="line"/>
      <point x="436" y="-160"/>
      <point x="549" y="28"/>
      <point x="549" y="185" type="curve" smooth="yes"/>
      <point x="549" y="322"/>
      <point x="462" y="410"/>
      <point x="343" y="410" type="curve" smooth="yes"/>
      <point x="223" y="410"/>
      <point x="132" y="321"/>
      <point x="132" y="204" type="curve" smooth="yes"/>
      <point x="132" y="110"/>
      <point x="190" y="36"/>
      <point x="288" y="12" type="curve"/>
      <point x="273" y="-68"/>
      <point x="203" y="-197"/>
      <point x="151" y="-243" type="curve"/>
    </contour>
  </outline>
</glyph>
<glyph name="daggerdbl" format="2">
  <advance width="1119"/>
  <unicode hex="2021"/>
  <outline>
    <contour>
      <point x="713" y="0" type="line"/>
      <point x="713" y="459" type="line"/>
      <point x="962" y="459" type="line"/>
      <point x="962" y="733" type="line"/>
      <point x="713" y="733" type="line"/>
      <point x="713" y="988" type="line"/>
      <point x="962" y="988" type="line"/>
      <point x="962" y="1260" type="line"/>
      <point x="713" y="1260" type="line"/>
      <point x="713" y="1720" type="line"/>
      <point x="406" y="1720" type="line"/>
      <point x="406" y="1260" type="line"/>
      <point x="158" y="1260" type="line"/>
      <point x="158" y="988" type="line"/>
      <point x="406" y="988" type="line"/>
      <point x="406" y="733" type="line"/>
      <point x="158" y="733" type="line"/>
      <point x="158" y="459" type="line"/>
      <point x="406" y="459" type="line"/>
      <point x="406" y="0" type="line"/>
    </contour>
  </outline>
</glyph>
<glyph name="bullet" format="2">
  <advance width="1082"/>
  <unicode hex="2022"/>
  <outline>
    <contour>
      <point x="540" y="323" type="curve" smooth="yes"/>
      <point x="758" y="323"/>
      <point x="931" y="495"/>
      <point x="931" y="714" type="curve" smooth="yes"/>
      <point x="931" y="933"/>
      <point x="758" y="1105"/>
      <point x="540" y="1105" type="curve" smooth="yes"/>
      <point x="321" y="1105"/>
      <point x="148" y="933"/>
      <point x="148" y="714" type="curve" smooth="yes"/>
      <point x="148" y="495"/>
      <point x="321" y="323"/>
    </contour>
  </outline>
</glyph>
<glyph name="perthousand" format="2">
  <advance width="2981"/>
  <unicode hex="2030"/>
  <outline>
    <component base="percent"/>
    <contour>
      <point x="2467" y="-32" type="curve" smooth="yes"/>
      <point x="2719" y="-32"/>
      <point x="2912" y="130"/>
      <point x="2912" y="362" type="curve" smooth="yes"/>
      <point x="2912" y="594"/>
      <point x="2719" y="756"/>
      <point x="2467" y="756" type="curve" smooth="yes"/>
      <point x="2214" y="756"/>
      <point x="2021" y="594"/>
      <point x="2021" y="362" type="curve" smooth="yes"/>
      <point x="2021" y="130"/>
      <point x="2214" y="-32"/>
    </contour>
    <contour>
      <point x="2467" y="180" type="curve" smooth="yes"/>
      <point x="2366" y="180"/>
      <point x="2282" y="255"/>
      <point x="2282" y="362" type="curve" smooth="yes"/>
      <point x="2282" y="469"/>
      <point x="2366" y="544"/>
      <point x="2467" y="544" type="curve" smooth="yes"/>
      <point x="2567" y="544"/>
      <point x="2651" y="469"/>
      <point x="2651" y="362" type="curve" smooth="yes"/>
      <point x="2651" y="255"/>
      <point x="2567" y="180"/>
    </contour>
  </outline>
</glyph>
<glyph name="guilsinglleft" format="2">
  <advance width="730"/>
  <unicode hex="2039"/>
  <outline>
    <contour>
      <point x="640" y="204" type="line"/>
      <point x="363" y="558" type="line"/>
      <point x="640" y="911" type="line"/>
      <point x="454" y="1058" type="line"/>
      <point x="64" y="558" type="line"/>
      <point x="454" y="58" type="line"/>
    </contour>
  </outline>
</glyph>
<glyph name="guilsinglright" format="2">
  <advance width="727"/>
  <unicode hex="203A"/>
  <outline>
    <contour>
      <point x="663" y="558" type="line"/>
      <point x="273" y="1058" type="line"/>
      <point x="87" y="911" type="line"/>
      <point x="364" y="558" type="line"/>
      <point x="87" y="204" type="line"/>
      <point x="273" y="58" type="line"/>
    </contour>
  </outline>
</glyph>
<glyph name="fraction" format="2">
  <advance width="395"/>
  <unicode hex="2044"/>
  <outline>
    <contour>
      <point x="-182" y="0" type="line"/>
      <point x="812" y="1650" type="line"/>
      <point x="576" y="1650" type="line"/>
      <point x="-417" y="0" type="line"/>
    </contour>
  </outline>
</glyph>
<glyph name="foursuperior" format="2">
  <advance width="852"/>
  <unicode hex="2074"/>
  <outline>
    <contour>
      <point x="632" y="1040" type="line"/>
      <point x="632" y="1146" type="line"/>
      <point x="711" y="1146" type="line"/>
      <point x="711" y="1294" type="line"/>
      <point x="632" y="1294" type="line"/>
      <point x="632" y="1650" type="line"/>
      <point x="466" y="1650" type="line"/>
      <point x="137" y="1194" type="line"/>
      <point x="137" y="1146" type="line"/>
      <point x="474" y="1146" type="line"/>
      <point x="474" y="1040" type="line"/>
    </contour>
    <contour>
      <point x="474" y="1452" type="line"/>
      <point x="474" y="1294" type="line"/>
      <point x="367" y="1294" type="line"/>
    </contour>
  </outline>
</glyph>
<glyph name="euro" format="2">
  <advance width="1821"/>
  <unicode hex="20AC"/>
  <outline>
    <component base="C" xOffset="224"/>
    <contour>
      <point x="129" y="1101" type="line"/>
      <point x="129" y="885" type="line"/>
      <point x="1375" y="885" type="line"/>
      <point x="1375" y="1101" type="line"/>
    </contour>
    <contour>
      <point x="129" y="761" type="line"/>
      <point x="129" y="545" type="line"/>
      <point x="1375" y="545" type="line"/>
      <point x="1375" y="761" type="line"/>
    </contour>
  </outline>
</glyph>
<glyph name="arrowleft" format="2">
  <advance width="2020"/>
  <unicode hex="2190"/>
  <outline>
    <contour>
      <point x="403" y="1013" type="line"/>
      <point x="403" y="637" type="line"/>
      <point x="1850" y="637" type="line"/>
      <point x="1850" y="1013" type="line"/>
    </contour>
    <contour>
      <point x="170" y="825" type="line"/>
      <point x="995" y="0" type="line"/>
      <point x="1523" y="0" type="line"/>
      <point x="628" y="844" type="line"/>
      <point x="628" y="806" type="line"/>
      <point x="1523" y="1650" type="line"/>
      <point x="995" y="1650" type="line"/>
    </contour>
  </outline>
</glyph>
<glyph name="arrowup" format="2">
  <advance width="1990"/>
  <unicode hex="2191"/>
  <outline>
    <contour>
      <point x="1183" y="1447" type="line"/>
      <point x="807" y="1447" type="line"/>
      <point x="807" y="0" type="line"/>
      <point x="1183" y="0" type="line"/>
    </contour>
    <contour>
      <point x="995" y="1680" type="line"/>
      <point x="170" y="855" type="line"/>
      <point x="170" y="327" type="line"/>
      <point x="1014" y="1222" type="line"/>
      <point x="976" y="1222" type="line"/>
      <point x="1820" y="327" type="line"/>
      <point x="1820" y="855" type="line"/>
    </contour>
  </outline>
</glyph>
<glyph name="arrowboth" format="2">
  <advance width="2753"/>
  <unicode hex="2194"/>
  <outline>
    <contour>
      <point x="400" y="1013" type="line"/>
      <point x="400" y="637" type="line"/>
      <point x="2369" y="637" type="line"/>
      <point x="2369" y="1013" type="line"/>
    </contour>
    <contour>
      <point x="737" y="1650" type="line"/>
      <point x="170" y="825" type="line"/>
      <point x="737" y="0" type="line"/>
      <point x="1212" y="0" type="line"/>
      <point x="611" y="844" type="line"/>
      <point x="611" y="806" type="line"/>
      <point x="1212" y="1650" type="line"/>
    </contour>
    <contour>
      <point x="1541" y="1650" type="line"/>
      <point x="2143" y="806" type="line"/>
      <point x="2143" y="844" type="line"/>
      <point x="1541" y="0" type="line"/>
      <point x="2017" y="0" type="line"/>
      <point x="2583" y="825" type="line"/>
      <point x="2017" y="1650" type="line"/>
    </contour>
  </outline>
</glyph>
<glyph name="arrowupdn" format="2">
  <advance width="1470"/>
  <unicode hex="2195"/>
  <outline>
    <contour>
      <point x="923" y="1447" type="line"/>
      <point x="547" y="1447" type="line"/>
      <point x="547" y="213" type="line"/>
      <point x="923" y="213" type="line"/>
    </contour>
    <contour>
      <point x="735" y="1680" type="line"/>
      <point x="170" y="1283" type="line"/>
      <point x="170" y="906" type="line"/>
      <point x="754" y="1324" type="line"/>
      <point x="716" y="1324" type="line"/>
      <point x="1300" y="906" type="line"/>
      <point x="1300" y="1283" type="line"/>
    </contour>
    <contour>
      <point x="170" y="744" type="line"/>
      <point x="170" y="367" type="line"/>
      <point x="735" y="-30" type="line"/>
      <point x="1300" y="367" type="line"/>
      <point x="1300" y="744" type="line"/>
      <point x="716" y="326" type="line"/>
      <point x="754" y="326" type="line"/>
    </contour>
  </outline>
</glyph>
<glyph name="arrowNW" format="2">
  <advance width="1929"/>
  <unicode hex="2196"/>
  <outline>
    <contour>
      <point x="468" y="1619" type="line"/>
      <point x="202" y="1352" type="line"/>
      <point x="1400" y="154" type="line"/>
      <point x="1667" y="420" type="line"/>
    </contour>
    <contour>
      <point x="170" y="1650" type="line"/>
      <point x="170" y="434" type="line"/>
      <point x="543" y="61" type="line"/>
      <point x="507" y="1340" type="line"/>
      <point x="480" y="1313" type="line"/>
      <point x="1759" y="1277" type="line"/>
      <point x="1387" y="1650" type="line"/>
    </contour>
  </outline>
</glyph>
<glyph name="arrowNE" format="2">
  <advance width="1929"/>
  <unicode hex="2197"/>
  <outline>
    <contour>
      <point x="1728" y="1352" type="line"/>
      <point x="1461" y="1618" type="line"/>
      <point x="263" y="420" type="line"/>
      <point x="529" y="153" type="line"/>
    </contour>
    <contour>
      <point x="1759" y="1650" type="line"/>
      <point x="543" y="1650" type="line"/>
      <point x="170" y="1277" type="line"/>
      <point x="1449" y="1313" type="line"/>
      <point x="1422" y="1340" type="line"/>
      <point x="1386" y="61" type="line"/>
      <point x="1759" y="433" type="line"/>
    </contour>
  </outline>
</glyph>
<glyph name="arrowSE" format="2">
  <advance width="1929"/>
  <unicode hex="2198"/>
  <outline>
    <contour>
      <point x="1461" y="31" type="line"/>
      <point x="1727" y="298" type="line"/>
      <point x="529" y="1496" type="line"/>
      <point x="262" y="1230" type="line"/>
    </contour>
    <contour>
      <point x="1759" y="0" type="line"/>
      <point x="1759" y="1216" type="line"/>
      <point x="1386" y="1589" type="line"/>
      <point x="1422" y="310" type="line"/>
      <point x="1449" y="337" type="line"/>
      <point x="170" y="373" type="line"/>
      <point x="542" y="0" type="line"/>
    </contour>
  </outline>
</glyph>
<glyph name="arrowSW" format="2">
  <advance width="1929"/>
  <unicode hex="2199"/>
  <outline>
    <contour>
      <point x="201" y="298" type="line"/>
      <point x="468" y="32" type="line"/>
      <point x="1666" y="1230" type="line"/>
      <point x="1400" y="1497" type="line"/>
    </contour>
    <contour>
      <point x="170" y="0" type="line"/>
      <point x="1386" y="0" type="line"/>
      <point x="1759" y="373" type="line"/>
      <point x="480" y="337" type="line"/>
      <point x="507" y="310" type="line"/>
      <point x="543" y="1589" type="line"/>
      <point x="170" y="1217" type="line"/>
    </contour>
  </outline>
</glyph>
<glyph name="partialdiff" format="2">
  <advance width="1478"/>
  <unicode hex="2202"/>
  <outline>
    <contour>
      <point x="765" y="-37" type="curve" smooth="yes"/>
      <point x="1114" y="-37"/>
      <point x="1366" y="192"/>
      <point x="1366" y="648" type="curve" smooth="yes"/>
      <point x="1366" y="1167"/>
      <point x="1037" y="1581"/>
      <point x="563" y="1840" type="curve"/>
      <point x="408" y="1579" type="line"/>
      <point x="654" y="1439"/>
      <point x="860" y="1235"/>
      <point x="941" y="998" type="curve"/>
      <point x="898" y="1047"/>
      <point x="794" y="1083"/>
      <point x="686" y="1083" type="curve" smooth="yes"/>
      <point x="372" y="1083"/>
      <point x="117" y="839"/>
      <point x="117" y="535" type="curve" smooth="yes"/>
      <point x="117" y="212"/>
      <point x="402" y="-37"/>
    </contour>
    <contour>
      <point x="734" y="275" type="curve" smooth="yes"/>
      <point x="606" y="275"/>
      <point x="492" y="368"/>
      <point x="492" y="510" type="curve" smooth="yes"/>
      <point x="492" y="640"/>
      <point x="587" y="758"/>
      <point x="731" y="758" type="curve" smooth="yes"/>
      <point x="859" y="758"/>
      <point x="971" y="662"/>
      <point x="971" y="521" type="curve" smooth="yes"/>
      <point x="971" y="391"/>
      <point x="877" y="275"/>
    </contour>
  </outline>
</glyph>
<glyph name="emptyset" format="2">
  <advance width="1200"/>
  <unicode hex="2205"/>
  <outline>
    <contour>
      <point x="1150" y="1022" type="line"/>
      <point x="1030" y="1143" type="line"/>
      <point x="87" y="199" type="line"/>
      <point x="208" y="78" type="line"/>
    </contour>
    <contour>
      <point x="619" y="136" type="curve" smooth="yes"/>
      <point x="883" y="136"/>
      <point x="1091" y="338"/>
      <point x="1091" y="611" type="curve" smooth="yes"/>
      <point x="1091" y="882"/>
      <point x="885" y="1085"/>
      <point x="620" y="1085" type="curve" smooth="yes"/>
      <point x="351" y="1085"/>
      <point x="147" y="877"/>
      <point x="147" y="610" type="curve" smooth="yes"/>
      <point x="147" y="343"/>
      <point x="351" y="136"/>
    </contour>
    <contour>
      <point x="619" y="368" type="curve" smooth="yes"/>
      <point x="475" y="368"/>
      <point x="372" y="463"/>
      <point x="372" y="611" type="curve" smooth="yes"/>
      <point x="372" y="758"/>
      <point x="475" y="853"/>
      <point x="619" y="853" type="curve" smooth="yes"/>
      <point x="764" y="853"/>
      <point x="867" y="758"/>
      <point x="867" y="611" type="curve" smooth="yes"/>
      <point x="867" y="463"/>
      <point x="764" y="368"/>
    </contour>
  </outline>
</glyph>
<glyph name="product" format="2">
  <advance width="1776"/>
  <unicode hex="220F"/>
  <outline>
    <contour>
      <point x="645" y="0" type="line"/>
      <point x="645" y="1471" type="line"/>
      <point x="1131" y="1471" type="line"/>
      <point x="1131" y="0" type="line"/>
      <point x="1401" y="0" type="line"/>
      <point x="1401" y="1471" type="line"/>
      <point x="1563" y="1471" type="line"/>
      <point x="1563" y="1720" type="line"/>
      <point x="212" y="1720" type="line"/>
      <point x="212" y="1471" type="line"/>
      <point x="374" y="1471" type="line"/>
      <point x="374" y="0" type="line"/>
    </contour>
  </outline>
</glyph>
<glyph name="summation" format="2">
  <advance width="1610"/>
  <unicode hex="2211"/>
  <outline>
    <contour>
      <point x="1397" y="0" type="line"/>
      <point x="1397" y="249" type="line"/>
      <point x="663" y="249" type="line"/>
      <point x="1088" y="860" type="line"/>
      <point x="663" y="1471" type="line"/>
      <point x="1397" y="1471" type="line"/>
      <point x="1397" y="1720" type="line"/>
      <point x="212" y="1720" type="line"/>
      <point x="813" y="860" type="line"/>
      <point x="212" y="0" type="line"/>
    </contour>
  </outline>
</glyph>
<glyph name="minus" format="2">
  <advance width="1536"/>
  <unicode hex="2212"/>
  <outline>
    <contour>
      <point x="1282" y="676" type="line"/>
      <point x="1282" y="984" type="line"/>
      <point x="254" y="984" type="line"/>
      <point x="254" y="676" type="line"/>
    </contour>
  </outline>
</glyph>
<glyph name="DivisionSlash" format="2">
  <advance width="1006"/>
  <unicode hex="2215"/>
  <outline>
    <contour>
      <point x="244" y="-240" type="line"/>
      <point x="1068" y="1720" type="line"/>
      <point x="763" y="1720" type="line"/>
      <point x="-61" y="-240" type="line"/>
    </contour>
  </outline>
</glyph>
<glyph name="radical" format="2">
  <advance width="1837"/>
  <unicode hex="221A"/>
  <outline>
    <contour>
      <point x="823" y="-32" type="line"/>
      <point x="1206" y="1471" type="line"/>
      <point x="1624" y="1471" type="line"/>
      <point x="1624" y="1720" type="line"/>
      <point x="991" y="1720" type="line"/>
      <point x="645" y="252" type="line"/>
      <point x="483" y="609" type="line"/>
      <point x="212" y="609" type="line"/>
      <point x="494" y="-32" type="line"/>
    </contour>
  </outline>
</glyph>
<glyph name="infinity" format="2">
  <advance width="2099"/>
  <unicode hex="221E"/>
  <outline>
    <contour>
      <point x="566" y="46" type="curve" smooth="yes"/>
      <point x="749" y="46"/>
      <point x="899" y="162"/>
      <point x="1049" y="328" type="curve"/>
      <point x="1199" y="162"/>
      <point x="1349" y="46"/>
      <point x="1532" y="46" type="curve" smooth="yes"/>
      <point x="1780" y="46"/>
      <point x="2022" y="254"/>
      <point x="2022" y="545" type="curve" smooth="yes"/>
      <point x="2022" y="836"/>
      <point x="1779" y="1043"/>
      <point x="1532" y="1043" type="curve" smooth="yes"/>
      <point x="1349" y="1043"/>
      <point x="1199" y="927"/>
      <point x="1049" y="762" type="curve"/>
      <point x="899" y="927"/>
      <point x="749" y="1043"/>
      <point x="566" y="1043" type="curve" smooth="yes"/>
      <point x="320" y="1043"/>
      <point x="76" y="836"/>
      <point x="76" y="545" type="curve" smooth="yes"/>
      <point x="76" y="254"/>
      <point x="318" y="46"/>
    </contour>
    <contour>
      <point x="613" y="356" type="curve" smooth="yes"/>
      <point x="521" y="356"/>
      <point x="429" y="433"/>
      <point x="429" y="545" type="curve" smooth="yes"/>
      <point x="429" y="656"/>
      <point x="522" y="733"/>
      <point x="613" y="733" type="curve" smooth="yes"/>
      <point x="709" y="733"/>
      <point x="779" y="649"/>
      <point x="868" y="545" type="curve"/>
      <point x="778" y="440"/>
      <point x="709" y="356"/>
    </contour>
    <contour>
      <point x="1485" y="356" type="curve" smooth="yes"/>
      <point x="1389" y="356"/>
      <point x="1320" y="440"/>
      <point x="1230" y="545" type="curve"/>
      <point x="1319" y="649"/>
      <point x="1389" y="733"/>
      <point x="1485" y="733" type="curve" smooth="yes"/>
      <point x="1576" y="733"/>
      <point x="1669" y="656"/>
      <point x="1669" y="545" type="curve" smooth="yes"/>
      <point x="1669" y="433"/>
      <point x="1577" y="356"/>
    </contour>
  </outline>
</glyph>
<glyph name="integral" format="2">
  <advance width="956"/>
  <unicode hex="222B"/>
  <outline>
    <contour>
      <point x="96" y="-551" type="curve" smooth="yes"/>
      <point x="345" y="-551"/>
      <point x="518" y="-356"/>
      <point x="546" y="-45" type="curve" smooth="yes"/>
      <point x="663" y="1234" type="line"/>
      <point x="675" y="1385"/>
      <point x="711" y="1435"/>
      <point x="793" y="1435" type="curve" smooth="yes"/>
      <point x="830" y="1435"/>
      <point x="868" y="1425"/>
      <point x="894" y="1409" type="curve"/>
      <point x="1040" y="1657" type="line"/>
      <point x="972" y="1715"/>
      <point x="864" y="1750"/>
      <point x="757" y="1750" type="curve" smooth="yes"/>
      <point x="508" y="1750"/>
      <point x="336" y="1555"/>
      <point x="308" y="1244" type="curve" smooth="yes"/>
      <point x="191" y="-35" type="line"/>
      <point x="178" y="-186"/>
      <point x="142" y="-236"/>
      <point x="61" y="-236" type="curve" smooth="yes"/>
      <point x="23" y="-236"/>
      <point x="-14" y="-226"/>
      <point x="-41" y="-210" type="curve"/>
      <point x="-186" y="-458" type="line"/>
      <point x="-118" y="-516"/>
      <point x="-10" y="-551"/>
    </contour>
  </outline>
</glyph>
<glyph name="notequal" format="2">
  <advance width="1443"/>
  <unicode hex="2260"/>
  <outline>
    <component base="equal" xOffset="-40"/>
    <contour>
      <point x="402" y="139" type="line"/>
      <point x="1198" y="1511" type="line"/>
      <point x="961" y="1511" type="line"/>
      <point x="166" y="139" type="line"/>
    </contour>
  </outline>
</glyph>
<glyph name="lessequal" format="2">
  <advance width="1453"/>
  <unicode hex="2264"/>
  <outline>
    <contour>
      <point x="1242" y="809" type="line"/>
      <point x="525" y="1085" type="line"/>
      <point x="1242" y="1366" type="line"/>
      <point x="1242" y="1651" type="line"/>
      <point x="146" y="1206" type="line"/>
      <point x="146" y="970" type="line"/>
      <point x="1242" y="527" type="line"/>
    </contour>
    <contour>
      <point x="1242" y="32" type="line"/>
      <point x="1242" y="340" type="line"/>
      <point x="146" y="340" type="line"/>
      <point x="146" y="32" type="line"/>
    </contour>
  </outline>
</glyph>
<glyph name="greaterequal" format="2">
  <advance width="1453"/>
  <unicode hex="2265"/>
  <outline>
    <contour>
      <point x="1307" y="970" type="line"/>
      <point x="1307" y="1206" type="line"/>
      <point x="211" y="1651" type="line"/>
      <point x="211" y="1366" type="line"/>
      <point x="928" y="1085" type="line"/>
      <point x="211" y="809" type="line"/>
      <point x="211" y="527" type="line"/>
    </contour>
    <contour>
      <point x="1307" y="32" type="line"/>
      <point x="1307" y="340" type="line"/>
      <point x="211" y="340" type="line"/>
      <point x="211" y="32" type="line"/>
    </contour>
  </outline>
</glyph>
<glyph name="lozenge" format="2">
  <advance width="1200"/>
  <unicode hex="25CA"/>
  <outline>
    <contour>
      <point x="705" y="-80" type="line"/>
      <point x="1125" y="795" type="line"/>
      <point x="705" y="1670" type="line"/>
      <point x="495" y="1670" type="line"/>
      <point x="75" y="795" type="line"/>
      <point x="495" y="-80" type="line"/>
    </contour>
    <contour>
      <point x="372" y="795" type="line"/>
      <point x="600" y="1270" type="line"/>
      <point x="828" y="795" type="line"/>
      <point x="600" y="320" type="line"/>
    </contour>
  </outline>
</glyph>
<glyph name="f_f" format="2">
  <advance width="1603"/>
  <unicode hex="FB00"/>
  <anchor x="740" y="0" name="caret_1"/>
  <outline>
    <contour>
      <point x="554" y="0" type="line"/>
      <point x="554" y="754" type="line"/>
      <point x="908" y="754" type="line"/>
      <point x="908" y="0" type="line"/>
      <point x="1264" y="0" type="line"/>
      <point x="1264" y="754" type="line"/>
      <point x="1499" y="754" type="line"/>
      <point x="1499" y="1024" type="line"/>
      <point x="1264" y="1024" type="line"/>
      <point x="1264" y="1234" type="line" smooth="yes"/>
      <point x="1264" y="1376"/>
      <point x="1283" y="1435"/>
      <point x="1374" y="1435" type="curve" smooth="yes"/>
      <point x="1419" y="1435"/>
      <point x="1457" y="1422"/>
      <point x="1480" y="1409" type="curve"/>
      <point x="1603" y="1657" type="line"/>
      <point x="1549" y="1700"/>
      <point x="1446" y="1750"/>
      <point x="1311" y="1750" type="curve" smooth="yes"/>
      <point x="1055" y="1750"/>
      <point x="908" y="1544"/>
      <point x="908" y="1244" type="curve" smooth="yes"/>
      <point x="908" y="1024" type="line"/>
      <point x="554" y="1024" type="line"/>
      <point x="554" y="1234" type="line" smooth="yes"/>
      <point x="554" y="1376"/>
      <point x="573" y="1435"/>
      <point x="664" y="1435" type="curve" smooth="yes"/>
      <point x="708" y="1435"/>
      <point x="748" y="1420"/>
      <point x="769" y="1408" type="curve"/>
      <point x="893" y="1658" type="line"/>
      <point x="836" y="1701"/>
      <point x="733" y="1750"/>
      <point x="602" y="1750" type="curve" smooth="yes"/>
      <point x="346" y="1750"/>
      <point x="198" y="1544"/>
      <point x="198" y="1244" type="curve" smooth="yes"/>
      <point x="198" y="1024" type="line"/>
      <point x="51" y="1024" type="line"/>
      <point x="51" y="754" type="line"/>
      <point x="198" y="754" type="line"/>
      <point x="198" y="0" type="line"/>
    </contour>
  </outline>
</glyph>
<glyph name="fi" format="2">
  <advance width="1386"/>
  <unicode hex="FB01"/>
  <anchor x="708" y="0" name="caret_1"/>
  <outline>
    <contour>
      <point x="577" y="0" type="line"/>
      <point x="577" y="754" type="line"/>
      <point x="910" y="754" type="line"/>
      <point x="910" y="0" type="line"/>
      <point x="1266" y="0" type="line"/>
      <point x="1266" y="1024" type="line"/>
      <point x="577" y="1024" type="line"/>
      <point x="577" y="1234" type="line" smooth="yes"/>
      <point x="577" y="1376"/>
      <point x="615" y="1438"/>
      <point x="734" y="1438" type="curve" smooth="yes"/>
      <point x="822" y="1438"/>
      <point x="923" y="1385"/>
      <point x="983" y="1335" type="curve"/>
      <point x="1106" y="1584" type="line"/>
      <point x="1014" y="1663"/>
      <point x="839" y="1750"/>
      <point x="626" y="1750" type="curve" smooth="yes"/>
      <point x="370" y="1750"/>
      <point x="221" y="1544"/>
      <point x="221" y="1244" type="curve" smooth="yes"/>
      <point x="221" y="1024" type="line"/>
      <point x="74" y="1024" type="line"/>
      <point x="74" y="754" type="line"/>
      <point x="221" y="754" type="line"/>
      <point x="221" y="0" type="line"/>
    </contour>
  </outline>
</glyph>
<glyph name="fl" format="2">
  <advance width="1419"/>
  <unicode hex="FB02"/>
  <anchor x="689" y="0" name="caret_1"/>
  <outline>
    <contour>
      <point x="552" y="0" type="line"/>
      <point x="552" y="754" type="line"/>
      <point x="787" y="754" type="line"/>
      <point x="787" y="1024" type="line"/>
      <point x="552" y="1024" type="line"/>
      <point x="552" y="1234" type="line" smooth="yes"/>
      <point x="552" y="1376"/>
      <point x="572" y="1435"/>
      <point x="662" y="1435" type="curve" smooth="yes"/>
      <point x="689" y="1435"/>
      <point x="716" y="1430"/>
      <point x="743" y="1419" type="curve"/>
      <point x="822" y="1700" type="line"/>
      <point x="781" y="1723"/>
      <point x="702" y="1750"/>
      <point x="600" y="1750" type="curve" smooth="yes"/>
      <point x="344" y="1750"/>
      <point x="196" y="1544"/>
      <point x="196" y="1244" type="curve" smooth="yes"/>
      <point x="196" y="1024" type="line"/>
      <point x="49" y="1024" type="line"/>
      <point x="49" y="754" type="line"/>
      <point x="196" y="754" type="line"/>
      <point x="196" y="0" type="line"/>
    </contour>
    <contour>
      <point x="1242" y="0" type="line"/>
      <point x="1242" y="1720" type="line" name=".hr01"/>
      <point x="887" y="1720" type="line"/>
      <point x="887" y="0" type="line"/>
    </contour>
  </outline>
</glyph>
<glyph name="f_f_i" format="2">
  <advance width="2113"/>
  <unicode hex="FB03"/>
  <anchor x="700" y="0" name="caret_1"/>
  <anchor x="1401" y="0" name="caret_2"/>
  <outline>
    <contour>
      <point x="585" y="0" type="line"/>
      <point x="585" y="754" type="line"/>
      <point x="940" y="754" type="line"/>
      <point x="940" y="0" type="line"/>
      <point x="1296" y="0" type="line"/>
      <point x="1296" y="754" type="line"/>
      <point x="1629" y="754" type="line"/>
      <point x="1629" y="0" type="line"/>
      <point x="1985" y="0" type="line"/>
      <point x="1985" y="1024" type="line"/>
      <point x="1296" y="1024" type="line"/>
      <point x="1296" y="1234" type="line" smooth="yes"/>
      <point x="1296" y="1376"/>
      <point x="1334" y="1438"/>
      <point x="1453" y="1438" type="curve" smooth="yes"/>
      <point x="1542" y="1438"/>
      <point x="1642" y="1385"/>
      <point x="1702" y="1335" type="curve"/>
      <point x="1825" y="1584" type="line"/>
      <point x="1733" y="1663"/>
      <point x="1559" y="1750"/>
      <point x="1346" y="1750" type="curve" smooth="yes"/>
      <point x="1090" y="1750"/>
      <point x="940" y="1544"/>
      <point x="940" y="1244" type="curve" smooth="yes"/>
      <point x="940" y="1024" type="line"/>
      <point x="585" y="1024" type="line"/>
      <point x="585" y="1234" type="line" smooth="yes"/>
      <point x="585" y="1376"/>
      <point x="604" y="1435"/>
      <point x="695" y="1435" type="curve" smooth="yes"/>
      <point x="739" y="1435"/>
      <point x="779" y="1420"/>
      <point x="799" y="1408" type="curve"/>
      <point x="924" y="1658" type="line"/>
      <point x="867" y="1701"/>
      <point x="764" y="1750"/>
      <point x="632" y="1750" type="curve" smooth="yes"/>
      <point x="376" y="1750"/>
      <point x="229" y="1544"/>
      <point x="229" y="1244" type="curve" smooth="yes"/>
      <point x="229" y="1024" type="line"/>
      <point x="82" y="1024" type="line"/>
      <point x="82" y="754" type="line"/>
      <point x="229" y="754" type="line"/>
      <point x="229" y="0" type="line"/>
    </contour>
  </outline>
</glyph>
<glyph name="f_f_l" format="2">
  <advance width="2129"/>
  <unicode hex="FB04"/>
  <anchor x="671" y="0" name="caret_1"/>
  <anchor x="1376" y="0" name="caret_2"/>
  <outline>
    <contour>
      <point x="552" y="0" type="line"/>
      <point x="552" y="754" type="line"/>
      <point x="906" y="754" type="line"/>
      <point x="906" y="0" type="line"/>
      <point x="1262" y="0" type="line"/>
      <point x="1262" y="754" type="line"/>
      <point x="1497" y="754" type="line"/>
      <point x="1497" y="1024" type="line"/>
      <point x="1262" y="1024" type="line"/>
      <point x="1262" y="1234" type="line" smooth="yes"/>
      <point x="1262" y="1376"/>
      <point x="1282" y="1435"/>
      <point x="1372" y="1435" type="curve" smooth="yes"/>
      <point x="1399" y="1435"/>
      <point x="1426" y="1430"/>
      <point x="1453" y="1419" type="curve"/>
      <point x="1532" y="1700" type="line"/>
      <point x="1491" y="1723"/>
      <point x="1412" y="1750"/>
      <point x="1310" y="1750" type="curve" smooth="yes"/>
      <point x="1054" y="1750"/>
      <point x="906" y="1544"/>
      <point x="906" y="1244" type="curve" smooth="yes"/>
      <point x="906" y="1024" type="line"/>
      <point x="552" y="1024" type="line"/>
      <point x="552" y="1234" type="line" smooth="yes"/>
      <point x="552" y="1376"/>
      <point x="572" y="1435"/>
      <point x="662" y="1435" type="curve" smooth="yes"/>
      <point x="706" y="1435"/>
      <point x="746" y="1420"/>
      <point x="767" y="1408" type="curve"/>
      <point x="891" y="1658" type="line"/>
      <point x="835" y="1701"/>
      <point x="731" y="1750"/>
      <point x="600" y="1750" type="curve" smooth="yes"/>
      <point x="344" y="1750"/>
      <point x="196" y="1544"/>
      <point x="196" y="1244" type="curve" smooth="yes"/>
      <point x="196" y="1024" type="line"/>
      <point x="49" y="1024" type="line"/>
      <point x="49" y="754" type="line"/>
      <point x="196" y="754" type="line"/>
      <point x="196" y="0" type="line"/>
    </contour>
    <contour>
      <point x="1952" y="0" type="line"/>
      <point x="1952" y="1720" type="line" name=".hr01"/>
      <point x="1596" y="1720" type="line"/>
      <point x="1596" y="0" type="line"/>
    </contour>
  </outline>
</glyph>
<glyph name="A.tnum" format="2">
  <advance width="1500"/>
  <anchor x="749" y="0" name="bottom"/>
  <anchor x="1591" y="0" name="ogonek"/>
  <anchor x="749" y="1650" name="top"/>
  <outline>
    <contour>
      <point x="313" y="0" type="line"/>
      <point x="435" y="330" type="line"/>
      <point x="1063" y="330" type="line"/>
      <point x="1185" y="0" type="line"/>
      <point x="1591" y="0" type="line"/>
      <point x="923" y="1650" type="line"/>
      <point x="574" y="1650" type="line"/>
      <point x="-93" y="0" type="line"/>
    </contour>
    <contour>
      <point x="749" y="1140" type="line"/>
      <point x="935" y="660" type="line"/>
      <point x="563" y="660" type="line"/>
    </contour>
  </outline>
</glyph>
<glyph name="M.ss01" format="2">
  <advance width="2110"/>
  <anchor x="1055" y="22" name="bottom"/>
  <anchor x="1055" y="1650" name="top"/>
  <outline>
    <contour>
      <point x="516" y="0" type="line"/>
      <point x="594" y="978" type="line"/>
      <point x="942" y="22" type="line"/>
      <point x="1168" y="22" type="line"/>
      <point x="1516" y="978" type="line"/>
      <point x="1594" y="0" type="line"/>
      <point x="1970" y="0" type="line"/>
      <point x="1821" y="1650" type="line"/>
      <point x="1421" y="1650" type="line"/>
      <point x="1055" y="698" type="line"/>
      <point x="689" y="1650" type="line"/>
      <point x="289" y="1650" type="line"/>
      <point x="140" y="0" type="line"/>
    </contour>
  </outline>
</glyph>
<glyph name="P.tnum" format="2">
  <advance width="1500"/>
  <outline>
    <contour>
      <point x="622" y="0" type="line"/>
      <point x="622" y="612" type="line"/>
      <point x="848" y="612" type="line" smooth="yes"/>
      <point x="1169" y="612"/>
      <point x="1411" y="790"/>
      <point x="1411" y="1131" type="curve" smooth="yes"/>
      <point x="1411" y="1472"/>
      <point x="1169" y="1650"/>
      <point x="848" y="1650" type="curve" smooth="yes"/>
      <point x="246" y="1650" type="line"/>
      <point x="246" y="0" type="line"/>
    </contour>
    <contour>
      <point x="622" y="1350" type="line"/>
      <point x="728" y="1350" type="line" smooth="yes"/>
      <point x="875" y="1350"/>
      <point x="1016" y="1300"/>
      <point x="1016" y="1131" type="curve" smooth="yes"/>
      <point x="1016" y="963"/>
      <point x="875" y="912"/>
      <point x="728" y="912" type="curve" smooth="yes"/>
      <point x="622" y="912" type="line"/>
    </contour>
  </outline>
</glyph>
<glyph name="a.ss01" format="2">
  <advance width="1458"/>
  <anchor x="595" y="-7" name="bottom"/>
  <anchor x="1288" y="0" name="ogonek"/>
  <anchor x="699" y="1024" name="top"/>
  <outline>
    <contour>
      <point x="464" y="512" type="curve" smooth="yes"/>
      <point x="464" y="652"/>
      <point x="565" y="754"/>
      <point x="703" y="754" type="curve" smooth="yes"/>
      <point x="840" y="754"/>
      <point x="940" y="653"/>
      <point x="940" y="512" type="curve" smooth="yes"/>
      <point x="940" y="372"/>
      <point x="840" y="270"/>
      <point x="703" y="270" type="curve" smooth="yes"/>
      <point x="565" y="270"/>
      <point x="464" y="372"/>
    </contour>
    <contour>
      <point x="89" y="514" type="curve" smooth="yes"/>
      <point x="89" y="207"/>
      <point x="298" y="-32"/>
      <point x="595" y="-32" type="curve" smooth="yes"/>
      <point x="727" y="-32"/>
      <point x="841" y="17"/>
      <point x="932" y="111" type="curve"/>
      <point x="932" y="0" type="line"/>
      <point x="1288" y="0" type="line" name=".hr01"/>
      <point x="1288" y="1024" type="line"/>
      <point x="932" y="1024" type="line"/>
      <point x="932" y="913" type="line"/>
      <point x="841" y="1007"/>
      <point x="727" y="1056"/>
      <point x="595" y="1056" type="curve" smooth="yes" name=".hr02"/>
      <point x="298" y="1056"/>
      <point x="89" y="820"/>
    </contour>
  </outline>
</glyph>
<glyph name="eight.pnum" format="2">
  <advance width="1423"/>
  <outline>
    <contour>
      <point x="711" y="-32" type="curve" smooth="yes"/>
      <point x="1054" y="-32"/>
      <point x="1329" y="173"/>
      <point x="1329" y="460" type="curve" smooth="yes"/>
      <point x="1329" y="648"/>
      <point x="1214" y="814"/>
      <point x="1040" y="890" type="curve"/>
      <point x="1173" y="963"/>
      <point x="1258" y="1100" name=".hr01"/>
      <point x="1258" y="1250" type="curve" smooth="yes"/>
      <point x="1258" y="1530"/>
      <point x="966" y="1680"/>
      <point x="711" y="1680" type="curve" smooth="yes"/>
      <point x="412" y="1680"/>
      <point x="164" y="1499"/>
      <point x="164" y="1249" type="curve" smooth="yes"/>
      <point x="164" y="1105"/>
      <point x="245" y="966"/>
      <point x="382" y="890" type="curve"/>
      <point x="212" y="816"/>
      <point x="94" y="651" name=".hr02"/>
      <point x="94" y="461" type="curve" smooth="yes"/>
      <point x="94" y="172"/>
      <point x="368" y="-32"/>
    </contour>
    <contour>
      <point x="711" y="293" type="curve" smooth="yes"/>
      <point x="587" y="293"/>
      <point x="505" y="382"/>
      <point x="505" y="502" type="curve" smooth="yes"/>
      <point x="505" y="627"/>
      <point x="593" y="714"/>
      <point x="711" y="714" type="curve" smooth="yes"/>
      <point x="831" y="714"/>
      <point x="917" y="625"/>
      <point x="917" y="502" type="curve" smooth="yes"/>
      <point x="917" y="383"/>
      <point x="836" y="293"/>
    </contour>
    <contour>
      <point x="711" y="1026" type="curve" smooth="yes"/>
      <point x="605" y="1026"/>
      <point x="526" y="1105"/>
      <point x="526" y="1211" type="curve" smooth="yes"/>
      <point x="526" y="1316" name=".hr03"/>
      <point x="606" y="1395"/>
      <point x="711" y="1395" type="curve" smooth="yes"/>
      <point x="817" y="1395"/>
      <point x="896" y="1316"/>
      <point x="896" y="1211" type="curve" smooth="yes"/>
      <point x="896" y="1105"/>
      <point x="818" y="1026"/>
    </contour>
  </outline>
</glyph>
<glyph name="f_f_j" format="2">
  <advance width="2010"/>
  <outline>
    <contour>
      <point x="1542" y="-550" type="curve" smooth="yes"/>
      <point x="1824" y="-550"/>
      <point x="1912" y="-341"/>
      <point x="1912" y="-157" type="curve" smooth="yes"/>
      <point x="1912" y="1024" type="line"/>
      <point x="1224" y="1024" type="line"/>
      <point x="1224" y="1234" type="line" smooth="yes"/>
      <point x="1224" y="1376"/>
      <point x="1261" y="1438"/>
      <point x="1380" y="1438" type="curve" smooth="yes"/>
      <point x="1470" y="1438"/>
      <point x="1570" y="1385"/>
      <point x="1630" y="1335" type="curve"/>
      <point x="1752" y="1584" type="line"/>
      <point x="1661" y="1663"/>
      <point x="1487" y="1750"/>
      <point x="1273" y="1750" type="curve" smooth="yes"/>
      <point x="1017" y="1750"/>
      <point x="868" y="1544"/>
      <point x="868" y="1244" type="curve" smooth="yes"/>
      <point x="868" y="1024" type="line"/>
      <point x="512" y="1024" type="line"/>
      <point x="512" y="1234" type="line" smooth="yes"/>
      <point x="512" y="1376"/>
      <point x="532" y="1435"/>
      <point x="623" y="1435" type="curve" smooth="yes"/>
      <point x="667" y="1435"/>
      <point x="706" y="1420"/>
      <point x="727" y="1408" type="curve"/>
      <point x="851" y="1658" type="line"/>
      <point x="795" y="1701"/>
      <point x="692" y="1750"/>
      <point x="561" y="1750" type="curve" smooth="yes"/>
      <point x="304" y="1750"/>
      <point x="157" y="1544"/>
      <point x="157" y="1244" type="curve" smooth="yes"/>
      <point x="157" y="1024" type="line"/>
      <point x="9" y="1024" type="line"/>
      <point x="9" y="754" type="line"/>
      <point x="157" y="754" type="line"/>
      <point x="157" y="0" type="line"/>
      <point x="512" y="0" type="line"/>
      <point x="512" y="754" type="line"/>
      <point x="868" y="754" type="line"/>
      <point x="868" y="0" type="line"/>
      <point x="1224" y="0" type="line"/>
      <point x="1224" y="754" type="line"/>
      <point x="1557" y="754" type="line"/>
      <point x="1557" y="-91" type="line" smooth="yes"/>
      <point x="1557" y="-186"/>
      <point x="1521" y="-230"/>
      <point x="1460" y="-230" type="curve" smooth="yes"/>
      <point x="1427" y="-230"/>
      <point x="1390" y="-214"/>
      <point x="1370" y="-200" type="curve"/>
      <point x="1261" y="-486" type="line"/>
      <point x="1306" y="-514"/>
      <point x="1403" y="-550"/>
    </contour>
  </outline>
</glyph>
<glyph name="f_f_t" format="2">
  <advance width="2308"/>
  <outline>
    <contour>
      <point x="1981" y="-32" type="curve" smooth="yes"/>
      <point x="2087" y="-32"/>
      <point x="2185" y="2"/>
      <point x="2242" y="33" type="curve"/>
      <point x="2153" y="319" type="line"/>
      <point x="2133" y="304"/>
      <point x="2101" y="286"/>
      <point x="2068" y="286" type="curve" smooth="yes"/>
      <point x="2012" y="286"/>
      <point x="1987" y="332"/>
      <point x="1987" y="429" type="curve" smooth="yes"/>
      <point x="1987" y="754" type="line"/>
      <point x="2202" y="754" type="line"/>
      <point x="2202" y="1024" type="line"/>
      <point x="1987" y="1024" type="line"/>
      <point x="1987" y="1408" type="line"/>
      <point x="1631" y="1408" type="line"/>
      <point x="1631" y="1024" type="line"/>
      <point x="1296" y="1024" type="line"/>
      <point x="1296" y="1234" type="line" smooth="yes"/>
      <point x="1296" y="1376"/>
      <point x="1316" y="1435"/>
      <point x="1407" y="1435" type="curve" smooth="yes"/>
      <point x="1449" y="1435"/>
      <point x="1485" y="1423"/>
      <point x="1508" y="1411" type="curve"/>
      <point x="1632" y="1660" type="line"/>
      <point x="1577" y="1702"/>
      <point x="1475" y="1750"/>
      <point x="1344" y="1750" type="curve" smooth="yes"/>
      <point x="1088" y="1750"/>
      <point x="940" y="1544"/>
      <point x="940" y="1244" type="curve" smooth="yes"/>
      <point x="940" y="1024" type="line"/>
      <point x="586" y="1024" type="line"/>
      <point x="586" y="1234" type="line" smooth="yes"/>
      <point x="586" y="1376"/>
      <point x="606" y="1435"/>
      <point x="697" y="1435" type="curve" smooth="yes"/>
      <point x="741" y="1435"/>
      <point x="780" y="1420"/>
      <point x="801" y="1408" type="curve"/>
      <point x="925" y="1658" type="line"/>
      <point x="869" y="1701"/>
      <point x="766" y="1750"/>
      <point x="635" y="1750" type="curve" smooth="yes"/>
      <point x="378" y="1750"/>
      <point x="231" y="1544"/>
      <point x="231" y="1244" type="curve" smooth="yes"/>
      <point x="231" y="1024" type="line"/>
      <point x="83" y="1024" type="line"/>
      <point x="83" y="754" type="line"/>
      <point x="231" y="754" type="line"/>
      <point x="231" y="0" type="line" name=".hr01"/>
      <point x="586" y="0" type="line"/>
      <point x="586" y="754" type="line"/>
      <point x="940" y="754" type="line"/>
      <point x="940" y="0" type="line"/>
      <point x="1296" y="0" type="line"/>
      <point x="1296" y="754" type="line"/>
      <point x="1631" y="754" type="line"/>
      <point x="1631" y="360" type="line" smooth="yes"/>
      <point x="1631" y="178"/>
      <point x="1698" y="-32" name=".hr02"/>
    </contour>
  </outline>
</glyph>
<glyph name="f_j" format="2">
  <advance width="1297"/>
  <outline>
    <contour>
      <point x="830" y="-550" type="curve" smooth="yes"/>
      <point x="1111" y="-550"/>
      <point x="1200" y="-341"/>
      <point x="1200" y="-157" type="curve" smooth="yes"/>
      <point x="1200" y="1024" type="line"/>
      <point x="512" y="1024" type="line"/>
      <point x="512" y="1234" type="line" smooth="yes"/>
      <point x="512" y="1376"/>
      <point x="550" y="1438"/>
      <point x="668" y="1438" type="curve" smooth="yes"/>
      <point x="758" y="1438"/>
      <point x="858" y="1385"/>
      <point x="917" y="1335" type="curve"/>
      <point x="1040" y="1584" type="line"/>
      <point x="949" y="1663"/>
      <point x="774" y="1750"/>
      <point x="561" y="1750" type="curve" smooth="yes"/>
      <point x="305" y="1750"/>
      <point x="156" y="1544"/>
      <point x="156" y="1244" type="curve" smooth="yes"/>
      <point x="156" y="1024" type="line"/>
      <point x="9" y="1024" type="line"/>
      <point x="9" y="754" type="line"/>
      <point x="156" y="754" type="line"/>
      <point x="156" y="0" type="line"/>
      <point x="512" y="0" type="line"/>
      <point x="512" y="754" type="line"/>
      <point x="845" y="754" type="line"/>
      <point x="845" y="-91" type="line" smooth="yes"/>
      <point x="845" y="-186"/>
      <point x="809" y="-230"/>
      <point x="748" y="-230" type="curve" smooth="yes"/>
      <point x="715" y="-230"/>
      <point x="678" y="-214"/>
      <point x="658" y="-200" type="curve"/>
      <point x="549" y="-486" type="line"/>
      <point x="594" y="-514"/>
      <point x="691" y="-550"/>
    </contour>
  </outline>
</glyph>
